{"glyphs":{"0":{"ha":889,"x_min":66,"x_max":823,"o":"m 433 -13 q 270 26 340 -13 q 155 138 200 66 q 88 306 110 209 q 66 518 66 403 q 118 805 67 687 q 259 983 170 922 q 459 1044 347 1044 q 623 1008 554 1044 q 736 902 692 971 q 802 737 781 833 q 823 524 823 641 q 774 236 822 357 q 638 51 725 116 q 433 -13 550 -13 m 444 51 q 565 102 519 51 q 630 256 610 153 q 650 510 650 358 q 638 715 650 627 q 602 862 626 803 q 539 950 578 921 q 447 980 501 980 q 353 953 392 980 q 288 870 313 926 q 250 729 263 815 q 238 526 238 643 q 250 330 238 417 q 287 180 262 242 q 351 84 313 117 q 444 51 390 51 z "},"1":{"ha":621,"x_min":53,"x_max":584,"o":"m 262 74 l 261 884 q 208 867 242 876 q 135 849 174 857 q 67 836 97 840 l 53 907 q 157 939 104 917 q 254 988 209 960 q 331 1045 299 1016 l 333 1045 l 419 1031 l 419 75 l 584 60 l 584 0 l 85 0 l 85 60 l 262 74 z "},"2":{"ha":810,"x_min":30,"x_max":753,"o":"m 30 58 q 171 161 100 101 q 306 290 242 220 q 420 434 370 360 q 498 584 469 509 q 527 726 527 658 q 502 845 527 799 q 434 914 478 892 q 333 937 390 937 q 231 917 276 937 q 151 869 185 898 q 93 813 117 841 l 39 864 q 92 928 60 896 q 166 986 124 960 q 262 1028 209 1012 q 378 1044 315 1044 q 542 1008 472 1044 q 651 907 613 972 q 689 757 689 843 q 660 611 689 686 q 582 462 631 536 q 468 319 532 388 q 332 192 403 251 q 191 88 261 133 l 633 123 l 686 240 l 753 226 l 714 0 l 52 0 l 30 58 z "},"3":{"ha":774,"x_min":49,"x_max":702,"o":"m 213 -20 q 135 -14 177 -20 q 65 0 93 -8 l 66 74 q 124 61 92 65 q 184 58 156 58 q 369 91 293 57 q 486 184 446 126 q 526 315 526 243 q 502 420 526 376 q 427 488 478 464 q 296 510 376 511 q 269 502 288 508 q 232 492 250 497 q 206 485 213 488 l 185 554 q 239 568 211 560 q 291 588 267 577 q 393 641 350 611 q 461 710 437 671 q 485 800 485 749 q 464 886 486 854 q 403 933 442 919 q 313 947 364 947 q 222 936 265 947 q 145 907 180 925 q 83 869 110 890 l 49 927 q 120 979 74 952 q 229 1025 167 1006 q 362 1043 291 1043 q 505 1020 440 1043 q 609 950 570 998 q 649 824 649 901 q 625 727 649 771 q 563 649 602 683 q 474 589 523 615 q 374 546 425 563 q 545 533 472 558 q 659 454 618 507 q 701 331 701 401 q 666 188 702 253 q 565 77 631 124 q 410 5 500 31 q 213 -20 321 -20 z "},"4":{"ha":844,"x_min":33,"x_max":817,"o":"m 499 0 l 499 211 l 69 211 l 33 278 q 112 425 73 348 q 188 581 151 501 q 259 739 224 660 q 326 893 294 818 q 389 1035 358 968 l 435 1035 l 553 974 l 237 396 l 157 281 l 499 304 l 506 583 l 639 593 l 639 313 l 817 323 l 817 211 l 639 211 l 639 0 l 499 0 z "},"5":{"ha":794,"x_min":89,"x_max":711,"o":"m 96 58 q 139 55 116 56 q 184 53 163 53 q 366 93 285 54 q 496 197 448 131 q 544 347 544 263 q 520 458 544 413 q 452 526 497 503 q 338 549 406 549 q 266 543 303 549 q 193 525 228 536 q 131 500 158 514 l 89 528 l 157 1032 l 592 1032 l 607 1058 l 688 1058 l 663 908 l 258 908 l 187 576 q 251 611 213 594 q 334 639 289 628 q 425 649 379 649 q 581 616 517 649 q 678 522 645 583 q 711 376 711 461 q 675 223 711 294 q 572 97 640 151 q 411 11 505 42 q 203 -19 318 -19 q 168 -19 187 -20 q 132 -16 150 -18 q 96 -8 113 -13 l 96 58 z "},"6":{"ha":840,"x_min":69,"x_max":784,"o":"m 423 -20 q 269 14 335 -20 q 158 108 203 48 q 91 245 113 167 q 69 412 69 324 q 111 647 69 535 q 230 849 154 759 q 406 1000 306 940 q 620 1079 506 1060 l 650 1022 q 493 947 560 994 q 378 839 426 899 q 299 708 331 778 q 251 564 268 638 q 344 640 286 608 q 480 671 403 671 q 643 630 576 671 q 748 516 711 589 q 784 345 784 443 q 759 203 784 269 q 688 87 735 137 q 575 8 642 37 q 423 -20 508 -20 m 444 588 q 347 570 389 588 q 278 527 306 552 q 237 481 251 502 q 234 445 235 467 q 233 381 233 422 q 240 282 233 331 q 261 190 247 233 q 298 114 275 147 q 354 63 322 81 q 431 44 387 44 q 538 82 496 44 q 600 181 579 119 q 620 313 620 242 q 599 464 620 403 q 539 557 578 525 q 444 588 499 588 z "},"7":{"ha":785,"x_min":49,"x_max":750,"o":"m 413 -1 l 228 0 q 367 311 299 156 q 500 620 435 466 q 626 923 565 774 l 188 917 l 128 736 l 49 751 l 81 1032 l 721 1032 l 750 995 l 413 -1 z "},"8":{"ha":830,"x_min":63,"x_max":767,"o":"m 410 -13 q 282 2 344 -13 q 171 50 220 18 q 92 132 122 82 q 63 251 63 182 q 88 353 63 303 q 161 444 112 403 q 284 515 210 486 q 196 582 236 545 q 132 668 156 619 q 108 781 108 717 q 154 926 108 867 q 273 1015 200 985 q 429 1045 347 1045 q 588 1016 520 1045 q 692 936 655 988 q 729 816 729 885 q 680 669 729 737 q 535 556 630 602 q 651 482 598 522 q 735 391 703 442 q 767 269 767 340 q 739 152 767 204 q 661 63 711 100 q 547 6 612 26 q 410 -13 483 -13 m 419 51 q 515 72 470 51 q 586 134 559 94 q 614 228 614 174 q 575 335 614 292 q 473 413 535 378 q 339 485 410 447 q 266 432 297 464 q 217 361 234 401 q 199 276 199 321 q 226 158 199 209 q 302 79 253 107 q 419 51 351 51 m 476 587 q 571 673 537 619 q 606 788 606 726 q 584 892 606 848 q 522 961 563 936 q 424 985 481 985 q 334 966 375 985 q 268 909 292 946 q 244 821 244 872 q 276 725 244 765 q 361 653 308 685 q 476 587 414 620 z "},"9":{"ha":842,"x_min":56,"x_max":773,"o":"m 418 1045 q 577 1012 510 1045 q 688 921 644 979 q 752 788 731 863 q 773 626 773 712 q 728 372 773 489 q 607 164 684 254 q 432 16 530 73 q 226 -59 333 -42 l 197 -1 q 348 71 282 26 q 462 176 414 117 q 541 306 510 235 q 588 451 573 376 q 532 397 566 421 q 456 359 499 373 q 366 344 414 344 q 241 367 297 344 q 143 434 184 390 q 79 538 101 477 q 56 676 56 599 q 81 819 56 753 q 152 937 106 886 q 266 1016 199 988 q 418 1045 333 1045 m 401 427 q 491 444 450 427 q 560 486 531 461 q 603 534 589 511 q 605 559 603 545 q 606 587 606 572 q 607 617 607 602 q 602 725 607 672 q 584 824 597 778 q 549 906 571 871 q 492 961 526 941 q 409 981 458 981 q 302 941 344 981 q 240 838 260 901 q 220 706 220 775 q 242 551 220 613 q 305 459 265 490 q 401 427 346 428 z "},"A":{"ha":958,"x_min":-19,"x_max":972,"o":"m 69 76 l 410 1040 l 567 1040 l 886 76 l 972 60 l 972 0 l 602 0 l 602 60 l 710 76 l 642 292 l 251 292 l 185 76 l 297 60 l 297 0 l -19 0 l -19 60 l 69 76 m 619 367 l 483 819 l 455 926 l 423 817 l 274 367 l 619 367 z "},"Á":{"ha":958,"x_min":-19,"x_max":972,"o":"m 69 76 l 410 1040 l 567 1040 l 886 76 l 972 60 l 972 0 l 602 0 l 602 60 l 710 76 l 642 292 l 251 292 l 185 76 l 297 60 l 297 0 l -19 0 l -19 60 l 69 76 m 619 367 l 483 819 l 455 926 l 423 817 l 274 367 l 619 367 m 485 1110 l 436 1152 l 608 1373 l 711 1290 q 665 1239 692 1265 q 607 1188 638 1213 q 544 1142 576 1163 q 487 1110 513 1122 l 485 1110 z "},"Ă":{"ha":958,"x_min":-19,"x_max":972,"o":"m 69 76 l 410 1040 l 567 1040 l 886 76 l 972 60 l 972 0 l 602 0 l 602 60 l 710 76 l 642 292 l 251 292 l 185 76 l 297 60 l 297 0 l -19 0 l -19 60 l 69 76 m 619 367 l 483 819 l 455 926 l 423 817 l 274 367 l 619 367 m 487 1120 q 382 1143 427 1120 q 310 1207 336 1165 q 284 1302 284 1248 q 285 1319 284 1311 q 287 1335 285 1326 l 355 1335 q 355 1325 355 1331 q 356 1313 356 1319 q 375 1268 361 1289 q 415 1233 388 1247 q 487 1220 442 1220 q 559 1233 532 1220 q 600 1268 586 1247 q 617 1313 614 1289 q 619 1325 619 1319 q 619 1335 619 1331 l 688 1335 q 690 1319 689 1326 q 690 1302 690 1311 q 664 1207 690 1248 q 593 1143 638 1165 q 487 1120 547 1120 z "},"Ắ":{"ha":958,"x_min":-19,"x_max":972,"o":"m 69 76 l 410 1040 l 567 1040 l 886 76 l 972 60 l 972 0 l 602 0 l 602 60 l 710 76 l 642 292 l 251 292 l 185 76 l 297 60 l 297 0 l -19 0 l -19 60 l 69 76 m 619 367 l 483 819 l 455 926 l 423 817 l 274 367 l 619 367 m 487 1120 q 382 1143 427 1120 q 310 1207 336 1165 q 284 1302 284 1248 q 285 1319 284 1311 q 287 1335 285 1326 l 355 1335 q 355 1325 355 1331 q 356 1313 356 1319 q 375 1268 361 1289 q 415 1233 388 1247 q 487 1220 442 1220 q 559 1233 532 1220 q 600 1268 586 1247 q 617 1313 614 1289 q 619 1325 619 1319 q 619 1335 619 1331 l 688 1335 q 690 1319 689 1326 q 690 1302 690 1311 q 664 1207 690 1248 q 593 1143 638 1165 q 487 1120 547 1120 m 486 1356 l 437 1397 l 609 1618 l 712 1535 q 666 1484 693 1510 q 608 1433 639 1458 q 545 1388 576 1408 q 488 1356 514 1367 l 486 1356 z "},"Ặ":{"ha":958,"x_min":-19,"x_max":972,"o":"m 69 76 l 410 1040 l 567 1040 l 886 76 l 972 60 l 972 0 l 602 0 l 602 60 l 710 76 l 642 292 l 251 292 l 185 76 l 297 60 l 297 0 l -19 0 l -19 60 l 69 76 m 619 367 l 483 819 l 455 926 l 423 817 l 274 367 l 619 367 m 487 1120 q 382 1143 427 1120 q 310 1207 336 1165 q 284 1302 284 1248 q 285 1319 284 1311 q 287 1335 285 1326 l 355 1335 q 355 1325 355 1331 q 356 1313 356 1319 q 375 1268 361 1289 q 415 1233 388 1247 q 487 1220 442 1220 q 559 1233 532 1220 q 600 1268 586 1247 q 617 1313 614 1289 q 619 1325 619 1319 q 619 1335 619 1331 l 688 1335 q 690 1319 689 1326 q 690 1302 690 1311 q 664 1207 690 1248 q 593 1143 638 1165 q 487 1120 547 1120 m 464 -285 q 398 -259 422 -285 q 374 -195 374 -233 q 400 -122 374 -153 q 475 -90 426 -90 l 476 -90 q 543 -116 520 -90 q 567 -181 567 -142 q 541 -254 567 -223 q 465 -285 515 -285 l 464 -285 z "},"Ằ":{"ha":958,"x_min":-19,"x_max":972,"o":"m 69 76 l 410 1040 l 567 1040 l 886 76 l 972 60 l 972 0 l 602 0 l 602 60 l 710 76 l 642 292 l 251 292 l 185 76 l 297 60 l 297 0 l -19 0 l -19 60 l 69 76 m 619 367 l 483 819 l 455 926 l 423 817 l 274 367 l 619 367 m 487 1120 q 382 1143 427 1120 q 310 1207 336 1165 q 284 1302 284 1248 q 285 1319 284 1311 q 287 1335 285 1326 l 355 1335 q 355 1325 355 1331 q 356 1313 356 1319 q 375 1268 361 1289 q 415 1233 388 1247 q 487 1220 442 1220 q 559 1233 532 1220 q 600 1268 586 1247 q 617 1313 614 1289 q 619 1325 619 1319 q 619 1335 619 1331 l 688 1335 q 690 1319 689 1326 q 690 1302 690 1311 q 664 1207 690 1248 q 593 1143 638 1165 q 487 1120 547 1120 m 492 1354 q 435 1387 467 1367 q 373 1432 404 1407 q 315 1483 342 1457 q 269 1534 288 1510 l 372 1617 l 544 1396 l 494 1354 l 492 1354 z "},"Ẳ":{"ha":958,"x_min":-19,"x_max":972,"o":"m 69 76 l 410 1040 l 567 1040 l 886 76 l 972 60 l 972 0 l 602 0 l 602 60 l 710 76 l 642 292 l 251 292 l 185 76 l 297 60 l 297 0 l -19 0 l -19 60 l 69 76 m 619 367 l 483 819 l 455 926 l 423 817 l 274 367 l 619 367 m 487 1120 q 382 1143 427 1120 q 310 1207 336 1165 q 284 1302 284 1248 q 285 1319 284 1311 q 287 1335 285 1326 l 355 1335 q 355 1325 355 1331 q 356 1313 356 1319 q 375 1268 361 1289 q 415 1233 388 1247 q 487 1220 442 1220 q 559 1233 532 1220 q 600 1268 586 1247 q 617 1313 614 1289 q 619 1325 619 1319 q 619 1335 619 1331 l 688 1335 q 690 1319 689 1326 q 690 1302 690 1311 q 664 1207 690 1248 q 593 1143 638 1165 q 487 1120 547 1120 m 446 1352 q 435 1375 439 1363 q 431 1400 431 1386 q 441 1434 431 1420 q 466 1458 452 1447 q 491 1481 481 1469 q 502 1511 502 1494 q 485 1547 502 1535 q 429 1558 467 1558 q 393 1555 413 1558 q 362 1544 374 1551 l 361 1630 q 405 1643 379 1638 q 456 1649 431 1649 q 538 1634 503 1649 q 594 1593 574 1619 q 614 1531 614 1567 q 604 1485 614 1504 q 577 1452 594 1466 q 543 1426 561 1439 q 513 1393 519 1411 q 512 1352 506 1375 l 446 1352 z "},"Ẵ":{"ha":958,"x_min":-19,"x_max":972,"o":"m 69 76 l 410 1040 l 567 1040 l 886 76 l 972 60 l 972 0 l 602 0 l 602 60 l 710 76 l 642 292 l 251 292 l 185 76 l 297 60 l 297 0 l -19 0 l -19 60 l 69 76 m 619 367 l 483 819 l 455 926 l 423 817 l 274 367 l 619 367 m 487 1120 q 382 1143 427 1120 q 310 1207 336 1165 q 284 1302 284 1248 q 285 1319 284 1311 q 287 1335 285 1326 l 355 1335 q 355 1325 355 1331 q 356 1313 356 1319 q 375 1268 361 1289 q 415 1233 388 1247 q 487 1220 442 1220 q 559 1233 532 1220 q 600 1268 586 1247 q 617 1313 614 1289 q 619 1325 619 1319 q 619 1335 619 1331 l 688 1335 q 690 1319 689 1326 q 690 1302 690 1311 q 664 1207 690 1248 q 593 1143 638 1165 q 487 1120 547 1120 m 565 1369 q 509 1383 532 1369 q 470 1415 487 1397 q 436 1447 453 1433 q 398 1461 419 1461 q 356 1437 371 1461 q 330 1378 341 1413 l 278 1406 q 323 1517 287 1476 q 410 1557 358 1557 q 465 1543 443 1557 q 505 1511 488 1529 q 539 1478 522 1492 q 576 1464 556 1464 q 619 1487 604 1464 q 644 1547 634 1510 l 697 1520 q 652 1408 688 1447 q 565 1369 617 1369 z "},"Ǎ":{"ha":958,"x_min":-19,"x_max":972,"o":"m 69 76 l 410 1040 l 567 1040 l 886 76 l 972 60 l 972 0 l 602 0 l 602 60 l 710 76 l 642 292 l 251 292 l 185 76 l 297 60 l 297 0 l -19 0 l -19 60 l 69 76 m 619 367 l 483 819 l 455 926 l 423 817 l 274 367 l 619 367 m 432 1115 l 259 1315 l 307 1351 l 490 1216 l 672 1351 l 719 1315 l 547 1115 l 432 1115 z "},"Â":{"ha":958,"x_min":-19,"x_max":972,"o":"m 69 76 l 410 1040 l 567 1040 l 886 76 l 972 60 l 972 0 l 602 0 l 602 60 l 710 76 l 642 292 l 251 292 l 185 76 l 297 60 l 297 0 l -19 0 l -19 60 l 69 76 m 619 367 l 483 819 l 455 926 l 423 817 l 274 367 l 619 367 m 305 1104 l 257 1140 l 430 1343 l 544 1343 l 717 1141 l 669 1104 l 488 1243 l 305 1104 z "},"Ấ":{"ha":958,"x_min":-19,"x_max":972,"o":"m 69 76 l 410 1040 l 567 1040 l 886 76 l 972 60 l 972 0 l 602 0 l 602 60 l 710 76 l 642 292 l 251 292 l 185 76 l 297 60 l 297 0 l -19 0 l -19 60 l 69 76 m 619 367 l 483 819 l 455 926 l 423 817 l 274 367 l 619 367 m 310 1108 l 260 1146 l 435 1331 l 540 1331 l 715 1146 l 665 1108 l 488 1229 l 310 1108 m 679 1291 l 678 1291 l 633 1329 l 774 1510 l 861 1444 q 810 1387 842 1416 q 744 1332 779 1358 q 679 1291 710 1307 z "},"Ậ":{"ha":958,"x_min":-19,"x_max":972,"o":"m 69 76 l 410 1040 l 567 1040 l 886 76 l 972 60 l 972 0 l 602 0 l 602 60 l 710 76 l 642 292 l 251 292 l 185 76 l 297 60 l 297 0 l -19 0 l -19 60 l 69 76 m 619 367 l 483 819 l 455 926 l 423 817 l 274 367 l 619 367 m 464 -285 q 398 -259 422 -285 q 374 -195 374 -233 q 400 -122 374 -153 q 475 -90 426 -90 l 476 -90 q 543 -116 520 -90 q 567 -181 567 -142 q 541 -254 567 -223 q 465 -285 515 -285 l 464 -285 m 305 1104 l 257 1140 l 430 1343 l 544 1343 l 717 1141 l 669 1104 l 488 1243 l 305 1104 z "},"Ầ":{"ha":958,"x_min":-19,"x_max":972,"o":"m 69 76 l 410 1040 l 567 1040 l 886 76 l 972 60 l 972 0 l 602 0 l 602 60 l 710 76 l 642 292 l 251 292 l 185 76 l 297 60 l 297 0 l -19 0 l -19 60 l 69 76 m 619 367 l 483 819 l 455 926 l 423 817 l 274 367 l 619 367 m 310 1108 l 260 1146 l 435 1331 l 540 1331 l 715 1146 l 665 1108 l 488 1229 l 310 1108 m 717 1291 q 651 1333 686 1307 q 586 1387 617 1358 q 535 1444 555 1416 l 622 1510 l 763 1329 l 718 1291 l 717 1291 z "},"Ẩ":{"ha":958,"x_min":-19,"x_max":972,"o":"m 69 76 l 410 1040 l 567 1040 l 886 76 l 972 60 l 972 0 l 602 0 l 602 60 l 710 76 l 642 292 l 251 292 l 185 76 l 297 60 l 297 0 l -19 0 l -19 60 l 69 76 m 619 367 l 483 819 l 455 926 l 423 817 l 274 367 l 619 367 m 309 1108 l 259 1146 l 434 1331 l 538 1331 l 713 1146 l 663 1108 l 486 1229 l 309 1108 m 668 1291 q 656 1313 661 1302 q 650 1336 650 1324 q 660 1366 650 1354 q 683 1388 669 1378 q 706 1410 696 1399 q 715 1439 715 1422 q 699 1470 715 1457 q 653 1483 683 1483 q 626 1480 639 1483 q 601 1472 613 1478 l 600 1552 q 632 1562 613 1558 q 674 1566 651 1566 q 774 1535 736 1566 q 813 1460 813 1505 q 800 1411 813 1431 q 770 1378 788 1392 q 735 1351 753 1364 q 717 1326 719 1340 q 720 1295 715 1313 l 668 1291 z "},"Ẫ":{"ha":958,"x_min":-19,"x_max":972,"o":"m 69 76 l 410 1040 l 567 1040 l 886 76 l 972 60 l 972 0 l 602 0 l 602 60 l 710 76 l 642 292 l 251 292 l 185 76 l 297 60 l 297 0 l -19 0 l -19 60 l 69 76 m 619 367 l 483 819 l 455 926 l 423 817 l 274 367 l 619 367 m 310 1108 l 260 1146 l 435 1331 l 539 1331 l 714 1146 l 664 1108 l 487 1229 l 310 1108 m 564 1387 q 499 1405 526 1387 q 449 1440 472 1422 q 405 1458 427 1458 q 368 1443 381 1458 q 345 1401 356 1427 l 297 1421 q 337 1513 306 1475 q 415 1551 369 1551 q 476 1534 450 1551 q 526 1498 503 1516 q 574 1481 549 1481 q 610 1495 597 1481 q 632 1537 623 1510 l 681 1517 q 641 1425 672 1463 q 564 1387 609 1387 z "},"Ȁ":{"ha":958,"x_min":-19,"x_max":972,"o":"m 69 76 l 410 1040 l 567 1040 l 886 76 l 972 60 l 972 0 l 602 0 l 602 60 l 710 76 l 642 292 l 251 292 l 185 76 l 297 60 l 297 0 l -19 0 l -19 60 l 69 76 m 619 367 l 483 819 l 455 926 l 423 817 l 274 367 l 619 367 m 360 1110 q 306 1147 336 1124 q 244 1198 275 1170 q 185 1255 213 1226 q 140 1309 158 1283 l 235 1381 l 413 1152 l 362 1110 l 360 1110 m 622 1110 q 550 1164 589 1130 q 474 1237 510 1198 q 413 1310 438 1276 l 509 1382 l 674 1149 l 623 1110 l 622 1110 z "},"Ä":{"ha":958,"x_min":-19,"x_max":972,"o":"m 69 76 l 410 1040 l 567 1040 l 886 76 l 972 60 l 972 0 l 602 0 l 602 60 l 710 76 l 642 292 l 251 292 l 185 76 l 297 60 l 297 0 l -19 0 l -19 60 l 69 76 m 619 367 l 483 819 l 455 926 l 423 817 l 274 367 l 619 367 m 351 1126 q 294 1152 314 1126 q 274 1216 274 1178 q 297 1289 274 1257 q 363 1321 320 1321 l 364 1321 q 422 1294 401 1321 q 442 1231 442 1268 q 418 1158 442 1190 q 353 1126 395 1126 l 351 1126 m 611 1126 q 553 1152 574 1126 q 533 1216 533 1178 q 556 1289 533 1257 q 622 1321 579 1321 l 623 1321 q 681 1294 661 1321 q 701 1231 701 1268 q 678 1158 701 1190 q 613 1126 655 1126 l 611 1126 z "},"Ǟ":{"ha":958,"x_min":-19,"x_max":972,"o":"m 69 76 l 410 1040 l 567 1040 l 886 76 l 972 60 l 972 0 l 602 0 l 602 60 l 710 76 l 642 292 l 251 292 l 185 76 l 297 60 l 297 0 l -19 0 l -19 60 l 69 76 m 619 367 l 483 819 l 455 926 l 423 817 l 274 367 l 619 367 m 351 1126 q 294 1152 314 1126 q 274 1216 274 1178 q 297 1289 274 1257 q 363 1321 320 1321 l 364 1321 q 422 1294 401 1321 q 442 1231 442 1268 q 418 1158 442 1190 q 353 1126 395 1126 l 351 1126 m 611 1126 q 553 1152 574 1126 q 533 1216 533 1178 q 556 1289 533 1257 q 622 1321 579 1321 l 623 1321 q 681 1294 661 1321 q 701 1231 701 1268 q 678 1158 701 1190 q 613 1126 655 1126 l 611 1126 m 685 1475 l 685 1380 l 290 1380 l 290 1475 l 685 1475 z "},"Ȧ":{"ha":958,"x_min":-19,"x_max":972,"o":"m 69 76 l 410 1040 l 567 1040 l 886 76 l 972 60 l 972 0 l 602 0 l 602 60 l 710 76 l 642 292 l 251 292 l 185 76 l 297 60 l 297 0 l -19 0 l -19 60 l 69 76 m 619 367 l 483 819 l 455 926 l 423 817 l 274 367 l 619 367 m 481 1126 q 413 1152 437 1126 q 390 1217 390 1178 q 416 1290 390 1258 q 492 1321 442 1321 l 494 1321 q 561 1295 538 1321 q 585 1231 585 1269 q 559 1158 585 1189 q 483 1126 533 1126 l 481 1126 z "},"Ạ":{"ha":958,"x_min":-19,"x_max":972,"o":"m 69 76 l 410 1040 l 567 1040 l 886 76 l 972 60 l 972 0 l 602 0 l 602 60 l 710 76 l 642 292 l 251 292 l 185 76 l 297 60 l 297 0 l -19 0 l -19 60 l 69 76 m 619 367 l 483 819 l 455 926 l 423 817 l 274 367 l 619 367 m 464 -285 q 398 -259 422 -285 q 374 -195 374 -233 q 400 -122 374 -153 q 475 -90 426 -90 l 476 -90 q 543 -116 520 -90 q 567 -181 567 -142 q 541 -254 567 -223 q 465 -285 515 -285 l 464 -285 z "},"Ǡ":{"ha":958,"x_min":-19,"x_max":972,"o":"m 69 76 l 410 1040 l 567 1040 l 886 76 l 972 60 l 972 0 l 602 0 l 602 60 l 710 76 l 642 292 l 251 292 l 185 76 l 297 60 l 297 0 l -19 0 l -19 60 l 69 76 m 619 367 l 483 819 l 455 926 l 423 817 l 274 367 l 619 367 m 481 1126 q 413 1152 437 1126 q 390 1217 390 1178 q 416 1290 390 1258 q 492 1321 442 1321 l 494 1321 q 561 1295 538 1321 q 585 1231 585 1269 q 559 1158 585 1189 q 483 1126 533 1126 l 481 1126 m 688 1472 l 688 1376 l 292 1376 l 292 1472 l 688 1472 z "},"À":{"ha":958,"x_min":-19,"x_max":972,"o":"m 69 76 l 410 1040 l 567 1040 l 886 76 l 972 60 l 972 0 l 602 0 l 602 60 l 710 76 l 642 292 l 251 292 l 185 76 l 297 60 l 297 0 l -19 0 l -19 60 l 69 76 m 619 367 l 483 819 l 455 926 l 423 817 l 274 367 l 619 367 m 492 1109 q 435 1142 467 1122 q 373 1187 404 1162 q 315 1238 342 1212 q 269 1289 288 1265 l 372 1372 l 544 1151 l 494 1109 l 492 1109 z "},"Ả":{"ha":958,"x_min":-19,"x_max":972,"o":"m 69 76 l 410 1040 l 567 1040 l 886 76 l 972 60 l 972 0 l 602 0 l 602 60 l 710 76 l 642 292 l 251 292 l 185 76 l 297 60 l 297 0 l -19 0 l -19 60 l 69 76 m 619 367 l 483 819 l 455 926 l 423 817 l 274 367 l 619 367 m 445 1107 q 434 1130 438 1118 q 430 1155 430 1141 q 441 1189 430 1175 q 466 1213 451 1202 q 491 1236 480 1224 q 501 1266 501 1249 q 484 1301 501 1290 q 428 1313 467 1313 q 393 1309 413 1313 q 361 1299 373 1306 l 360 1385 q 405 1398 378 1393 q 455 1403 431 1403 q 538 1389 502 1403 q 593 1348 573 1374 q 613 1286 613 1322 q 603 1240 613 1259 q 577 1207 593 1221 q 542 1181 560 1194 q 512 1148 518 1166 q 511 1107 506 1130 l 445 1107 z "},"Ȃ":{"ha":958,"x_min":-19,"x_max":972,"o":"m 69 76 l 410 1040 l 567 1040 l 886 76 l 972 60 l 972 0 l 602 0 l 602 60 l 710 76 l 642 292 l 251 292 l 185 76 l 297 60 l 297 0 l -19 0 l -19 60 l 69 76 m 619 367 l 483 819 l 455 926 l 423 817 l 274 367 l 619 367 m 487 1357 q 602 1331 553 1357 q 676 1260 650 1306 q 703 1158 703 1215 q 702 1141 703 1149 q 700 1124 701 1133 l 632 1124 q 632 1135 632 1128 q 630 1147 631 1141 q 612 1195 626 1172 q 568 1234 598 1219 q 487 1249 538 1249 q 406 1234 436 1249 q 363 1195 376 1219 q 344 1147 349 1172 q 343 1135 343 1141 q 342 1124 342 1128 l 274 1124 q 272 1141 273 1133 q 272 1158 272 1150 q 298 1260 272 1215 q 373 1331 324 1306 q 487 1357 421 1357 z "},"Ɑ":{"ha":969,"x_min":42,"x_max":950,"o":"m 466 -15 q 294 17 372 -15 q 160 115 217 50 q 73 278 103 181 q 42 506 42 376 q 76 726 42 627 q 172 897 109 826 q 323 1007 235 969 q 521 1046 411 1046 q 631 1035 581 1046 q 717 1002 681 1024 l 749 1032 l 853 1032 l 853 76 l 950 59 l 950 0 l 704 0 l 700 69 q 634 25 672 44 q 552 -5 595 6 q 466 -15 509 -15 m 481 50 q 559 61 519 50 q 633 100 598 73 q 695 173 669 126 l 696 919 q 652 953 678 940 q 595 975 627 967 q 526 983 564 983 q 398 954 455 983 q 300 867 341 926 q 237 719 259 808 q 215 508 215 629 q 233 309 214 394 q 286 165 251 223 q 371 79 322 108 q 481 50 420 50 z "},"Ā":{"ha":958,"x_min":-19,"x_max":972,"o":"m 69 76 l 410 1040 l 567 1040 l 886 76 l 972 60 l 972 0 l 602 0 l 602 60 l 710 76 l 642 292 l 251 292 l 185 76 l 297 60 l 297 0 l -19 0 l -19 60 l 69 76 m 619 367 l 483 819 l 455 926 l 423 817 l 274 367 l 619 367 m 685 1241 l 685 1146 l 290 1146 l 290 1241 l 685 1241 z "},"Ą":{"ha":958,"x_min":-19,"x_max":972,"o":"m 69 76 l 410 1040 l 567 1040 l 886 76 l 972 60 l 972 0 l 602 0 l 602 60 l 710 76 l 642 292 l 251 292 l 185 76 l 297 60 l 297 0 l -19 0 l -19 60 l 69 76 m 619 367 l 483 819 l 455 926 l 423 817 l 274 367 l 619 367 m 792 -342 q 718 -328 753 -342 q 659 -286 682 -315 q 637 -214 637 -257 q 661 -130 637 -170 q 727 -55 685 -89 q 817 1 768 -22 l 855 7 l 907 1 q 826 -51 858 -20 q 780 -116 795 -82 q 765 -178 765 -149 q 786 -233 765 -214 q 845 -253 807 -253 q 903 -242 876 -253 q 952 -216 929 -231 l 966 -276 q 897 -322 944 -301 q 792 -342 850 -342 z "},"Å":{"ha":958,"x_min":-19,"x_max":972,"o":"m 69 76 l 410 1040 l 567 1040 l 886 76 l 972 60 l 972 0 l 602 0 l 602 60 l 710 76 l 642 292 l 251 292 l 185 76 l 297 60 l 297 0 l -19 0 l -19 60 l 69 76 m 619 367 l 483 819 l 455 926 l 423 817 l 274 367 l 619 367 m 485 1106 q 363 1152 410 1106 q 316 1269 315 1199 q 365 1389 317 1342 q 490 1435 414 1435 q 612 1389 565 1435 q 658 1272 659 1343 q 610 1153 658 1199 q 485 1106 562 1106 m 488 1169 q 557 1196 531 1169 q 583 1269 583 1224 q 558 1344 583 1315 q 488 1372 533 1372 q 417 1345 444 1372 q 391 1271 391 1317 q 417 1197 391 1225 q 488 1169 442 1169 z "},"Ǻ":{"ha":958,"x_min":-19,"x_max":972,"o":"m 69 76 l 410 1040 l 567 1040 l 886 76 l 972 60 l 972 0 l 602 0 l 602 60 l 710 76 l 642 292 l 251 292 l 185 76 l 297 60 l 297 0 l -19 0 l -19 60 l 69 76 m 619 367 l 483 819 l 455 926 l 423 817 l 274 367 l 619 367 m 485 1106 q 363 1152 410 1106 q 316 1269 315 1199 q 365 1389 317 1342 q 490 1435 414 1435 q 555 1423 526 1435 l 664 1567 l 738 1507 q 707 1469 727 1491 q 661 1426 686 1448 q 612 1388 636 1405 q 658 1272 658 1342 q 610 1153 658 1199 q 485 1106 562 1106 m 488 1169 q 557 1196 531 1169 q 583 1269 583 1224 q 557 1344 583 1315 q 488 1372 531 1372 q 417 1345 444 1372 q 391 1271 391 1317 q 417 1197 391 1225 q 488 1169 442 1169 z "},"Ḁ":{"ha":958,"x_min":-19,"x_max":972,"o":"m 69 76 l 410 1040 l 567 1040 l 886 76 l 972 60 l 972 0 l 602 0 l 602 60 l 710 76 l 642 292 l 251 292 l 185 76 l 297 60 l 297 0 l -19 0 l -19 60 l 69 76 m 619 367 l 483 819 l 455 926 l 423 817 l 274 367 l 619 367 m 473 -371 q 361 -329 404 -371 q 317 -222 317 -287 q 363 -111 318 -154 q 477 -67 408 -67 q 588 -110 544 -67 q 632 -219 632 -153 q 586 -329 631 -287 q 473 -371 542 -371 m 474 -315 q 538 -290 514 -315 q 562 -222 562 -264 q 538 -152 562 -179 q 474 -126 515 -126 q 411 -151 435 -126 q 387 -220 387 -177 q 410 -289 387 -262 q 474 -315 434 -315 z "},"Ⱥ":{"ha":958,"x_min":-19,"x_max":972,"o":"m 224 -123 l 445 505 l 659 1123 l 713 1106 l 492 486 l 278 -140 l 224 -123 m 69 76 l 410 1040 l 567 1040 l 886 76 l 972 60 l 972 0 l 602 0 l 602 60 l 710 76 l 642 292 l 251 292 l 185 76 l 297 60 l 297 0 l -19 0 l -19 60 l 69 76 m 619 367 l 483 819 l 455 926 l 423 817 l 274 367 l 619 367 z "},"Ã":{"ha":958,"x_min":-19,"x_max":972,"o":"m 69 76 l 410 1040 l 567 1040 l 886 76 l 972 60 l 972 0 l 602 0 l 602 60 l 710 76 l 642 292 l 251 292 l 185 76 l 297 60 l 297 0 l -19 0 l -19 60 l 69 76 m 619 367 l 483 819 l 455 926 l 423 817 l 274 367 l 619 367 m 565 1124 q 509 1138 532 1124 q 470 1169 487 1151 q 436 1202 453 1188 q 398 1216 419 1216 q 356 1192 371 1216 q 330 1133 341 1168 l 278 1160 q 323 1272 287 1231 q 410 1312 358 1312 q 465 1298 443 1312 q 505 1266 488 1284 q 539 1233 522 1247 q 576 1219 556 1219 q 619 1242 604 1219 q 644 1301 634 1265 l 697 1275 q 652 1163 688 1202 q 565 1124 617 1124 z "},"Ɐ":{"ha":958,"x_min":-15,"x_max":976,"o":"m 390 -8 l 71 956 l -15 972 l -15 1032 l 356 1032 l 356 972 l 248 956 l 315 740 l 706 740 l 773 956 l 660 972 l 660 1032 l 976 1032 l 976 972 l 888 956 l 548 -8 l 390 -8 m 503 106 l 535 215 l 683 665 l 338 665 l 474 213 l 503 106 z "},"Æ":{"ha":1315,"x_min":-58,"x_max":1300,"o":"m -58 0 l -58 59 l 38 78 l 417 951 l 244 972 l 244 1032 l 1199 1032 l 1219 813 l 1143 813 l 1094 958 l 757 968 l 757 566 l 988 572 l 1011 690 l 1080 690 l 1080 369 l 1011 369 l 989 492 l 757 497 l 757 69 l 1140 85 l 1219 269 l 1300 244 l 1258 0 l 488 0 l 488 59 l 599 76 l 599 306 l 251 306 l 158 77 l 266 59 l 266 0 l -58 0 m 281 383 l 599 383 l 599 963 l 517 963 l 442 778 l 281 383 z "},"Ǽ":{"ha":1315,"x_min":-58,"x_max":1300,"o":"m -58 0 l -58 59 l 38 78 l 417 951 l 244 972 l 244 1032 l 1199 1032 l 1219 813 l 1143 813 l 1094 958 l 757 968 l 757 566 l 988 572 l 1011 690 l 1080 690 l 1080 369 l 1011 369 l 989 492 l 757 497 l 757 69 l 1140 85 l 1219 269 l 1300 244 l 1258 0 l 488 0 l 488 59 l 599 76 l 599 306 l 251 306 l 158 77 l 266 59 l 266 0 l -58 0 m 281 383 l 599 383 l 599 963 l 517 963 l 442 778 l 281 383 m 658 1110 l 608 1152 l 781 1373 l 883 1290 q 838 1239 865 1265 q 779 1188 810 1213 q 717 1142 748 1163 q 659 1110 685 1122 l 658 1110 z "},"Ǣ":{"ha":1315,"x_min":-58,"x_max":1300,"o":"m -58 0 l -58 59 l 38 78 l 417 951 l 244 972 l 244 1032 l 1199 1032 l 1219 813 l 1143 813 l 1094 958 l 757 968 l 757 566 l 988 572 l 1011 690 l 1080 690 l 1080 369 l 1011 369 l 989 492 l 757 497 l 757 69 l 1140 85 l 1219 269 l 1300 244 l 1258 0 l 488 0 l 488 59 l 599 76 l 599 306 l 251 306 l 158 77 l 266 59 l 266 0 l -58 0 m 281 383 l 599 383 l 599 963 l 517 963 l 442 778 l 281 383 m 856 1241 l 856 1146 l 461 1146 l 461 1241 l 856 1241 z "},"B":{"ha":918,"x_min":48,"x_max":885,"o":"m 160 76 l 160 953 l 51 971 l 51 1032 l 238 1032 q 316 1035 281 1032 q 385 1040 352 1038 q 455 1042 419 1042 q 625 1025 556 1042 q 736 977 694 1008 q 795 902 777 946 q 813 806 813 859 q 788 686 813 740 q 714 597 762 633 q 599 549 665 561 q 751 522 687 551 q 850 438 815 492 q 885 309 885 383 q 864 189 885 246 q 794 87 843 131 q 662 17 745 43 q 456 -8 579 -8 q 385 -6 417 -8 q 317 -2 352 -4 q 235 0 281 0 l 48 0 l 48 60 l 160 76 m 317 572 q 351 571 331 572 q 392 570 371 570 q 433 571 413 571 q 465 571 452 571 q 571 597 529 571 q 634 670 613 622 q 656 784 656 717 q 608 930 656 882 q 441 978 560 978 q 391 976 415 978 q 348 972 367 974 q 317 969 329 970 l 317 572 m 317 72 q 356 63 333 66 q 406 60 380 60 q 454 59 432 59 q 606 88 550 59 q 687 169 663 117 q 712 291 712 221 q 658 448 712 399 q 486 498 604 498 q 445 498 468 498 q 397 497 422 497 q 352 497 373 497 q 317 495 331 497 l 317 72 z "},"Ḃ":{"ha":918,"x_min":48,"x_max":885,"o":"m 160 76 l 160 953 l 51 971 l 51 1032 l 238 1032 q 316 1035 281 1032 q 385 1040 352 1038 q 455 1042 419 1042 q 625 1025 556 1042 q 736 977 694 1008 q 795 902 777 946 q 813 806 813 859 q 788 686 813 740 q 714 597 762 633 q 599 549 665 561 q 751 522 687 551 q 850 438 815 492 q 885 309 885 383 q 864 189 885 246 q 794 87 843 131 q 662 17 745 43 q 456 -8 579 -8 q 385 -6 417 -8 q 317 -2 352 -4 q 235 0 281 0 l 48 0 l 48 60 l 160 76 m 317 572 q 351 571 331 572 q 392 570 371 570 q 433 571 413 571 q 465 571 452 571 q 571 597 529 571 q 634 670 613 622 q 656 784 656 717 q 608 930 656 882 q 441 978 560 978 q 391 976 415 978 q 348 972 367 974 q 317 969 329 970 l 317 572 m 317 72 q 356 63 333 66 q 406 60 380 60 q 454 59 432 59 q 606 88 550 59 q 687 169 663 117 q 712 291 712 221 q 658 448 712 399 q 486 498 604 498 q 445 498 468 498 q 397 497 422 497 q 352 497 373 497 q 317 495 331 497 l 317 72 m 455 1126 q 387 1152 410 1126 q 363 1217 363 1178 q 390 1290 363 1258 q 466 1321 416 1321 l 467 1321 q 535 1295 512 1321 q 558 1231 558 1269 q 532 1158 558 1189 q 456 1126 506 1126 l 455 1126 z "},"Ḅ":{"ha":918,"x_min":48,"x_max":885,"o":"m 160 76 l 160 953 l 51 971 l 51 1032 l 238 1032 q 316 1035 281 1032 q 385 1040 352 1038 q 455 1042 419 1042 q 625 1025 556 1042 q 736 977 694 1008 q 795 902 777 946 q 813 806 813 859 q 788 686 813 740 q 714 597 762 633 q 599 549 665 561 q 751 522 687 551 q 850 438 815 492 q 885 309 885 383 q 864 189 885 246 q 794 87 843 131 q 662 17 745 43 q 456 -8 579 -8 q 385 -6 417 -8 q 317 -2 352 -4 q 235 0 281 0 l 48 0 l 48 60 l 160 76 m 317 572 q 351 571 331 572 q 392 570 371 570 q 433 571 413 571 q 465 571 452 571 q 571 597 529 571 q 634 670 613 622 q 656 784 656 717 q 608 930 656 882 q 441 978 560 978 q 391 976 415 978 q 348 972 367 974 q 317 969 329 970 l 317 572 m 317 72 q 356 63 333 66 q 406 60 380 60 q 454 59 432 59 q 606 88 550 59 q 687 169 663 117 q 712 291 712 221 q 658 448 712 399 q 486 498 604 498 q 445 498 468 498 q 397 497 422 497 q 352 497 373 497 q 317 495 331 497 l 317 72 m 451 -285 q 385 -259 409 -285 q 362 -195 362 -233 q 388 -122 362 -153 q 463 -90 414 -90 l 464 -90 q 531 -116 508 -90 q 554 -181 554 -142 q 528 -254 554 -223 q 453 -285 502 -285 l 451 -285 z "},"Ꞵ":{"ha":918,"x_min":48,"x_max":885,"o":"m 48 -331 l 48 -271 l 160 -255 l 160 953 l 51 971 l 51 1032 l 238 1032 q 316 1035 281 1032 q 385 1040 352 1038 q 455 1042 419 1042 q 625 1025 556 1042 q 736 977 694 1008 q 795 902 777 946 q 813 806 813 859 q 788 686 813 740 q 714 597 762 633 q 599 549 665 561 q 751 522 687 551 q 850 438 815 492 q 885 309 885 383 q 864 189 885 246 q 794 87 843 131 q 662 17 745 43 q 456 -8 579 -8 q 416 -7 434 -8 q 375 -5 397 -6 l 375 63 q 415 59 397 60 q 454 59 434 59 q 606 88 550 59 q 687 169 663 117 q 712 291 712 221 q 658 448 712 399 q 486 498 604 498 q 433 498 463 498 q 375 497 404 498 l 375 571 q 425 570 402 570 q 465 571 448 571 q 571 597 529 571 q 634 670 613 622 q 656 784 656 717 q 608 930 656 882 q 441 978 560 978 q 390 976 413 978 q 348 972 366 974 q 317 969 329 970 l 317 -331 l 48 -331 z "},"Ɓ":{"ha":1122,"x_min":42,"x_max":1089,"o":"m 660 -8 q 589 -6 622 -8 q 521 -2 556 -4 q 440 0 485 0 l 252 0 l 252 60 l 364 76 l 366 1032 l 442 1032 q 520 1035 485 1032 q 590 1040 556 1038 q 659 1042 623 1042 q 830 1025 760 1042 q 940 977 899 1008 q 999 902 981 946 q 1017 806 1017 859 q 992 686 1017 740 q 918 597 966 633 q 803 549 869 561 q 955 522 891 551 q 1054 438 1019 492 q 1089 309 1089 383 q 1068 189 1089 246 q 998 87 1047 131 q 866 17 949 43 q 660 -8 783 -8 m 658 59 q 810 88 754 59 q 891 169 867 117 q 916 291 916 221 q 862 448 916 399 q 690 498 808 498 q 649 498 672 498 q 601 497 626 497 q 556 497 577 497 q 521 495 535 497 l 521 72 q 560 63 537 66 q 610 60 584 60 q 658 59 636 59 m 669 571 q 775 597 733 571 q 839 670 817 622 q 860 784 860 717 q 812 930 860 882 q 645 978 765 978 q 595 976 619 978 q 552 972 572 974 q 522 969 533 970 l 521 572 q 555 571 535 572 q 596 570 575 570 q 637 571 617 571 q 669 571 656 571 m 50 673 q 44 708 46 687 q 42 758 42 729 q 58 862 42 812 q 112 951 74 912 q 213 1012 149 990 q 369 1032 276 1034 l 379 997 l 369 963 q 253 949 299 965 q 187 896 208 932 q 166 806 166 860 q 173 744 166 778 q 192 673 180 710 l 50 673 z "},"Ḇ":{"ha":918,"x_min":48,"x_max":885,"o":"m 160 76 l 160 953 l 51 971 l 51 1032 l 238 1032 q 316 1035 281 1032 q 385 1040 352 1038 q 455 1042 419 1042 q 625 1025 556 1042 q 736 977 694 1008 q 795 902 777 946 q 813 806 813 859 q 788 686 813 740 q 714 597 762 633 q 599 549 665 561 q 751 522 687 551 q 850 438 815 492 q 885 309 885 383 q 864 189 885 246 q 794 87 843 131 q 662 17 745 43 q 456 -8 579 -8 q 385 -6 417 -8 q 317 -2 352 -4 q 235 0 281 0 l 48 0 l 48 60 l 160 76 m 317 572 q 351 571 331 572 q 392 570 371 570 q 433 571 413 571 q 465 571 452 571 q 571 597 529 571 q 634 670 613 622 q 656 784 656 717 q 608 930 656 882 q 441 978 560 978 q 391 976 415 978 q 348 972 367 974 q 317 969 329 970 l 317 572 m 317 72 q 356 63 333 66 q 406 60 380 60 q 454 59 432 59 q 606 88 550 59 q 687 169 663 117 q 712 291 712 221 q 658 448 712 399 q 486 498 604 498 q 445 498 468 498 q 397 497 422 497 q 352 497 373 497 q 317 495 331 497 l 317 72 m 658 -127 l 658 -227 l 263 -227 l 263 -127 l 658 -127 z "},"Ƀ":{"ha":918,"x_min":48,"x_max":885,"o":"m 160 76 l 160 953 l 51 971 l 51 1032 l 238 1032 q 316 1035 281 1032 q 385 1040 352 1038 q 455 1042 419 1042 q 625 1025 556 1042 q 736 977 694 1008 q 795 902 777 946 q 813 806 813 859 q 788 686 813 740 q 714 597 762 633 q 599 549 665 561 q 751 522 687 551 q 850 438 815 492 q 885 309 885 383 q 864 189 885 246 q 794 87 843 131 q 662 17 745 43 q 456 -8 579 -8 q 385 -6 417 -8 q 317 -2 352 -4 q 235 0 281 0 l 48 0 l 48 60 l 160 76 m 317 572 q 351 571 331 572 q 392 570 371 570 q 433 571 413 571 q 465 571 452 571 q 571 597 529 571 q 634 670 613 622 q 656 784 656 717 q 608 930 656 882 q 441 978 560 978 q 391 976 415 978 q 348 972 367 974 q 317 969 329 970 l 317 572 m 317 72 q 356 63 333 66 q 406 60 380 60 q 454 59 432 59 q 606 88 550 59 q 687 169 663 117 q 712 291 712 221 q 658 448 712 399 q 486 498 604 498 q 445 498 468 498 q 397 497 422 497 q 352 497 373 497 q 317 495 331 497 l 317 72 m 526 324 l 526 251 l 48 251 l 48 324 l 526 324 z "},"Ƃ":{"ha":933,"x_min":53,"x_max":884,"o":"m 512 -8 q 466 -7 497 -8 q 399 -4 435 -6 q 327 -1 362 -3 q 268 0 292 0 l 53 0 l 53 60 l 183 75 l 183 952 l 54 970 l 54 1032 l 797 1032 l 813 768 l 719 768 l 669 955 l 340 967 l 340 607 q 375 612 353 610 q 423 617 397 615 q 475 621 449 619 q 522 623 501 623 q 722 592 641 623 q 843 498 802 562 q 884 335 884 434 q 836 151 884 228 q 704 33 788 74 q 512 -8 620 -8 m 474 60 q 613 92 559 60 q 692 184 667 125 q 717 323 717 243 q 689 458 717 408 q 606 528 660 507 q 477 549 552 549 q 426 547 453 549 q 376 543 399 545 q 340 538 353 540 l 340 71 q 375 66 357 68 q 416 61 392 63 q 474 60 440 60 z "},"C":{"ha":899,"x_min":34,"x_max":841,"o":"m 510 -15 q 304 22 393 -15 q 155 129 215 60 q 65 294 95 198 q 34 508 34 390 q 72 726 34 628 q 176 897 109 825 q 335 1007 244 968 q 533 1045 426 1045 q 628 1040 585 1045 q 709 1027 672 1034 q 777 1013 746 1019 q 835 1005 809 1007 l 820 748 l 724 748 l 690 932 q 657 954 680 944 q 599 970 634 964 q 518 977 564 977 q 359 925 428 977 q 251 774 290 874 q 213 528 213 674 q 231 347 213 433 q 286 194 249 260 q 382 91 323 128 q 522 53 440 53 q 605 61 571 53 q 660 83 638 69 q 697 111 681 97 l 755 259 l 841 248 l 810 38 q 754 28 781 36 q 695 10 727 20 q 619 -8 663 0 q 510 -15 574 -15 z "},"Ć":{"ha":899,"x_min":34,"x_max":841,"o":"m 510 -15 q 304 22 393 -15 q 155 129 215 60 q 65 294 95 198 q 34 508 34 390 q 72 726 34 628 q 176 897 109 825 q 335 1007 244 968 q 533 1045 426 1045 q 628 1040 585 1045 q 709 1027 672 1034 q 777 1013 746 1019 q 835 1005 809 1007 l 820 748 l 724 748 l 690 932 q 657 954 680 944 q 599 970 634 964 q 518 977 564 977 q 359 925 428 977 q 251 774 290 874 q 213 528 213 674 q 231 347 213 433 q 286 194 249 260 q 382 91 323 128 q 522 53 440 53 q 605 61 571 53 q 660 83 638 69 q 697 111 681 97 l 755 259 l 841 248 l 810 38 q 754 28 781 36 q 695 10 727 20 q 619 -8 663 0 q 510 -15 574 -15 m 522 1110 l 472 1152 l 644 1373 l 747 1290 q 701 1239 728 1265 q 643 1188 674 1213 q 581 1142 612 1163 q 523 1110 549 1122 l 522 1110 z "},"Ꞓ":{"ha":974,"x_min":22,"x_max":915,"o":"m 584 -15 q 378 22 467 -15 q 230 129 290 60 q 139 294 169 198 q 108 508 108 390 q 146 726 108 628 q 251 897 183 825 q 409 1007 318 968 q 607 1045 500 1045 q 703 1040 659 1045 q 783 1027 747 1034 q 852 1013 820 1019 q 909 1005 883 1007 l 894 748 l 799 748 l 765 932 q 731 954 754 944 q 673 970 708 964 q 592 977 638 977 q 433 925 502 977 q 326 774 365 874 q 287 528 287 674 q 305 347 287 433 q 360 194 323 260 q 456 91 397 128 q 596 53 515 53 q 679 61 645 53 q 734 83 713 69 q 772 111 756 97 l 829 259 l 915 248 l 884 38 q 828 28 855 36 q 769 10 801 20 q 693 -8 738 0 q 584 -15 649 -15 m 500 576 l 500 504 l 22 504 l 22 576 l 500 576 z "},"Č":{"ha":899,"x_min":34,"x_max":841,"o":"m 510 -15 q 304 22 393 -15 q 155 129 215 60 q 65 294 95 198 q 34 508 34 390 q 72 726 34 628 q 176 897 109 825 q 335 1007 244 968 q 533 1045 426 1045 q 628 1040 585 1045 q 709 1027 672 1034 q 777 1013 746 1019 q 835 1005 809 1007 l 820 748 l 724 748 l 690 932 q 657 954 680 944 q 599 970 634 964 q 518 977 564 977 q 359 925 428 977 q 251 774 290 874 q 213 528 213 674 q 231 347 213 433 q 286 194 249 260 q 382 91 323 128 q 522 53 440 53 q 605 61 571 53 q 660 83 638 69 q 697 111 681 97 l 755 259 l 841 248 l 810 38 q 754 28 781 36 q 695 10 727 20 q 619 -8 663 0 q 510 -15 574 -15 m 468 1115 l 295 1315 l 343 1351 l 526 1216 l 708 1351 l 756 1315 l 583 1115 l 468 1115 z "},"Ç":{"ha":899,"x_min":34,"x_max":841,"o":"m 510 -15 q 304 22 393 -15 q 155 129 215 60 q 65 294 95 198 q 34 508 34 390 q 72 726 34 628 q 176 897 109 825 q 335 1007 244 968 q 533 1045 426 1045 q 628 1040 585 1045 q 709 1027 672 1034 q 777 1013 746 1019 q 835 1005 809 1007 l 820 748 l 724 748 l 690 932 q 657 954 680 944 q 599 970 634 964 q 518 977 564 977 q 359 925 428 977 q 251 774 290 874 q 213 528 213 674 q 231 347 213 433 q 286 194 249 260 q 382 91 323 128 q 522 53 440 53 q 605 61 571 53 q 660 83 638 69 q 697 111 681 97 l 755 259 l 841 248 l 810 38 q 754 28 781 36 q 695 10 727 20 q 619 -8 663 0 q 510 -15 574 -15 m 465 -331 q 412 -325 440 -331 q 366 -312 384 -319 l 366 -215 q 399 -222 381 -219 q 428 -224 417 -224 q 496 -207 469 -224 q 522 -131 522 -190 q 514 -78 522 -104 q 494 -30 506 -51 q 475 1 483 -9 l 515 8 l 539 1 q 576 -42 554 -12 q 614 -110 598 -71 q 630 -192 631 -149 q 608 -272 629 -241 q 551 -316 588 -302 q 465 -331 514 -331 z "},"Ḉ":{"ha":899,"x_min":34,"x_max":841,"o":"m 510 -15 q 304 22 393 -15 q 155 129 215 60 q 65 294 95 198 q 34 508 34 390 q 72 726 34 628 q 176 897 109 825 q 335 1007 244 968 q 533 1045 426 1045 q 628 1040 585 1045 q 709 1027 672 1034 q 777 1013 746 1019 q 835 1005 809 1007 l 820 748 l 724 748 l 690 932 q 657 954 680 944 q 599 970 634 964 q 518 977 564 977 q 359 925 428 977 q 251 774 290 874 q 213 528 213 674 q 231 347 213 433 q 286 194 249 260 q 382 91 323 128 q 522 53 440 53 q 605 61 571 53 q 660 83 638 69 q 697 111 681 97 l 755 259 l 841 248 l 810 38 q 754 28 781 36 q 695 10 727 20 q 619 -8 663 0 q 510 -15 574 -15 m 467 -331 q 415 -325 442 -331 q 369 -312 387 -319 l 369 -215 q 402 -222 383 -219 q 431 -224 420 -224 q 505 -207 478 -224 q 532 -131 532 -190 q 524 -78 532 -104 q 504 -31 515 -51 q 485 0 493 -10 l 524 0 l 549 0 q 586 -42 564 -13 q 624 -109 608 -70 q 640 -192 640 -149 q 618 -272 639 -241 q 558 -316 597 -302 q 467 -331 520 -331 m 522 1110 l 472 1152 l 644 1373 l 747 1290 q 701 1239 728 1265 q 643 1188 674 1213 q 581 1142 612 1163 q 523 1110 549 1122 l 522 1110 z "},"Ĉ":{"ha":899,"x_min":34,"x_max":841,"o":"m 510 -15 q 304 22 393 -15 q 155 129 215 60 q 65 294 95 198 q 34 508 34 390 q 72 726 34 628 q 176 897 109 825 q 335 1007 244 968 q 533 1045 426 1045 q 628 1040 585 1045 q 709 1027 672 1034 q 777 1013 746 1019 q 835 1005 809 1007 l 820 748 l 724 748 l 690 932 q 657 954 680 944 q 599 970 634 964 q 518 977 564 977 q 359 925 428 977 q 251 774 290 874 q 213 528 213 674 q 231 347 213 433 q 286 194 249 260 q 382 91 323 128 q 522 53 440 53 q 605 61 571 53 q 660 83 638 69 q 697 111 681 97 l 755 259 l 841 248 l 810 38 q 754 28 781 36 q 695 10 727 20 q 619 -8 663 0 q 510 -15 574 -15 m 340 1104 l 292 1140 l 465 1343 l 580 1343 l 753 1141 l 705 1104 l 523 1243 l 340 1104 z "},"Ċ":{"ha":899,"x_min":34,"x_max":841,"o":"m 510 -15 q 304 22 393 -15 q 155 129 215 60 q 65 294 95 198 q 34 508 34 390 q 72 726 34 628 q 176 897 109 825 q 335 1007 244 968 q 533 1045 426 1045 q 628 1040 585 1045 q 709 1027 672 1034 q 777 1013 746 1019 q 835 1005 809 1007 l 820 748 l 724 748 l 690 932 q 657 954 680 944 q 599 970 634 964 q 518 977 564 977 q 359 925 428 977 q 251 774 290 874 q 213 528 213 674 q 231 347 213 433 q 286 194 249 260 q 382 91 323 128 q 522 53 440 53 q 605 61 571 53 q 660 83 638 69 q 697 111 681 97 l 755 259 l 841 248 l 810 38 q 754 28 781 36 q 695 10 727 20 q 619 -8 663 0 q 510 -15 574 -15 m 517 1126 q 449 1152 472 1126 q 425 1217 425 1178 q 451 1290 425 1258 q 528 1321 478 1321 l 529 1321 q 597 1295 574 1321 q 620 1231 620 1269 q 594 1158 620 1189 q 518 1126 568 1126 l 517 1126 z "},"Ꭓ":{"ha":910,"x_min":13,"x_max":924,"o":"m 792 -210 q 719 -199 751 -210 q 664 -162 688 -187 q 624 -103 640 -138 l 417 361 l 224 -118 l 350 -135 l 349 -194 l 13 -194 l 13 -135 l 113 -120 l 380 426 l 97 958 l 18 975 l 18 1032 l 392 1032 l 392 975 l 272 958 l 467 535 l 680 958 l 567 975 l 567 1032 l 865 1032 l 865 974 l 779 958 l 503 478 l 772 -35 q 814 -102 795 -78 q 856 -126 833 -126 q 880 -123 870 -126 q 901 -113 890 -120 l 924 -168 q 869 -198 903 -185 q 792 -210 835 -210 z "},"Ƈ":{"ha":899,"x_min":34,"x_max":1031,"o":"m 819 747 l 776 796 l 762 951 q 808 1101 778 1044 q 877 1184 837 1158 q 968 1210 918 1210 q 1004 1207 989 1210 q 1031 1199 1019 1204 l 1031 1073 q 989 1089 1014 1083 q 934 1096 963 1096 q 884 1082 906 1096 q 849 1034 863 1068 q 832 938 836 1000 l 819 747 m 510 -15 q 304 22 393 -15 q 155 129 215 60 q 65 294 95 198 q 34 508 34 390 q 72 726 34 628 q 176 897 109 825 q 335 1007 244 968 q 533 1045 426 1045 q 628 1040 585 1045 q 709 1027 672 1034 q 777 1013 746 1019 q 835 1005 809 1007 l 820 748 l 724 748 l 690 932 q 657 954 680 944 q 599 970 634 964 q 518 977 564 977 q 359 925 428 977 q 251 774 290 874 q 213 528 213 674 q 231 347 213 433 q 286 194 249 260 q 382 91 323 128 q 522 53 440 53 q 605 61 571 53 q 660 83 638 69 q 697 111 681 97 l 755 259 l 841 248 l 810 38 q 754 28 781 36 q 695 10 727 20 q 619 -8 663 0 q 510 -15 574 -15 z "},"Ȼ":{"ha":899,"x_min":34,"x_max":841,"o":"m 253 -102 l 474 526 l 688 1144 l 742 1127 l 520 507 l 307 -119 l 253 -102 m 510 -15 q 304 22 393 -15 q 155 129 215 60 q 65 294 95 198 q 34 508 34 390 q 72 726 34 628 q 176 897 109 825 q 335 1007 244 968 q 533 1045 426 1045 q 628 1040 585 1045 q 709 1027 672 1034 q 777 1013 746 1019 q 835 1005 809 1007 l 820 748 l 724 748 l 690 932 q 657 954 680 944 q 599 970 634 964 q 518 977 564 977 q 359 925 428 977 q 251 774 290 874 q 213 528 213 674 q 231 347 213 433 q 286 194 249 260 q 382 91 323 128 q 522 53 440 53 q 605 61 571 53 q 660 83 638 69 q 697 111 681 97 l 755 259 l 841 248 l 810 38 q 754 28 781 36 q 695 10 727 20 q 619 -8 663 0 q 510 -15 574 -15 z "},"D":{"ha":1026,"x_min":48,"x_max":985,"o":"m 463 -11 q 407 -9 437 -10 q 347 -5 377 -7 q 288 -1 317 -3 q 235 0 260 0 l 48 0 l 48 60 l 158 76 l 158 953 l 53 971 l 53 1032 l 233 1032 q 315 1034 274 1032 q 397 1039 356 1037 q 479 1042 438 1042 q 709 1007 613 1042 q 865 906 804 972 q 956 750 926 841 q 985 549 985 660 q 948 319 985 422 q 841 141 910 215 q 676 26 772 66 q 463 -11 581 -14 m 469 58 q 650 112 572 59 q 771 268 728 165 q 814 522 814 371 q 792 715 814 631 q 724 857 769 799 q 609 944 678 915 q 447 974 540 974 q 393 972 418 974 q 349 968 369 970 q 316 965 329 965 l 316 72 q 365 63 340 66 q 417 59 391 60 q 469 58 443 58 z "},"Ǳ":{"ha":1889,"x_min":48,"x_max":1842,"o":"m 463 -11 q 407 -9 437 -10 q 347 -5 377 -7 q 288 -1 317 -3 q 235 0 260 0 l 48 0 l 48 60 l 158 76 l 158 953 l 53 971 l 53 1032 l 233 1032 q 315 1034 274 1032 q 397 1039 356 1037 q 479 1042 438 1042 q 709 1007 613 1042 q 865 906 804 972 q 956 750 926 841 q 985 549 985 660 q 948 319 985 422 q 841 141 910 215 q 676 26 772 66 q 463 -11 581 -14 m 469 58 q 650 112 572 59 q 771 268 728 165 q 814 522 814 371 q 792 715 814 631 q 724 857 769 799 q 609 944 678 915 q 447 974 540 974 q 393 972 418 974 q 349 968 369 970 q 316 965 329 965 l 316 72 q 365 63 340 66 q 417 59 391 60 q 469 58 443 58 m 1063 0 l 1030 53 l 1568 865 l 1651 970 l 1244 953 l 1172 763 l 1092 773 l 1121 1035 l 1801 1035 l 1830 982 l 1298 176 l 1208 67 l 1681 94 l 1759 315 l 1842 297 l 1808 0 l 1063 0 z "},"Ǆ":{"ha":1889,"x_min":48,"x_max":1842,"o":"m 463 -11 q 407 -9 437 -10 q 347 -5 377 -7 q 288 -1 317 -3 q 235 0 260 0 l 48 0 l 48 60 l 158 76 l 158 953 l 53 971 l 53 1032 l 233 1032 q 315 1034 274 1032 q 397 1039 356 1037 q 479 1042 438 1042 q 709 1007 613 1042 q 865 906 804 972 q 956 750 926 841 q 985 549 985 660 q 948 319 985 422 q 841 141 910 215 q 676 26 772 66 q 463 -11 581 -14 m 469 58 q 650 112 572 59 q 771 268 728 165 q 814 522 814 371 q 792 715 814 631 q 724 857 769 799 q 609 944 678 915 q 447 974 540 974 q 393 972 418 974 q 349 968 369 970 q 316 965 329 965 l 316 72 q 365 63 340 66 q 417 59 391 60 q 469 58 443 58 m 1063 0 l 1030 53 l 1568 865 l 1651 970 l 1244 953 l 1172 763 l 1092 773 l 1121 1035 l 1801 1035 l 1830 982 l 1298 176 l 1208 67 l 1681 94 l 1759 315 l 1842 297 l 1808 0 l 1063 0 m 1388 1115 l 1215 1315 l 1263 1351 l 1445 1216 l 1627 1351 l 1675 1315 l 1502 1115 l 1388 1115 z "},"Ď":{"ha":1026,"x_min":48,"x_max":985,"o":"m 463 -11 q 407 -9 437 -10 q 347 -5 377 -7 q 288 -1 317 -3 q 235 0 260 0 l 48 0 l 48 60 l 158 76 l 158 953 l 53 971 l 53 1032 l 233 1032 q 315 1034 274 1032 q 397 1039 356 1037 q 479 1042 438 1042 q 709 1007 613 1042 q 865 906 804 972 q 956 750 926 841 q 985 549 985 660 q 948 319 985 422 q 841 141 910 215 q 676 26 772 66 q 463 -11 581 -14 m 469 58 q 650 112 572 59 q 771 268 728 165 q 814 522 814 371 q 792 715 814 631 q 724 857 769 799 q 609 944 678 915 q 447 974 540 974 q 393 972 418 974 q 349 968 369 970 q 316 965 329 965 l 316 72 q 365 63 340 66 q 417 59 391 60 q 469 58 443 58 m 454 1115 l 281 1315 l 329 1351 l 512 1216 l 694 1351 l 742 1315 l 569 1115 l 454 1115 z "},"Ḑ":{"ha":1026,"x_min":48,"x_max":985,"o":"m 463 -11 q 407 -9 437 -10 q 347 -5 377 -7 q 288 -1 317 -3 q 235 0 260 0 l 48 0 l 48 60 l 158 76 l 158 953 l 53 971 l 53 1032 l 233 1032 q 315 1034 274 1032 q 397 1039 356 1037 q 479 1042 438 1042 q 709 1007 613 1042 q 865 906 804 972 q 956 750 926 841 q 985 549 985 660 q 948 319 985 422 q 841 141 910 215 q 676 26 772 66 q 463 -11 581 -14 m 469 58 q 650 112 572 59 q 771 268 728 165 q 814 522 814 371 q 792 715 814 631 q 724 857 769 799 q 609 944 678 915 q 447 974 540 974 q 393 972 418 974 q 349 968 369 970 q 316 965 329 965 l 316 72 q 365 63 340 66 q 417 59 391 60 q 469 58 443 58 m 588 -219 q 567 -309 588 -269 q 519 -376 545 -350 q 480 -410 494 -402 l 478 -410 l 436 -388 l 435 -380 q 465 -341 454 -368 q 476 -288 476 -314 q 467 -257 476 -269 q 447 -236 459 -245 q 426 -215 435 -228 q 417 -181 417 -203 q 430 -139 417 -154 q 461 -118 443 -124 q 494 -112 479 -112 l 498 -112 q 564 -140 538 -112 q 588 -219 589 -168 z "},"Ḓ":{"ha":1026,"x_min":48,"x_max":985,"o":"m 463 -11 q 407 -9 437 -10 q 347 -5 377 -7 q 288 -1 317 -3 q 235 0 260 0 l 48 0 l 48 60 l 158 76 l 158 953 l 53 971 l 53 1032 l 233 1032 q 315 1034 274 1032 q 397 1039 356 1037 q 479 1042 438 1042 q 709 1007 613 1042 q 865 906 804 972 q 956 750 926 841 q 985 549 985 660 q 948 319 985 422 q 841 141 910 215 q 676 26 772 66 q 463 -11 581 -14 m 469 58 q 650 112 572 59 q 771 268 728 165 q 814 522 814 371 q 792 715 814 631 q 724 857 769 799 q 609 944 678 915 q 447 974 540 974 q 393 972 418 974 q 349 968 369 970 q 316 965 329 965 l 316 72 q 365 63 340 66 q 417 59 391 60 q 469 58 443 58 m 444 -73 l 561 -73 l 746 -300 l 698 -337 l 503 -182 l 308 -337 l 260 -300 l 444 -73 z "},"Đ":{"ha":1026,"x_min":48,"x_max":985,"o":"m 463 -11 q 407 -9 437 -10 q 347 -5 377 -7 q 288 -1 317 -3 q 235 0 260 0 l 48 0 l 48 60 l 158 76 l 158 953 l 53 971 l 53 1032 l 233 1032 q 315 1034 274 1032 q 397 1039 356 1037 q 479 1042 438 1042 q 709 1007 613 1042 q 865 906 804 972 q 956 750 926 841 q 985 549 985 660 q 948 319 985 422 q 841 141 910 215 q 676 26 772 66 q 463 -11 581 -14 m 469 58 q 650 112 572 59 q 771 268 728 165 q 814 522 814 371 q 792 715 814 631 q 724 857 769 799 q 609 944 678 915 q 447 974 540 974 q 393 972 418 974 q 349 968 369 970 q 316 965 329 965 l 316 72 q 365 63 340 66 q 417 59 391 60 q 469 58 443 58 m 71 503 l 71 576 l 519 576 l 519 503 l 71 503 z "},"Ḋ":{"ha":1026,"x_min":48,"x_max":985,"o":"m 463 -11 q 407 -9 437 -10 q 347 -5 377 -7 q 288 -1 317 -3 q 235 0 260 0 l 48 0 l 48 60 l 158 76 l 158 953 l 53 971 l 53 1032 l 233 1032 q 315 1034 274 1032 q 397 1039 356 1037 q 479 1042 438 1042 q 709 1007 613 1042 q 865 906 804 972 q 956 750 926 841 q 985 549 985 660 q 948 319 985 422 q 841 141 910 215 q 676 26 772 66 q 463 -11 581 -14 m 469 58 q 650 112 572 59 q 771 268 728 165 q 814 522 814 371 q 792 715 814 631 q 724 857 769 799 q 609 944 678 915 q 447 974 540 974 q 393 972 418 974 q 349 968 369 970 q 316 965 329 965 l 316 72 q 365 63 340 66 q 417 59 391 60 q 469 58 443 58 m 503 1126 q 435 1152 458 1126 q 411 1217 411 1178 q 438 1290 411 1258 q 514 1321 464 1321 l 515 1321 q 583 1295 560 1321 q 606 1231 606 1269 q 580 1158 606 1189 q 504 1126 554 1126 l 503 1126 z "},"Ḍ":{"ha":1026,"x_min":48,"x_max":985,"o":"m 463 -11 q 407 -9 437 -10 q 347 -5 377 -7 q 288 -1 317 -3 q 235 0 260 0 l 48 0 l 48 60 l 158 76 l 158 953 l 53 971 l 53 1032 l 233 1032 q 315 1034 274 1032 q 397 1039 356 1037 q 479 1042 438 1042 q 709 1007 613 1042 q 865 906 804 972 q 956 750 926 841 q 985 549 985 660 q 948 319 985 422 q 841 141 910 215 q 676 26 772 66 q 463 -11 581 -14 m 469 58 q 650 112 572 59 q 771 268 728 165 q 814 522 814 371 q 792 715 814 631 q 724 857 769 799 q 609 944 678 915 q 447 974 540 974 q 393 972 418 974 q 349 968 369 970 q 316 965 329 965 l 316 72 q 365 63 340 66 q 417 59 391 60 q 469 58 443 58 m 493 -285 q 427 -259 451 -285 q 403 -195 403 -233 q 430 -122 403 -153 q 504 -90 456 -90 l 506 -90 q 573 -116 549 -90 q 596 -181 596 -142 q 570 -254 596 -223 q 494 -285 544 -285 l 493 -285 z "},"Ɗ":{"ha":1232,"x_min":42,"x_max":1191,"o":"m 669 -11 q 614 -9 643 -10 q 555 -5 585 -7 q 498 -1 526 -3 q 445 0 469 0 l 255 0 l 255 60 l 365 76 l 365 1032 l 443 1032 q 524 1034 484 1032 q 604 1039 564 1037 q 685 1042 644 1042 q 915 1007 819 1042 q 1072 906 1011 972 q 1162 750 1133 841 q 1191 549 1191 660 q 1154 319 1191 422 q 1048 141 1117 215 q 883 26 978 66 q 669 -11 788 -14 m 675 58 q 856 112 778 59 q 977 268 934 165 q 1021 522 1021 371 q 998 715 1021 631 q 930 857 976 799 q 816 944 885 915 q 653 974 747 974 q 600 972 625 974 q 555 968 575 970 q 522 965 535 965 l 522 72 q 572 63 547 66 q 623 59 597 60 q 675 58 649 58 m 50 673 q 44 708 46 687 q 42 758 42 729 q 58 862 42 812 q 112 951 74 912 q 213 1012 149 990 q 369 1032 276 1034 l 379 997 l 369 963 q 253 949 299 965 q 187 896 208 932 q 166 806 166 860 q 173 744 166 778 q 192 673 180 710 l 50 673 z "},"Ḏ":{"ha":1026,"x_min":48,"x_max":985,"o":"m 463 -11 q 407 -9 437 -10 q 347 -5 377 -7 q 288 -1 317 -3 q 235 0 260 0 l 48 0 l 48 60 l 158 76 l 158 953 l 53 971 l 53 1032 l 233 1032 q 315 1034 274 1032 q 397 1039 356 1037 q 479 1042 438 1042 q 709 1007 613 1042 q 865 906 804 972 q 956 750 926 841 q 985 549 985 660 q 948 319 985 422 q 841 141 910 215 q 676 26 772 66 q 463 -11 581 -14 m 469 58 q 650 112 572 59 q 771 268 728 165 q 814 522 814 371 q 792 715 814 631 q 724 857 769 799 q 609 944 678 915 q 447 974 540 974 q 393 972 418 974 q 349 968 369 970 q 316 965 329 965 l 316 72 q 365 63 340 66 q 417 59 391 60 q 469 58 443 58 m 700 -127 l 700 -227 l 306 -227 l 306 -127 l 700 -127 z "},"Ɖ":{"ha":1026,"x_min":48,"x_max":985,"o":"m 463 -11 q 407 -9 437 -10 q 347 -5 377 -7 q 288 -1 317 -3 q 235 0 260 0 l 48 0 l 48 60 l 158 76 l 158 953 l 53 971 l 53 1032 l 233 1032 q 315 1034 274 1032 q 397 1039 356 1037 q 479 1042 438 1042 q 709 1007 613 1042 q 865 906 804 972 q 956 750 926 841 q 985 549 985 660 q 948 319 985 422 q 841 141 910 215 q 676 26 772 66 q 463 -11 581 -14 m 469 58 q 650 112 572 59 q 771 268 728 165 q 814 522 814 371 q 792 715 814 631 q 724 857 769 799 q 609 944 678 915 q 447 974 540 974 q 393 972 418 974 q 349 968 369 970 q 316 965 329 965 l 316 72 q 365 63 340 66 q 417 59 391 60 q 469 58 443 58 m 71 503 l 71 576 l 519 576 l 519 503 l 71 503 z "},"Ƌ":{"ha":913,"x_min":33,"x_max":865,"o":"m 406 -8 q 214 33 298 -8 q 81 151 129 74 q 33 335 33 228 q 125 553 33 484 q 395 623 217 623 q 443 621 417 623 q 495 617 469 619 q 543 612 521 615 q 577 607 565 610 l 577 967 l 248 955 l 199 768 l 105 768 l 120 1032 l 863 1032 l 863 970 l 735 952 l 735 75 l 865 60 l 865 0 l 649 0 q 591 -1 626 0 q 519 -4 556 -3 q 451 -7 482 -6 q 406 -8 421 -8 m 443 60 q 501 61 478 60 q 543 66 525 63 q 577 71 561 68 l 577 538 q 541 543 564 540 q 491 547 518 545 q 440 549 465 549 q 311 528 365 549 q 229 458 258 507 q 200 323 200 408 q 226 184 200 243 q 305 92 251 125 q 443 60 358 60 z "},"ǲ":{"ha":1754,"x_min":48,"x_max":1719,"o":"m 463 -11 q 407 -9 437 -10 q 347 -5 377 -7 q 288 -1 317 -3 q 235 0 260 0 l 48 0 l 48 60 l 158 76 l 158 953 l 53 971 l 53 1032 l 233 1032 q 315 1034 274 1032 q 397 1039 356 1037 q 479 1042 438 1042 q 709 1007 613 1042 q 865 906 804 972 q 956 750 926 841 q 985 549 985 660 q 948 319 985 422 q 841 141 910 215 q 676 26 772 66 q 463 -11 581 -14 m 469 58 q 650 112 572 59 q 771 268 728 165 q 814 522 814 371 q 792 715 814 631 q 724 857 769 799 q 609 944 678 915 q 447 974 540 974 q 393 972 418 974 q 349 968 369 970 q 316 965 329 965 l 316 72 q 365 63 340 66 q 417 59 391 60 q 469 58 443 58 m 1547 685 l 1220 673 l 1188 531 l 1104 531 l 1106 753 l 1684 754 l 1711 698 l 1317 162 l 1224 67 l 1569 83 l 1640 247 l 1719 237 l 1688 0 l 1086 0 l 1058 58 l 1457 594 l 1547 685 z "},"ǅ":{"ha":1754,"x_min":48,"x_max":1719,"o":"m 463 -11 q 407 -9 437 -10 q 347 -5 377 -7 q 288 -1 317 -3 q 235 0 260 0 l 48 0 l 48 60 l 158 76 l 158 953 l 53 971 l 53 1032 l 233 1032 q 315 1034 274 1032 q 397 1039 356 1037 q 479 1042 438 1042 q 709 1007 613 1042 q 865 906 804 972 q 956 750 926 841 q 985 549 985 660 q 948 319 985 422 q 841 141 910 215 q 676 26 772 66 q 463 -11 581 -14 m 469 58 q 650 112 572 59 q 771 268 728 165 q 814 522 814 371 q 792 715 814 631 q 724 857 769 799 q 609 944 678 915 q 447 974 540 974 q 393 972 418 974 q 349 968 369 970 q 316 965 329 965 l 316 72 q 365 63 340 66 q 417 59 391 60 q 469 58 443 58 m 1547 685 l 1220 673 l 1188 531 l 1104 531 l 1106 753 l 1684 754 l 1711 698 l 1317 162 l 1224 67 l 1569 83 l 1640 247 l 1719 237 l 1688 0 l 1086 0 l 1058 58 l 1457 594 l 1547 685 m 1338 876 l 1164 1144 l 1212 1181 l 1397 990 l 1581 1181 l 1629 1144 l 1455 876 l 1338 876 z "},"Ð":{"ha":1026,"x_min":48,"x_max":985,"o":"m 463 -11 q 407 -9 437 -10 q 347 -5 377 -7 q 288 -1 317 -3 q 235 0 260 0 l 48 0 l 48 60 l 158 76 l 158 953 l 53 971 l 53 1032 l 233 1032 q 315 1034 274 1032 q 397 1039 356 1037 q 479 1042 438 1042 q 709 1007 613 1042 q 865 906 804 972 q 956 750 926 841 q 985 549 985 660 q 948 319 985 422 q 841 141 910 215 q 676 26 772 66 q 463 -11 581 -14 m 469 58 q 650 112 572 59 q 771 268 728 165 q 814 522 814 371 q 792 715 814 631 q 724 857 769 799 q 609 944 678 915 q 447 974 540 974 q 393 972 418 974 q 349 968 369 970 q 316 965 329 965 l 316 72 q 365 63 340 66 q 417 59 391 60 q 469 58 443 58 m 71 503 l 71 576 l 519 576 l 519 503 l 71 503 z "},"E":{"ha":875,"x_min":49,"x_max":860,"o":"m 159 76 l 159 953 l 50 971 l 50 1032 l 763 1032 l 782 813 l 706 813 l 653 956 l 318 967 l 318 565 l 542 572 l 567 692 l 635 692 l 635 366 l 567 366 l 543 492 l 318 497 l 318 69 l 696 85 l 780 273 l 860 250 l 816 0 l 49 0 l 49 60 l 159 76 z "},"É":{"ha":875,"x_min":49,"x_max":860,"o":"m 159 76 l 159 953 l 50 971 l 50 1032 l 763 1032 l 782 813 l 706 813 l 653 956 l 318 967 l 318 565 l 542 572 l 567 692 l 635 692 l 635 366 l 567 366 l 543 492 l 318 497 l 318 69 l 696 85 l 780 273 l 860 250 l 816 0 l 49 0 l 49 60 l 159 76 m 447 1110 l 397 1152 l 569 1373 l 672 1290 q 626 1239 653 1265 q 568 1188 599 1213 q 506 1142 537 1163 q 448 1110 474 1122 l 447 1110 z "},"Ĕ":{"ha":875,"x_min":49,"x_max":860,"o":"m 159 76 l 159 953 l 50 971 l 50 1032 l 763 1032 l 782 813 l 706 813 l 653 956 l 318 967 l 318 565 l 542 572 l 567 692 l 635 692 l 635 366 l 567 366 l 543 492 l 318 497 l 318 69 l 696 85 l 780 273 l 860 250 l 816 0 l 49 0 l 49 60 l 159 76 m 447 1120 q 342 1143 388 1120 q 270 1207 297 1165 q 244 1302 244 1248 q 245 1319 244 1311 q 247 1335 246 1326 l 315 1335 q 316 1325 315 1331 q 317 1313 316 1319 q 335 1268 322 1289 q 376 1233 349 1247 q 447 1220 403 1220 q 519 1233 492 1220 q 560 1268 547 1247 q 578 1313 574 1289 q 580 1325 580 1319 q 580 1335 580 1331 l 648 1335 q 650 1319 649 1326 q 651 1302 651 1311 q 625 1207 651 1248 q 553 1143 599 1165 q 447 1120 508 1120 z "},"Ě":{"ha":875,"x_min":49,"x_max":860,"o":"m 159 76 l 159 953 l 50 971 l 50 1032 l 763 1032 l 782 813 l 706 813 l 653 956 l 318 967 l 318 565 l 542 572 l 567 692 l 635 692 l 635 366 l 567 366 l 543 492 l 318 497 l 318 69 l 696 85 l 780 273 l 860 250 l 816 0 l 49 0 l 49 60 l 159 76 m 392 1115 l 219 1315 l 267 1351 l 450 1216 l 632 1351 l 680 1315 l 507 1115 l 392 1115 z "},"Ȩ":{"ha":875,"x_min":49,"x_max":860,"o":"m 159 76 l 159 953 l 50 971 l 50 1032 l 763 1032 l 782 813 l 706 813 l 653 956 l 318 967 l 318 565 l 542 572 l 567 692 l 635 692 l 635 366 l 567 366 l 543 492 l 318 497 l 318 69 l 696 85 l 780 273 l 860 250 l 816 0 l 49 0 l 49 60 l 159 76 m 402 -331 q 349 -325 377 -331 q 303 -312 322 -319 l 303 -215 q 336 -222 318 -219 q 365 -224 355 -224 q 440 -207 413 -224 q 467 -131 467 -190 q 458 -78 467 -104 q 439 -31 450 -51 q 419 0 428 -10 l 459 0 l 483 0 q 520 -42 499 -13 q 559 -109 542 -70 q 574 -192 575 -149 q 552 -272 574 -241 q 493 -316 531 -302 q 402 -331 455 -331 z "},"Ḝ":{"ha":875,"x_min":49,"x_max":860,"o":"m 159 76 l 159 953 l 50 971 l 50 1032 l 763 1032 l 782 813 l 706 813 l 653 956 l 318 967 l 318 565 l 542 572 l 567 692 l 635 692 l 635 366 l 567 366 l 543 492 l 318 497 l 318 69 l 696 85 l 780 273 l 860 250 l 816 0 l 49 0 l 49 60 l 159 76 m 402 -331 q 349 -325 377 -331 q 303 -312 322 -319 l 303 -215 q 336 -222 318 -219 q 365 -224 355 -224 q 440 -207 413 -224 q 467 -131 467 -190 q 458 -78 467 -104 q 439 -31 450 -51 q 419 0 428 -10 l 459 0 l 483 0 q 520 -42 499 -13 q 559 -109 542 -70 q 574 -192 575 -149 q 552 -272 574 -241 q 493 -316 531 -302 q 402 -331 455 -331 m 447 1120 q 342 1143 388 1120 q 270 1207 297 1165 q 244 1302 244 1248 q 245 1319 244 1311 q 247 1335 246 1326 l 315 1335 q 316 1325 315 1331 q 317 1313 316 1319 q 335 1268 322 1289 q 376 1233 349 1247 q 447 1220 403 1220 q 519 1233 492 1220 q 560 1268 547 1247 q 578 1313 574 1289 q 580 1325 580 1319 q 580 1335 580 1331 l 648 1335 q 650 1319 649 1326 q 651 1302 651 1311 q 625 1207 651 1248 q 553 1143 599 1165 q 447 1120 508 1120 z "},"Ê":{"ha":875,"x_min":49,"x_max":860,"o":"m 159 76 l 159 953 l 50 971 l 50 1032 l 763 1032 l 782 813 l 706 813 l 653 956 l 318 967 l 318 565 l 542 572 l 567 692 l 635 692 l 635 366 l 567 366 l 543 492 l 318 497 l 318 69 l 696 85 l 780 273 l 860 250 l 816 0 l 49 0 l 49 60 l 159 76 m 265 1104 l 217 1140 l 390 1343 l 505 1343 l 678 1141 l 630 1104 l 448 1243 l 265 1104 z "},"Ế":{"ha":875,"x_min":49,"x_max":860,"o":"m 159 76 l 159 953 l 50 971 l 50 1032 l 763 1032 l 782 813 l 706 813 l 653 956 l 318 967 l 318 565 l 542 572 l 567 692 l 635 692 l 635 366 l 567 366 l 543 492 l 318 497 l 318 69 l 696 85 l 780 273 l 860 250 l 816 0 l 49 0 l 49 60 l 159 76 m 271 1108 l 221 1146 l 396 1331 l 500 1331 l 675 1146 l 625 1108 l 448 1229 l 271 1108 m 640 1291 l 638 1291 l 594 1329 l 735 1510 l 822 1444 q 771 1387 802 1416 q 705 1332 740 1358 q 640 1291 670 1307 z "},"Ḙ":{"ha":875,"x_min":49,"x_max":860,"o":"m 159 76 l 159 953 l 50 971 l 50 1032 l 763 1032 l 782 813 l 706 813 l 653 956 l 318 967 l 318 565 l 542 572 l 567 692 l 635 692 l 635 366 l 567 366 l 543 492 l 318 497 l 318 69 l 696 85 l 780 273 l 860 250 l 816 0 l 49 0 l 49 60 l 159 76 m 381 -73 l 497 -73 l 682 -300 l 634 -337 l 439 -182 l 244 -337 l 196 -300 l 381 -73 z "},"Ệ":{"ha":875,"x_min":49,"x_max":860,"o":"m 159 76 l 159 953 l 50 971 l 50 1032 l 763 1032 l 782 813 l 706 813 l 653 956 l 318 967 l 318 565 l 542 572 l 567 692 l 635 692 l 635 366 l 567 366 l 543 492 l 318 497 l 318 69 l 696 85 l 780 273 l 860 250 l 816 0 l 49 0 l 49 60 l 159 76 m 429 -285 q 363 -259 387 -285 q 340 -195 340 -233 q 366 -122 340 -153 q 440 -90 392 -90 l 442 -90 q 509 -116 485 -90 q 532 -181 532 -142 q 506 -254 532 -223 q 431 -285 480 -285 l 429 -285 m 265 1104 l 217 1140 l 390 1343 l 505 1343 l 678 1141 l 630 1104 l 448 1243 l 265 1104 z "},"Ề":{"ha":875,"x_min":49,"x_max":860,"o":"m 159 76 l 159 953 l 50 971 l 50 1032 l 763 1032 l 782 813 l 706 813 l 653 956 l 318 967 l 318 565 l 542 572 l 567 692 l 635 692 l 635 366 l 567 366 l 543 492 l 318 497 l 318 69 l 696 85 l 780 273 l 860 250 l 816 0 l 49 0 l 49 60 l 159 76 m 271 1108 l 221 1146 l 396 1331 l 500 1331 l 675 1146 l 625 1108 l 448 1229 l 271 1108 m 677 1291 q 612 1333 647 1307 q 546 1387 577 1358 q 495 1444 515 1416 l 582 1510 l 723 1329 l 678 1291 l 677 1291 z "},"Ể":{"ha":875,"x_min":49,"x_max":860,"o":"m 159 76 l 159 953 l 50 971 l 50 1032 l 763 1032 l 782 813 l 706 813 l 653 956 l 318 967 l 318 565 l 542 572 l 567 692 l 635 692 l 635 366 l 567 366 l 543 492 l 318 497 l 318 69 l 696 85 l 780 273 l 860 250 l 816 0 l 49 0 l 49 60 l 159 76 m 269 1108 l 219 1146 l 394 1331 l 499 1331 l 674 1146 l 624 1108 l 447 1229 l 269 1108 m 628 1291 q 616 1313 622 1302 q 610 1336 610 1324 q 620 1366 610 1354 q 643 1388 630 1378 q 666 1410 656 1399 q 676 1439 676 1422 q 660 1470 676 1457 q 614 1483 644 1483 q 586 1480 599 1483 q 562 1472 574 1478 l 560 1552 q 592 1562 573 1558 q 635 1566 611 1566 q 735 1535 697 1566 q 773 1460 773 1505 q 761 1411 773 1431 q 731 1378 749 1392 q 696 1351 713 1364 q 677 1326 679 1340 q 681 1295 675 1313 l 628 1291 z "},"Ễ":{"ha":875,"x_min":49,"x_max":860,"o":"m 159 76 l 159 953 l 50 971 l 50 1032 l 763 1032 l 782 813 l 706 813 l 653 956 l 318 967 l 318 565 l 542 572 l 567 692 l 635 692 l 635 366 l 567 366 l 543 492 l 318 497 l 318 69 l 696 85 l 780 273 l 860 250 l 816 0 l 49 0 l 49 60 l 159 76 m 271 1108 l 221 1146 l 396 1331 l 500 1331 l 675 1146 l 625 1108 l 448 1229 l 271 1108 m 525 1387 q 460 1405 488 1387 q 410 1440 433 1422 q 366 1458 388 1458 q 329 1443 342 1458 q 306 1401 317 1427 l 258 1421 q 298 1513 267 1475 q 376 1551 330 1551 q 438 1534 411 1551 q 487 1498 464 1516 q 535 1481 510 1481 q 571 1495 558 1481 q 593 1537 584 1510 l 642 1517 q 602 1425 633 1463 q 525 1387 570 1387 z "},"Ȅ":{"ha":875,"x_min":49,"x_max":860,"o":"m 159 76 l 159 953 l 50 971 l 50 1032 l 763 1032 l 782 813 l 706 813 l 653 956 l 318 967 l 318 565 l 542 572 l 567 692 l 635 692 l 635 366 l 567 366 l 543 492 l 318 497 l 318 69 l 696 85 l 780 273 l 860 250 l 816 0 l 49 0 l 49 60 l 159 76 m 322 1110 q 267 1147 297 1124 q 205 1198 236 1170 q 146 1255 174 1226 q 101 1309 119 1283 l 196 1381 l 374 1152 l 323 1110 l 322 1110 m 583 1110 q 511 1164 550 1130 q 435 1237 472 1198 q 374 1310 399 1276 l 470 1382 l 635 1149 l 584 1110 l 583 1110 z "},"Ë":{"ha":875,"x_min":49,"x_max":860,"o":"m 159 76 l 159 953 l 50 971 l 50 1032 l 763 1032 l 782 813 l 706 813 l 653 956 l 318 967 l 318 565 l 542 572 l 567 692 l 635 692 l 635 366 l 567 366 l 543 492 l 318 497 l 318 69 l 696 85 l 780 273 l 860 250 l 816 0 l 49 0 l 49 60 l 159 76 m 312 1126 q 254 1152 274 1126 q 234 1216 234 1178 q 257 1289 234 1257 q 323 1321 281 1321 l 324 1321 q 382 1294 362 1321 q 402 1231 402 1268 q 379 1158 402 1190 q 313 1126 356 1126 l 312 1126 m 572 1126 q 514 1152 534 1126 q 494 1216 494 1178 q 517 1289 494 1257 q 582 1321 540 1321 l 583 1321 q 642 1294 622 1321 q 662 1231 662 1268 q 639 1158 662 1190 q 573 1126 615 1126 l 572 1126 z "},"Ė":{"ha":875,"x_min":49,"x_max":860,"o":"m 159 76 l 159 953 l 50 971 l 50 1032 l 763 1032 l 782 813 l 706 813 l 653 956 l 318 967 l 318 565 l 542 572 l 567 692 l 635 692 l 635 366 l 567 366 l 543 492 l 318 497 l 318 69 l 696 85 l 780 273 l 860 250 l 816 0 l 49 0 l 49 60 l 159 76 m 442 1126 q 374 1152 397 1126 q 350 1217 350 1178 q 376 1290 350 1258 q 453 1321 403 1321 l 454 1321 q 522 1295 499 1321 q 545 1231 545 1269 q 519 1158 545 1189 q 443 1126 493 1126 l 442 1126 z "},"Ẹ":{"ha":875,"x_min":49,"x_max":860,"o":"m 159 76 l 159 953 l 50 971 l 50 1032 l 763 1032 l 782 813 l 706 813 l 653 956 l 318 967 l 318 565 l 542 572 l 567 692 l 635 692 l 635 366 l 567 366 l 543 492 l 318 497 l 318 69 l 696 85 l 780 273 l 860 250 l 816 0 l 49 0 l 49 60 l 159 76 m 429 -285 q 363 -259 387 -285 q 340 -195 340 -233 q 366 -122 340 -153 q 440 -90 392 -90 l 442 -90 q 509 -116 485 -90 q 532 -181 532 -142 q 506 -254 532 -223 q 431 -285 480 -285 l 429 -285 z "},"È":{"ha":875,"x_min":49,"x_max":860,"o":"m 159 76 l 159 953 l 50 971 l 50 1032 l 763 1032 l 782 813 l 706 813 l 653 956 l 318 967 l 318 565 l 542 572 l 567 692 l 635 692 l 635 366 l 567 366 l 543 492 l 318 497 l 318 69 l 696 85 l 780 273 l 860 250 l 816 0 l 49 0 l 49 60 l 159 76 m 453 1109 q 396 1142 427 1122 q 333 1187 365 1162 q 275 1238 302 1212 q 229 1289 248 1265 l 332 1372 l 504 1151 l 454 1109 l 453 1109 z "},"Ẻ":{"ha":875,"x_min":49,"x_max":860,"o":"m 159 76 l 159 953 l 50 971 l 50 1032 l 763 1032 l 782 813 l 706 813 l 653 956 l 318 967 l 318 565 l 542 572 l 567 692 l 635 692 l 635 366 l 567 366 l 543 492 l 318 497 l 318 69 l 696 85 l 780 273 l 860 250 l 816 0 l 49 0 l 49 60 l 159 76 m 406 1107 q 394 1130 399 1118 q 390 1155 390 1141 q 401 1189 390 1175 q 426 1213 412 1202 q 451 1236 440 1224 q 462 1266 462 1249 q 444 1301 462 1290 q 389 1313 427 1313 q 353 1309 373 1313 q 322 1299 333 1306 l 321 1385 q 365 1398 339 1393 q 415 1403 391 1403 q 498 1389 463 1403 q 553 1348 533 1374 q 574 1286 574 1322 q 564 1240 574 1259 q 537 1207 553 1221 q 503 1181 521 1194 q 472 1148 478 1166 q 472 1107 466 1130 l 406 1107 z "},"Ȇ":{"ha":875,"x_min":49,"x_max":860,"o":"m 159 76 l 159 953 l 50 971 l 50 1032 l 763 1032 l 782 813 l 706 813 l 653 956 l 318 967 l 318 565 l 542 572 l 567 692 l 635 692 l 635 366 l 567 366 l 543 492 l 318 497 l 318 69 l 696 85 l 780 273 l 860 250 l 816 0 l 49 0 l 49 60 l 159 76 m 447 1357 q 562 1331 514 1357 q 637 1260 610 1306 q 663 1158 663 1215 q 663 1141 663 1149 q 660 1124 662 1133 l 592 1124 q 592 1135 592 1128 q 590 1147 592 1141 q 572 1195 586 1172 q 528 1234 558 1219 q 447 1249 499 1249 q 367 1234 397 1249 q 323 1195 337 1219 q 305 1147 309 1172 q 303 1135 303 1141 q 303 1124 303 1128 l 235 1124 q 233 1141 233 1133 q 232 1158 232 1150 q 258 1260 232 1215 q 333 1331 285 1306 q 447 1357 381 1357 z "},"Ē":{"ha":875,"x_min":49,"x_max":860,"o":"m 159 76 l 159 953 l 50 971 l 50 1032 l 763 1032 l 782 813 l 706 813 l 653 956 l 318 967 l 318 565 l 542 572 l 567 692 l 635 692 l 635 366 l 567 366 l 543 492 l 318 497 l 318 69 l 696 85 l 780 273 l 860 250 l 816 0 l 49 0 l 49 60 l 159 76 m 645 1241 l 645 1146 l 250 1146 l 250 1241 l 645 1241 z "},"Ḗ":{"ha":875,"x_min":49,"x_max":860,"o":"m 159 76 l 159 953 l 50 971 l 50 1032 l 763 1032 l 782 813 l 706 813 l 653 956 l 318 967 l 318 565 l 542 572 l 567 692 l 635 692 l 635 366 l 567 366 l 543 492 l 318 497 l 318 69 l 696 85 l 780 273 l 860 250 l 816 0 l 49 0 l 49 60 l 159 76 m 645 1241 l 645 1146 l 250 1146 l 250 1241 l 645 1241 m 447 1295 l 397 1337 l 569 1558 l 672 1474 q 626 1424 653 1450 q 568 1372 599 1397 q 506 1327 537 1347 q 448 1295 474 1307 l 447 1295 z "},"Ḕ":{"ha":875,"x_min":49,"x_max":860,"o":"m 159 76 l 159 953 l 50 971 l 50 1032 l 763 1032 l 782 813 l 706 813 l 653 956 l 318 967 l 318 565 l 542 572 l 567 692 l 635 692 l 635 366 l 567 366 l 543 492 l 318 497 l 318 69 l 696 85 l 780 273 l 860 250 l 816 0 l 49 0 l 49 60 l 159 76 m 645 1241 l 645 1146 l 250 1146 l 250 1241 l 645 1241 m 453 1294 q 396 1326 427 1306 q 333 1372 365 1347 q 275 1423 302 1397 q 229 1474 248 1449 l 332 1556 l 504 1335 l 454 1294 l 453 1294 z "},"Ę":{"ha":875,"x_min":49,"x_max":860,"o":"m 159 76 l 159 953 l 50 971 l 50 1032 l 763 1032 l 782 813 l 706 813 l 653 956 l 318 967 l 318 565 l 542 572 l 567 692 l 635 692 l 635 366 l 567 366 l 543 492 l 318 497 l 318 69 l 696 85 l 780 273 l 860 250 l 816 0 l 49 0 l 49 60 l 159 76 m 613 -342 q 539 -328 574 -342 q 480 -286 503 -315 q 458 -214 458 -257 q 482 -130 458 -170 q 548 -55 506 -89 q 638 1 589 -22 l 676 7 l 728 1 q 647 -51 678 -20 q 601 -116 616 -82 q 586 -178 586 -149 q 607 -233 586 -214 q 666 -253 628 -253 q 724 -242 697 -253 q 773 -216 750 -231 l 787 -276 q 718 -322 765 -301 q 613 -342 671 -342 z "},"Ɛ":{"ha":816,"x_min":33,"x_max":760,"o":"m 415 -15 q 211 19 297 -15 q 80 123 126 54 q 33 295 33 192 q 91 464 33 394 q 258 560 149 533 q 118 640 170 584 q 67 786 67 697 q 107 924 67 866 q 229 1013 147 981 q 435 1044 310 1044 q 526 1039 484 1044 q 604 1026 567 1033 q 673 1013 640 1019 q 738 1003 706 1006 l 723 746 l 627 746 l 593 930 q 530 963 567 951 q 433 976 494 976 q 279 924 333 976 q 226 776 226 872 q 270 643 226 692 q 403 585 314 594 q 475 588 435 585 q 558 593 515 590 l 558 472 q 470 494 506 486 q 403 506 433 503 q 258 434 312 492 q 205 280 205 376 q 266 108 205 161 q 438 54 326 56 q 540 69 494 53 q 616 111 585 85 l 674 258 l 760 248 l 728 38 q 634 19 681 32 q 534 -4 588 6 q 415 -15 481 -15 z "},"Ɜ":{"ha":817,"x_min":56,"x_max":784,"o":"m 399 -15 q 278 -4 332 -15 q 177 19 224 6 q 85 36 131 31 l 56 248 l 142 260 l 197 112 q 244 81 215 94 q 308 61 273 67 q 380 54 344 54 q 505 78 453 54 q 584 152 556 102 q 611 280 611 201 q 591 395 611 344 q 528 476 571 447 q 414 506 485 506 q 373 500 396 505 q 322 489 349 496 q 260 472 294 481 l 260 593 q 316 589 289 591 q 369 586 344 588 q 415 585 394 585 q 512 614 473 590 q 571 678 551 637 q 591 776 591 719 q 538 923 591 871 q 386 976 485 976 q 291 963 328 976 q 231 930 253 949 l 197 746 l 101 746 l 87 1003 q 154 1014 121 1007 q 222 1027 187 1020 q 298 1039 258 1034 q 387 1044 339 1044 q 591 1013 510 1044 q 710 925 671 982 q 750 790 750 868 q 698 642 750 701 q 558 559 647 583 q 724 464 665 533 q 784 295 784 396 q 682 64 784 142 q 399 -15 579 -15 z "},"Ʃ":{"ha":692,"x_min":30,"x_max":663,"o":"m 114 -17 q 65 -13 84 -17 q 30 -4 45 -10 l 30 126 q 79 104 47 113 q 151 94 111 94 q 236 125 209 94 q 264 231 264 155 l 264 724 q 291 852 264 794 q 364 955 318 911 q 466 1022 410 998 q 581 1047 522 1047 q 627 1043 608 1047 q 663 1034 647 1040 l 663 904 q 615 926 647 917 q 543 935 583 935 q 452 902 481 935 q 422 794 422 869 l 422 298 q 395 170 422 228 q 323 70 368 113 q 223 6 277 28 q 114 -17 168 -17 z "},"Ɇ":{"ha":875,"x_min":49,"x_max":860,"o":"m 256 -115 l 632 1164 l 682 1149 l 306 -133 l 256 -115 m 159 76 l 159 953 l 50 971 l 50 1032 l 763 1032 l 782 813 l 706 813 l 653 956 l 318 967 l 318 565 l 542 572 l 567 692 l 635 692 l 635 366 l 567 366 l 543 492 l 318 497 l 318 69 l 696 85 l 780 273 l 860 250 l 816 0 l 49 0 l 49 60 l 159 76 z "},"Ẽ":{"ha":875,"x_min":49,"x_max":860,"o":"m 159 76 l 159 953 l 50 971 l 50 1032 l 763 1032 l 782 813 l 706 813 l 653 956 l 318 967 l 318 565 l 542 572 l 567 692 l 635 692 l 635 366 l 567 366 l 543 492 l 318 497 l 318 69 l 696 85 l 780 273 l 860 250 l 816 0 l 49 0 l 49 60 l 159 76 m 526 1124 q 470 1138 492 1124 q 430 1169 447 1151 q 397 1202 413 1188 q 358 1216 380 1216 q 316 1192 331 1216 q 290 1133 301 1168 l 238 1160 q 283 1272 247 1231 q 370 1312 319 1312 q 426 1298 403 1312 q 465 1266 448 1284 q 500 1233 483 1247 q 537 1219 517 1219 q 580 1242 565 1219 q 605 1301 594 1265 l 657 1275 q 613 1163 648 1202 q 526 1124 577 1124 z "},"Ḛ":{"ha":875,"x_min":49,"x_max":860,"o":"m 159 76 l 159 953 l 50 971 l 50 1032 l 763 1032 l 782 813 l 706 813 l 653 956 l 318 967 l 318 565 l 542 572 l 567 692 l 635 692 l 635 366 l 567 366 l 543 492 l 318 497 l 318 69 l 696 85 l 780 273 l 860 250 l 816 0 l 49 0 l 49 60 l 159 76 m 522 -281 q 464 -267 488 -281 q 422 -234 440 -253 q 385 -202 403 -216 q 344 -187 367 -187 q 301 -208 318 -187 q 274 -266 284 -228 l 215 -235 q 264 -123 226 -163 q 355 -82 301 -82 q 413 -96 389 -82 q 457 -128 438 -110 q 493 -161 476 -147 q 533 -175 511 -175 q 577 -155 560 -176 q 603 -97 594 -134 l 663 -127 q 614 -240 651 -199 q 522 -281 577 -281 z "},"Ǝ":{"ha":872,"x_min":17,"x_max":826,"o":"m 715 76 l 826 60 l 826 0 l 59 0 l 17 247 l 97 271 l 177 85 l 557 69 l 557 497 l 332 492 l 308 366 l 239 366 l 239 692 l 308 692 l 332 572 l 557 565 l 557 967 l 222 956 l 174 813 l 97 813 l 116 1032 l 825 1032 l 825 971 l 715 953 l 715 76 z "},"Ə":{"ha":948,"x_min":35,"x_max":906,"o":"m 440 -15 q 285 12 358 -15 q 157 92 213 40 q 69 222 101 145 q 35 397 36 298 q 36 478 35 440 q 44 541 38 516 l 731 540 q 693 772 727 674 q 596 924 659 870 q 442 977 533 977 q 337 966 383 977 q 259 938 291 954 q 211 905 228 921 l 184 772 l 81 772 l 76 990 q 144 999 108 991 q 225 1018 180 1008 q 329 1036 271 1028 q 461 1043 388 1043 q 646 1007 564 1043 q 786 904 728 972 q 875 740 844 836 q 906 526 906 644 q 872 301 906 401 q 775 130 838 201 q 627 22 712 60 q 440 -15 542 -15 m 457 56 q 569 81 519 56 q 655 158 619 107 q 711 287 691 210 q 732 466 731 364 l 208 467 q 203 427 205 448 q 202 381 202 406 q 217 269 202 326 q 264 164 233 213 q 344 85 296 115 q 457 56 392 56 z "},"Ʒ":{"ha":790,"x_min":34,"x_max":757,"o":"m 332 -12 q 198 -1 258 -12 q 98 24 139 10 q 37 43 57 37 l 65 276 l 149 276 l 184 98 q 209 84 190 93 q 259 67 227 74 q 336 59 290 59 q 441 77 395 59 q 518 128 486 95 q 566 207 549 161 q 582 307 582 252 q 560 422 582 371 q 483 503 538 473 q 334 536 429 534 q 295 534 313 536 q 262 526 278 532 l 235 567 l 463 856 l 545 960 l 165 947 l 114 791 l 34 791 l 47 1032 l 708 1032 l 730 972 l 399 592 q 456 590 428 592 q 510 583 483 588 q 609 555 564 574 q 687 505 653 536 q 739 430 720 474 q 757 329 757 387 q 729 189 757 252 q 647 81 701 126 q 513 12 592 36 q 332 -12 434 -12 z "},"Ǯ":{"ha":790,"x_min":34,"x_max":757,"o":"m 332 -12 q 198 -1 258 -12 q 98 24 139 10 q 37 43 57 37 l 65 276 l 149 276 l 184 98 q 209 84 190 93 q 259 67 227 74 q 336 59 290 59 q 441 77 395 59 q 518 128 486 95 q 566 207 549 161 q 582 307 582 252 q 560 422 582 371 q 483 503 538 473 q 334 536 429 534 q 295 534 313 536 q 262 526 278 532 l 235 567 l 463 856 l 545 960 l 165 947 l 114 791 l 34 791 l 47 1032 l 708 1032 l 730 972 l 399 592 q 456 590 428 592 q 510 583 483 588 q 609 555 564 574 q 687 505 653 536 q 739 430 720 474 q 757 329 757 387 q 729 189 757 252 q 647 81 701 126 q 513 12 592 36 q 332 -12 434 -12 m 340 1115 l 167 1315 l 215 1351 l 398 1216 l 580 1351 l 628 1315 l 455 1115 l 340 1115 z "},"Ƹ":{"ha":790,"x_min":33,"x_max":756,"o":"m 458 -12 q 277 12 356 -12 q 144 81 198 36 q 61 189 90 126 q 33 329 33 252 q 52 430 33 387 q 103 505 70 474 q 182 555 137 536 q 281 583 227 574 q 335 590 307 588 q 392 592 363 592 l 60 972 l 82 1032 l 743 1032 l 756 791 l 676 791 l 626 947 l 245 960 l 328 856 l 555 567 l 528 526 q 495 534 513 532 q 456 536 478 536 q 307 503 361 534 q 231 422 253 473 q 209 307 209 371 q 225 207 209 252 q 273 128 241 161 q 350 77 304 95 q 454 59 396 59 q 532 67 500 59 q 582 84 563 74 q 606 98 600 93 l 642 276 l 726 276 l 753 43 q 693 24 734 37 q 592 -1 651 10 q 458 -12 533 -12 z "},"F":{"ha":835,"x_min":49,"x_max":797,"o":"m 161 76 l 161 953 l 49 971 l 49 1032 l 781 1032 l 797 795 l 712 795 l 660 956 l 319 967 l 319 553 l 560 559 l 587 681 l 653 681 l 653 349 l 588 349 l 560 476 l 319 483 l 319 76 l 519 60 l 519 0 l 54 0 l 54 60 l 161 76 z "},"Ḟ":{"ha":835,"x_min":49,"x_max":797,"o":"m 161 76 l 161 953 l 49 971 l 49 1032 l 781 1032 l 797 795 l 712 795 l 660 956 l 319 967 l 319 553 l 560 559 l 587 681 l 653 681 l 653 349 l 588 349 l 560 476 l 319 483 l 319 76 l 519 60 l 519 0 l 54 0 l 54 60 l 161 76 m 447 1126 q 378 1152 402 1126 q 355 1217 355 1178 q 381 1290 355 1258 q 458 1321 408 1321 l 459 1321 q 527 1295 503 1321 q 550 1231 550 1269 q 524 1158 550 1189 q 448 1126 498 1126 l 447 1126 z "},"Ƒ":{"ha":832,"x_min":-68,"x_max":794,"o":"m 7 -350 q -42 -346 -24 -350 q -68 -338 -59 -342 l -68 -203 q -22 -223 -53 -214 q 47 -233 9 -233 q 113 -217 88 -233 q 148 -169 137 -202 q 158 -81 158 -135 l 159 953 l 46 971 l 46 1032 l 779 1032 l 794 795 l 709 795 l 658 956 l 317 967 l 317 553 l 557 559 l 585 681 l 651 681 l 651 349 l 585 349 l 557 476 l 317 483 l 317 -28 q 292 -156 317 -97 q 225 -258 268 -215 q 126 -326 182 -301 q 7 -350 69 -350 z "},"G":{"ha":990,"x_min":33,"x_max":974,"o":"m 520 -15 q 314 25 404 -15 q 160 135 223 65 q 66 300 98 206 q 33 502 33 394 q 70 731 33 631 q 174 902 106 832 q 337 1008 242 972 q 549 1044 432 1044 q 659 1038 607 1044 q 754 1023 710 1032 q 831 1008 798 1015 q 885 1000 865 1001 l 871 754 l 768 754 l 735 930 q 702 950 726 939 q 638 969 678 962 q 543 977 599 977 q 364 926 438 977 q 253 776 291 876 q 215 530 215 676 q 232 350 215 436 q 289 197 250 265 q 388 91 327 130 q 536 51 449 51 q 616 59 579 51 q 684 82 653 67 q 740 115 715 97 l 740 428 l 574 443 l 574 517 l 974 517 l 974 443 l 896 430 l 896 56 q 841 47 869 55 q 781 29 813 40 q 711 9 749 19 q 625 -8 672 -1 q 520 -15 578 -15 z "},"Ǵ":{"ha":990,"x_min":33,"x_max":974,"o":"m 520 -15 q 314 25 404 -15 q 160 135 223 65 q 66 300 98 206 q 33 502 33 394 q 70 731 33 631 q 174 902 106 832 q 337 1008 242 972 q 549 1044 432 1044 q 659 1038 607 1044 q 754 1023 710 1032 q 831 1008 798 1015 q 885 1000 865 1001 l 871 754 l 768 754 l 735 930 q 702 950 726 939 q 638 969 678 962 q 543 977 599 977 q 364 926 438 977 q 253 776 291 876 q 215 530 215 676 q 232 350 215 436 q 289 197 250 265 q 388 91 327 130 q 536 51 449 51 q 616 59 579 51 q 684 82 653 67 q 740 115 715 97 l 740 428 l 574 443 l 574 517 l 974 517 l 974 443 l 896 430 l 896 56 q 841 47 869 55 q 781 29 813 40 q 711 9 749 19 q 625 -8 672 -1 q 520 -15 578 -15 m 519 1110 l 470 1152 l 642 1373 l 745 1290 q 699 1239 726 1265 q 641 1188 672 1213 q 578 1142 610 1163 q 521 1110 547 1122 l 519 1110 z "},"Ğ":{"ha":990,"x_min":33,"x_max":974,"o":"m 520 -15 q 314 25 404 -15 q 160 135 223 65 q 66 300 98 206 q 33 502 33 394 q 70 731 33 631 q 174 902 106 832 q 337 1008 242 972 q 549 1044 432 1044 q 659 1038 607 1044 q 754 1023 710 1032 q 831 1008 798 1015 q 885 1000 865 1001 l 871 754 l 768 754 l 735 930 q 702 950 726 939 q 638 969 678 962 q 543 977 599 977 q 364 926 438 977 q 253 776 291 876 q 215 530 215 676 q 232 350 215 436 q 289 197 250 265 q 388 91 327 130 q 536 51 449 51 q 616 59 579 51 q 684 82 653 67 q 740 115 715 97 l 740 428 l 574 443 l 574 517 l 974 517 l 974 443 l 896 430 l 896 56 q 841 47 869 55 q 781 29 813 40 q 711 9 749 19 q 625 -8 672 -1 q 520 -15 578 -15 m 521 1120 q 416 1143 461 1120 q 344 1207 370 1165 q 318 1302 318 1248 q 319 1319 318 1311 q 321 1335 319 1326 l 389 1335 q 389 1325 389 1331 q 390 1313 390 1319 q 409 1268 395 1289 q 449 1233 422 1247 q 521 1220 476 1220 q 593 1233 566 1220 q 634 1268 620 1247 q 651 1313 648 1289 q 653 1325 653 1319 q 653 1335 653 1331 l 722 1335 q 724 1319 723 1326 q 724 1302 724 1311 q 698 1207 724 1248 q 627 1143 672 1165 q 521 1120 581 1120 z "},"Ǧ":{"ha":990,"x_min":33,"x_max":974,"o":"m 520 -15 q 314 25 404 -15 q 160 135 223 65 q 66 300 98 206 q 33 502 33 394 q 70 731 33 631 q 174 902 106 832 q 337 1008 242 972 q 549 1044 432 1044 q 659 1038 607 1044 q 754 1023 710 1032 q 831 1008 798 1015 q 885 1000 865 1001 l 871 754 l 768 754 l 735 930 q 702 950 726 939 q 638 969 678 962 q 543 977 599 977 q 364 926 438 977 q 253 776 291 876 q 215 530 215 676 q 232 350 215 436 q 289 197 250 265 q 388 91 327 130 q 536 51 449 51 q 616 59 579 51 q 684 82 653 67 q 740 115 715 97 l 740 428 l 574 443 l 574 517 l 974 517 l 974 443 l 896 430 l 896 56 q 841 47 869 55 q 781 29 813 40 q 711 9 749 19 q 625 -8 672 -1 q 520 -15 578 -15 m 466 1115 l 293 1315 l 341 1351 l 524 1216 l 706 1351 l 753 1315 l 581 1115 l 466 1115 z "},"Ĝ":{"ha":990,"x_min":33,"x_max":974,"o":"m 520 -15 q 314 25 404 -15 q 160 135 223 65 q 66 300 98 206 q 33 502 33 394 q 70 731 33 631 q 174 902 106 832 q 337 1008 242 972 q 549 1044 432 1044 q 659 1038 607 1044 q 754 1023 710 1032 q 831 1008 798 1015 q 885 1000 865 1001 l 871 754 l 768 754 l 735 930 q 702 950 726 939 q 638 969 678 962 q 543 977 599 977 q 364 926 438 977 q 253 776 291 876 q 215 530 215 676 q 232 350 215 436 q 289 197 250 265 q 388 91 327 130 q 536 51 449 51 q 616 59 579 51 q 684 82 653 67 q 740 115 715 97 l 740 428 l 574 443 l 574 517 l 974 517 l 974 443 l 896 430 l 896 56 q 841 47 869 55 q 781 29 813 40 q 711 9 749 19 q 625 -8 672 -1 q 520 -15 578 -15 m 339 1104 l 291 1140 l 464 1343 l 578 1343 l 751 1141 l 703 1104 l 522 1243 l 339 1104 z "},"Ģ":{"ha":990,"x_min":33,"x_max":974,"o":"m 520 -15 q 314 25 404 -15 q 160 135 223 65 q 66 300 98 206 q 33 502 33 394 q 70 731 33 631 q 174 902 106 832 q 337 1008 242 972 q 549 1044 432 1044 q 659 1038 607 1044 q 754 1023 710 1032 q 831 1008 798 1015 q 885 1000 865 1001 l 871 754 l 768 754 l 735 930 q 702 950 726 939 q 638 969 678 962 q 543 977 599 977 q 364 926 438 977 q 253 776 291 876 q 215 530 215 676 q 232 350 215 436 q 289 197 250 265 q 388 91 327 130 q 536 51 449 51 q 616 59 579 51 q 684 82 653 67 q 740 115 715 97 l 740 428 l 574 443 l 574 517 l 974 517 l 974 443 l 896 430 l 896 56 q 841 47 869 55 q 781 29 813 40 q 711 9 749 19 q 625 -8 672 -1 q 520 -15 578 -15 m 601 -187 q 579 -269 601 -231 q 530 -334 557 -308 q 486 -369 503 -360 l 484 -369 l 444 -345 l 443 -337 q 475 -299 463 -325 q 488 -256 488 -274 q 479 -224 488 -236 q 458 -204 471 -212 q 437 -183 447 -196 q 428 -149 428 -171 q 441 -109 428 -124 q 472 -88 454 -94 q 504 -81 490 -81 l 508 -81 q 575 -109 549 -81 q 601 -187 601 -137 z "},"Ġ":{"ha":990,"x_min":33,"x_max":974,"o":"m 520 -15 q 314 25 404 -15 q 160 135 223 65 q 66 300 98 206 q 33 502 33 394 q 70 731 33 631 q 174 902 106 832 q 337 1008 242 972 q 549 1044 432 1044 q 659 1038 607 1044 q 754 1023 710 1032 q 831 1008 798 1015 q 885 1000 865 1001 l 871 754 l 768 754 l 735 930 q 702 950 726 939 q 638 969 678 962 q 543 977 599 977 q 364 926 438 977 q 253 776 291 876 q 215 530 215 676 q 232 350 215 436 q 289 197 250 265 q 388 91 327 130 q 536 51 449 51 q 616 59 579 51 q 684 82 653 67 q 740 115 715 97 l 740 428 l 574 443 l 574 517 l 974 517 l 974 443 l 896 430 l 896 56 q 841 47 869 55 q 781 29 813 40 q 711 9 749 19 q 625 -8 672 -1 q 520 -15 578 -15 m 515 1126 q 447 1152 471 1126 q 424 1217 424 1178 q 450 1290 424 1258 q 526 1321 476 1321 l 528 1321 q 595 1295 572 1321 q 619 1231 619 1269 q 593 1158 619 1189 q 517 1126 567 1126 l 515 1126 z "},"Ɠ":{"ha":990,"x_min":33,"x_max":1083,"o":"m 870 754 l 827 803 l 813 958 q 859 1109 829 1052 q 929 1192 888 1166 q 1019 1217 969 1217 q 1055 1215 1040 1217 q 1083 1207 1070 1212 l 1083 1081 q 1040 1097 1065 1090 q 985 1103 1015 1103 q 935 1090 956 1103 q 900 1042 913 1076 q 883 945 888 1008 l 870 754 m 520 -15 q 314 25 404 -15 q 160 135 223 65 q 66 300 98 206 q 33 502 33 394 q 70 731 33 631 q 174 902 106 832 q 337 1008 242 972 q 549 1044 432 1044 q 659 1038 607 1044 q 754 1023 710 1032 q 831 1008 798 1015 q 885 1000 865 1001 l 871 754 l 768 754 l 735 930 q 702 950 726 939 q 638 969 678 962 q 543 977 599 977 q 364 926 438 977 q 253 776 291 876 q 215 530 215 676 q 232 350 215 436 q 289 197 250 265 q 388 91 327 130 q 536 51 449 51 q 616 59 579 51 q 684 82 653 67 q 740 115 715 97 l 740 428 l 574 443 l 574 517 l 974 517 l 974 443 l 896 430 l 896 56 q 841 47 869 55 q 781 29 813 40 q 711 9 749 19 q 625 -8 672 -1 q 520 -15 578 -15 z "},"Ɂ":{"ha":827,"x_min":56,"x_max":795,"o":"m 188 0 l 188 60 l 315 76 l 315 493 q 493 536 426 504 q 590 623 560 569 q 619 755 619 678 q 557 919 619 865 q 386 974 494 972 q 258 960 302 973 q 197 930 214 947 l 163 751 l 67 751 l 56 1002 q 139 1015 91 1005 q 253 1033 188 1024 q 406 1042 319 1042 q 622 1006 535 1042 q 752 905 709 970 q 795 751 795 839 q 760 601 795 663 q 653 502 724 540 q 473 450 581 465 l 473 76 l 601 60 l 601 0 l 188 0 z "},"Ḡ":{"ha":990,"x_min":33,"x_max":974,"o":"m 520 -15 q 314 25 404 -15 q 160 135 223 65 q 66 300 98 206 q 33 502 33 394 q 70 731 33 631 q 174 902 106 832 q 337 1008 242 972 q 549 1044 432 1044 q 659 1038 607 1044 q 754 1023 710 1032 q 831 1008 798 1015 q 885 1000 865 1001 l 871 754 l 768 754 l 735 930 q 702 950 726 939 q 638 969 678 962 q 543 977 599 977 q 364 926 438 977 q 253 776 291 876 q 215 530 215 676 q 232 350 215 436 q 289 197 250 265 q 388 91 327 130 q 536 51 449 51 q 616 59 579 51 q 684 82 653 67 q 740 115 715 97 l 740 428 l 574 443 l 574 517 l 974 517 l 974 443 l 896 430 l 896 56 q 841 47 869 55 q 781 29 813 40 q 711 9 749 19 q 625 -8 672 -1 q 520 -15 578 -15 m 719 1241 l 719 1146 l 324 1146 l 324 1241 l 719 1241 z "},"Ǥ":{"ha":990,"x_min":33,"x_max":996,"o":"m 520 -15 q 314 25 404 -15 q 160 135 223 65 q 66 300 98 206 q 33 502 33 394 q 70 731 33 631 q 174 902 106 832 q 337 1008 242 972 q 549 1044 432 1044 q 659 1038 607 1044 q 754 1023 710 1032 q 831 1008 798 1015 q 885 1000 865 1001 l 871 754 l 768 754 l 735 930 q 702 950 726 939 q 638 969 678 962 q 543 977 599 977 q 364 926 438 977 q 253 776 291 876 q 215 530 215 676 q 232 350 215 436 q 289 197 250 265 q 388 91 327 130 q 536 51 449 51 q 616 59 579 51 q 684 82 653 67 q 740 115 715 97 l 740 428 l 574 443 l 574 517 l 974 517 l 974 443 l 896 430 l 896 56 q 841 47 869 55 q 781 29 813 40 q 711 9 749 19 q 625 -8 672 -1 q 520 -15 578 -15 m 547 236 l 547 309 l 995 309 l 995 236 l 547 236 z "},"Ȝ":{"ha":754,"x_min":34,"x_max":682,"o":"m 156 -193 l 126 -144 q 258 -80 190 -119 q 382 14 325 -40 q 475 134 440 68 q 510 274 510 199 q 488 384 510 333 q 416 467 466 435 q 283 498 367 498 q 226 491 251 498 q 189 475 201 483 l 169 523 q 293 570 238 543 q 388 632 348 597 q 450 711 428 667 q 472 809 472 755 q 456 897 472 860 q 403 955 440 934 q 306 975 367 975 q 216 961 256 975 q 161 918 176 948 l 120 747 l 34 747 l 36 994 q 92 1003 63 995 q 153 1019 120 1010 q 225 1034 185 1028 q 311 1041 264 1041 q 494 1013 422 1041 q 600 933 566 985 q 635 811 635 881 q 615 721 635 763 q 561 644 595 678 q 485 585 528 610 q 397 545 443 560 q 524 521 470 544 q 613 462 578 498 q 665 383 648 426 q 681 299 682 340 q 645 144 681 215 q 552 16 610 74 q 424 -84 494 -41 q 283 -155 353 -127 q 156 -193 213 -182 z "},"H":{"ha":1096,"x_min":48,"x_max":1048,"o":"m 155 75 l 155 953 l 50 971 l 50 1032 l 426 1032 l 426 971 l 313 953 l 313 568 l 783 568 l 783 953 l 669 971 l 669 1032 l 1045 1032 l 1045 971 l 941 953 l 941 75 l 1048 60 l 1048 0 l 672 0 l 672 60 l 783 76 l 783 490 l 313 490 l 313 75 l 431 60 l 431 0 l 48 0 l 48 60 l 155 75 z "},"Ħ":{"ha":1110,"x_min":55,"x_max":1055,"o":"m 162 75 l 162 953 l 56 971 l 56 1032 l 434 1032 l 434 971 l 320 953 l 320 503 l 790 503 l 790 953 l 681 971 l 681 1032 l 1051 1032 l 1051 971 l 948 953 l 948 75 l 1055 60 l 1055 0 l 680 0 l 680 60 l 790 76 l 790 425 l 320 425 l 320 75 l 435 60 l 435 0 l 55 0 l 55 60 l 162 75 m 1049 771 l 1049 702 l 58 702 l 58 771 l 1049 771 z "},"Ḫ":{"ha":1096,"x_min":48,"x_max":1048,"o":"m 155 75 l 155 953 l 50 971 l 50 1032 l 426 1032 l 426 971 l 313 953 l 313 568 l 783 568 l 783 953 l 669 971 l 669 1032 l 1045 1032 l 1045 971 l 941 953 l 941 75 l 1048 60 l 1048 0 l 672 0 l 672 60 l 783 76 l 783 490 l 313 490 l 313 75 l 431 60 l 431 0 l 48 0 l 48 60 l 155 75 m 549 -347 q 435 -323 483 -347 q 359 -254 386 -298 q 333 -153 333 -210 q 333 -131 333 -142 q 335 -110 334 -120 l 401 -110 q 402 -123 401 -116 q 403 -137 402 -130 q 423 -185 408 -162 q 468 -223 438 -208 q 549 -237 499 -237 q 628 -223 598 -237 q 674 -185 658 -208 q 693 -137 689 -162 q 695 -123 694 -130 q 695 -110 695 -116 l 760 -110 q 763 -131 762 -120 q 763 -153 763 -142 q 736 -254 763 -210 q 661 -323 709 -298 q 549 -347 613 -347 z "},"Ȟ":{"ha":1096,"x_min":48,"x_max":1048,"o":"m 155 75 l 155 953 l 50 971 l 50 1032 l 426 1032 l 426 971 l 313 953 l 313 568 l 783 568 l 783 953 l 669 971 l 669 1032 l 1045 1032 l 1045 971 l 941 953 l 941 75 l 1048 60 l 1048 0 l 672 0 l 672 60 l 783 76 l 783 490 l 313 490 l 313 75 l 431 60 l 431 0 l 48 0 l 48 60 l 155 75 m 493 1115 l 320 1315 l 368 1351 l 551 1216 l 733 1351 l 781 1315 l 608 1115 l 493 1115 z "},"Ḩ":{"ha":1096,"x_min":48,"x_max":1048,"o":"m 155 75 l 155 953 l 50 971 l 50 1032 l 426 1032 l 426 971 l 313 953 l 313 568 l 783 568 l 783 953 l 669 971 l 669 1032 l 1045 1032 l 1045 971 l 941 953 l 941 75 l 1048 60 l 1048 0 l 672 0 l 672 60 l 783 76 l 783 490 l 313 490 l 313 75 l 431 60 l 431 0 l 48 0 l 48 60 l 155 75 m 181 -331 q 128 -325 156 -331 q 82 -312 100 -319 l 82 -215 q 115 -222 97 -219 q 144 -224 133 -224 q 218 -207 191 -224 q 245 -131 245 -190 q 237 -78 245 -104 q 217 -31 228 -51 q 198 0 206 -10 l 238 0 l 262 0 q 299 -42 277 -13 q 337 -109 321 -70 q 353 -192 353 -149 q 331 -272 352 -241 q 272 -316 310 -302 q 181 -331 233 -331 z "},"Ĥ":{"ha":1096,"x_min":48,"x_max":1048,"o":"m 155 75 l 155 953 l 50 971 l 50 1032 l 426 1032 l 426 971 l 313 953 l 313 568 l 783 568 l 783 953 l 669 971 l 669 1032 l 1045 1032 l 1045 971 l 941 953 l 941 75 l 1048 60 l 1048 0 l 672 0 l 672 60 l 783 76 l 783 490 l 313 490 l 313 75 l 431 60 l 431 0 l 48 0 l 48 60 l 155 75 m 366 1104 l 318 1140 l 491 1343 l 606 1343 l 778 1141 l 731 1104 l 549 1243 l 366 1104 z "},"Ḧ":{"ha":1096,"x_min":48,"x_max":1048,"o":"m 155 75 l 155 953 l 50 971 l 50 1032 l 426 1032 l 426 971 l 313 953 l 313 568 l 783 568 l 783 953 l 669 971 l 669 1032 l 1045 1032 l 1045 971 l 941 953 l 941 75 l 1048 60 l 1048 0 l 672 0 l 672 60 l 783 76 l 783 490 l 313 490 l 313 75 l 431 60 l 431 0 l 48 0 l 48 60 l 155 75 m 413 1126 q 355 1152 375 1126 q 335 1216 335 1178 q 358 1289 335 1257 q 424 1321 381 1321 l 425 1321 q 483 1294 463 1321 q 503 1231 503 1268 q 480 1158 503 1190 q 414 1126 456 1126 l 413 1126 m 672 1126 q 615 1152 635 1126 q 594 1216 594 1178 q 617 1289 594 1257 q 683 1321 640 1321 l 684 1321 q 742 1294 722 1321 q 763 1231 763 1268 q 739 1158 763 1190 q 674 1126 716 1126 l 672 1126 z "},"Ḣ":{"ha":1096,"x_min":48,"x_max":1048,"o":"m 155 75 l 155 953 l 50 971 l 50 1032 l 426 1032 l 426 971 l 313 953 l 313 568 l 783 568 l 783 953 l 669 971 l 669 1032 l 1045 1032 l 1045 971 l 941 953 l 941 75 l 1048 60 l 1048 0 l 672 0 l 672 60 l 783 76 l 783 490 l 313 490 l 313 75 l 431 60 l 431 0 l 48 0 l 48 60 l 155 75 m 542 1126 q 474 1152 498 1126 q 451 1217 451 1178 q 477 1290 451 1258 q 553 1321 503 1321 l 555 1321 q 623 1295 599 1321 q 646 1231 646 1269 q 620 1158 646 1189 q 544 1126 594 1126 l 542 1126 z "},"Ḥ":{"ha":1096,"x_min":48,"x_max":1048,"o":"m 155 75 l 155 953 l 50 971 l 50 1032 l 426 1032 l 426 971 l 313 953 l 313 568 l 783 568 l 783 953 l 669 971 l 669 1032 l 1045 1032 l 1045 971 l 941 953 l 941 75 l 1048 60 l 1048 0 l 672 0 l 672 60 l 783 76 l 783 490 l 313 490 l 313 75 l 431 60 l 431 0 l 48 0 l 48 60 l 155 75 m 538 -285 q 472 -259 496 -285 q 449 -195 449 -233 q 475 -122 449 -153 q 549 -90 501 -90 l 551 -90 q 618 -116 594 -90 q 641 -181 641 -142 q 615 -254 641 -223 q 540 -285 589 -285 l 538 -285 z "},"Ꜧ":{"ha":1090,"x_min":45,"x_max":1042,"o":"m 613 -250 l 578 -196 q 622 -168 597 -184 q 673 -131 647 -152 q 720 -81 699 -109 q 753 -16 742 -52 q 770 61 764 19 q 778 164 776 103 q 781 318 781 225 l 781 490 l 310 490 l 310 75 l 429 60 l 429 0 l 45 0 l 45 60 l 152 75 l 152 953 l 47 971 l 47 1032 l 424 1032 l 424 971 l 310 953 l 310 568 l 781 568 l 781 953 l 669 971 l 669 1032 l 1042 1032 l 1042 971 l 938 953 l 938 374 q 937 172 938 260 q 922 26 935 85 q 859 -109 905 -51 q 750 -202 814 -166 q 613 -250 685 -237 z "},"Ɦ":{"ha":1308,"x_min":42,"x_max":1260,"o":"m 260 0 l 260 60 l 367 75 l 367 1032 l 639 1032 l 639 971 l 525 953 l 525 568 l 995 568 l 995 953 l 884 971 l 884 1032 l 1258 1032 l 1258 971 l 1153 953 l 1153 75 l 1260 60 l 1260 0 l 883 0 l 883 60 l 995 76 l 995 490 l 525 490 l 525 75 l 640 60 l 640 0 l 260 0 m 50 673 q 44 708 46 687 q 42 758 42 729 q 58 862 42 812 q 112 951 74 912 q 213 1012 149 990 q 369 1032 276 1034 l 379 997 l 369 963 q 253 949 299 965 q 187 896 208 932 q 166 806 166 860 q 173 744 166 778 q 192 673 180 710 l 50 673 z "},"Ɥ":{"ha":980,"x_min":14,"x_max":927,"o":"m 652 444 q 535 408 601 421 q 410 394 469 394 q 271 411 327 394 q 181 455 215 427 q 128 520 146 483 q 104 601 110 558 q 98 689 98 644 l 98 952 l 14 969 l 14 1032 l 370 1032 l 370 969 l 254 952 l 254 726 q 258 630 254 675 q 281 550 263 585 q 340 497 299 516 q 453 478 381 478 q 536 483 498 478 q 603 497 574 488 q 652 515 633 506 l 652 953 l 531 971 l 531 1032 l 926 1032 l 926 971 l 809 953 l 809 76 l 927 59 l 927 0 l 506 0 l 506 60 l 652 76 l 652 444 z "},"I":{"ha":495,"x_min":49,"x_max":447,"o":"m 169 76 l 169 953 l 49 971 l 49 1032 l 447 1032 l 447 971 l 326 953 l 326 75 l 447 59 l 447 0 l 49 0 l 49 60 l 169 76 z "},"Ĳ":{"ha":985,"x_min":49,"x_max":935,"o":"m 169 76 l 169 953 l 49 971 l 49 1032 l 447 1032 l 447 971 l 326 953 l 326 75 l 447 59 l 447 0 l 49 0 l 49 60 l 169 76 m 458 -196 q 530 -161 496 -185 q 591 -100 564 -137 q 632 -16 617 -64 q 650 61 644 19 q 658 164 656 103 q 660 318 660 225 l 660 952 l 535 971 l 535 1032 l 935 1032 l 935 971 l 817 952 l 817 374 q 816 172 817 260 q 801 26 815 85 q 739 -109 784 -51 q 630 -202 694 -166 q 492 -250 565 -237 l 458 -196 z "},"Í":{"ha":495,"x_min":49,"x_max":472,"o":"m 169 76 l 169 953 l 49 971 l 49 1032 l 447 1032 l 447 971 l 326 953 l 326 75 l 447 59 l 447 0 l 49 0 l 49 60 l 169 76 m 247 1110 l 197 1152 l 369 1373 l 472 1290 q 426 1239 453 1265 q 368 1188 399 1213 q 306 1142 337 1163 q 248 1110 274 1122 l 247 1110 z "},"Ĭ":{"ha":495,"x_min":42,"x_max":453,"o":"m 169 76 l 169 953 l 49 971 l 49 1032 l 447 1032 l 447 971 l 326 953 l 326 75 l 447 59 l 447 0 l 49 0 l 49 60 l 169 76 m 247 1120 q 139 1144 185 1120 q 67 1211 92 1169 q 42 1307 42 1253 q 43 1324 42 1316 q 45 1340 44 1332 l 110 1340 q 110 1330 110 1335 q 112 1317 111 1324 q 129 1273 116 1294 q 170 1236 142 1251 q 247 1222 199 1222 q 325 1236 297 1222 q 366 1272 353 1250 q 383 1317 380 1294 q 385 1330 385 1324 q 385 1340 385 1335 l 450 1340 q 452 1324 451 1332 q 453 1307 453 1316 q 428 1211 453 1253 q 357 1144 403 1169 q 247 1120 310 1120 z "},"Ǐ":{"ha":495,"x_min":19,"x_max":481,"o":"m 169 76 l 169 953 l 49 971 l 49 1032 l 447 1032 l 447 971 l 326 953 l 326 75 l 447 59 l 447 0 l 49 0 l 49 60 l 169 76 m 193 1115 l 20 1315 l 68 1351 l 251 1216 l 433 1351 l 481 1315 l 308 1115 l 193 1115 z "},"Î":{"ha":495,"x_min":17,"x_max":478,"o":"m 169 76 l 169 953 l 49 971 l 49 1032 l 447 1032 l 447 971 l 326 953 l 326 75 l 447 59 l 447 0 l 49 0 l 49 60 l 169 76 m 65 1104 l 17 1140 l 190 1343 l 305 1343 l 478 1141 l 430 1104 l 248 1243 l 65 1104 z "},"Ȉ":{"ha":495,"x_min":-99,"x_max":447,"o":"m 169 76 l 169 953 l 49 971 l 49 1032 l 447 1032 l 447 971 l 326 953 l 326 75 l 447 59 l 447 0 l 49 0 l 49 60 l 169 76 m 122 1110 q 67 1147 97 1124 q 5 1198 36 1170 q -54 1255 -26 1226 q -99 1309 -81 1283 l -4 1381 l 174 1152 l 123 1110 l 122 1110 m 383 1110 q 311 1164 350 1130 q 235 1237 272 1198 q 174 1310 199 1276 l 270 1382 l 435 1149 l 384 1110 l 383 1110 z "},"Ï":{"ha":495,"x_min":34,"x_max":462,"o":"m 169 76 l 169 953 l 49 971 l 49 1032 l 447 1032 l 447 971 l 326 953 l 326 75 l 447 59 l 447 0 l 49 0 l 49 60 l 169 76 m 113 1126 q 55 1152 75 1126 q 35 1216 35 1178 q 58 1289 35 1257 q 124 1321 81 1321 l 125 1321 q 183 1294 163 1321 q 203 1231 203 1268 q 180 1158 203 1190 q 114 1126 156 1126 l 113 1126 m 372 1126 q 315 1152 335 1126 q 294 1216 294 1178 q 317 1289 294 1257 q 383 1321 340 1321 l 384 1321 q 442 1294 422 1321 q 463 1231 463 1268 q 439 1158 463 1190 q 374 1126 416 1126 l 372 1126 z "},"Ḯ":{"ha":495,"x_min":34,"x_max":472,"o":"m 169 76 l 169 953 l 49 971 l 49 1032 l 447 1032 l 447 971 l 326 953 l 326 75 l 447 59 l 447 0 l 49 0 l 49 60 l 169 76 m 113 1126 q 55 1152 75 1126 q 35 1216 35 1178 q 58 1289 35 1257 q 124 1321 81 1321 l 125 1321 q 183 1294 163 1321 q 203 1231 203 1268 q 180 1158 203 1190 q 114 1126 156 1126 l 113 1126 m 372 1126 q 315 1152 335 1126 q 294 1216 294 1178 q 317 1289 294 1257 q 383 1321 340 1321 l 384 1321 q 442 1294 422 1321 q 463 1231 463 1268 q 439 1158 463 1190 q 374 1126 416 1126 l 372 1126 m 247 1344 l 197 1386 l 369 1607 l 472 1524 q 426 1473 453 1499 q 368 1422 399 1447 q 306 1376 337 1397 q 248 1344 274 1356 l 247 1344 z "},"İ":{"ha":495,"x_min":49,"x_max":447,"o":"m 169 76 l 169 953 l 49 971 l 49 1032 l 447 1032 l 447 971 l 326 953 l 326 75 l 447 59 l 447 0 l 49 0 l 49 60 l 169 76 m 242 1126 q 174 1152 197 1126 q 150 1217 150 1178 q 176 1290 150 1258 q 253 1321 203 1321 l 254 1321 q 322 1295 299 1321 q 345 1231 345 1269 q 319 1158 345 1189 q 243 1126 293 1126 l 242 1126 z "},"Ị":{"ha":495,"x_min":49,"x_max":447,"o":"m 169 76 l 169 953 l 49 971 l 49 1032 l 447 1032 l 447 971 l 326 953 l 326 75 l 447 59 l 447 0 l 49 0 l 49 60 l 169 76 m 238 -285 q 172 -259 196 -285 q 149 -195 149 -233 q 175 -122 149 -153 q 249 -90 201 -90 l 251 -90 q 318 -116 294 -90 q 341 -181 341 -142 q 315 -254 341 -223 q 240 -285 289 -285 l 238 -285 z "},"Ì":{"ha":495,"x_min":29,"x_max":447,"o":"m 169 76 l 169 953 l 49 971 l 49 1032 l 447 1032 l 447 971 l 326 953 l 326 75 l 447 59 l 447 0 l 49 0 l 49 60 l 169 76 m 253 1109 q 196 1142 227 1122 q 133 1187 165 1162 q 75 1238 102 1212 q 29 1289 48 1265 l 132 1372 l 304 1151 l 254 1109 l 253 1109 z "},"Ỉ":{"ha":495,"x_min":49,"x_max":447,"o":"m 169 76 l 169 953 l 49 971 l 49 1032 l 447 1032 l 447 971 l 326 953 l 326 75 l 447 59 l 447 0 l 49 0 l 49 60 l 169 76 m 206 1107 q 194 1130 199 1118 q 190 1155 190 1141 q 201 1189 190 1175 q 226 1213 212 1202 q 251 1236 240 1224 q 262 1266 262 1249 q 244 1301 262 1290 q 189 1313 227 1313 q 153 1309 173 1313 q 122 1299 133 1306 l 121 1385 q 165 1398 139 1393 q 215 1403 191 1403 q 298 1389 263 1403 q 353 1348 333 1374 q 374 1286 374 1322 q 364 1240 374 1259 q 337 1207 353 1221 q 303 1181 321 1194 q 272 1148 278 1166 q 272 1107 266 1130 l 206 1107 z "},"Ȋ":{"ha":495,"x_min":32,"x_max":463,"o":"m 169 76 l 169 953 l 49 971 l 49 1032 l 447 1032 l 447 971 l 326 953 l 326 75 l 447 59 l 447 0 l 49 0 l 49 60 l 169 76 m 247 1357 q 362 1331 314 1357 q 437 1260 410 1306 q 463 1158 463 1215 q 463 1141 463 1149 q 460 1124 462 1133 l 392 1124 q 392 1135 392 1128 q 390 1147 392 1141 q 372 1195 386 1172 q 328 1234 358 1219 q 247 1249 299 1249 q 167 1234 197 1249 q 123 1195 137 1219 q 105 1147 109 1172 q 103 1135 103 1141 q 103 1124 103 1128 l 35 1124 q 33 1141 33 1133 q 32 1158 32 1150 q 58 1260 32 1215 q 133 1331 85 1306 q 247 1357 181 1357 z "},"Ī":{"ha":495,"x_min":49,"x_max":447,"o":"m 169 76 l 169 953 l 49 971 l 49 1032 l 447 1032 l 447 971 l 326 953 l 326 75 l 447 59 l 447 0 l 49 0 l 49 60 l 169 76 m 446 1241 l 446 1146 l 51 1146 l 51 1241 l 446 1241 z "},"Į":{"ha":495,"x_min":49,"x_max":447,"o":"m 169 76 l 169 953 l 49 971 l 49 1032 l 447 1032 l 447 971 l 326 953 l 326 75 l 447 59 l 447 0 l 49 0 l 49 60 l 169 76 m 265 -342 q 190 -328 226 -342 q 132 -286 154 -315 q 109 -214 109 -257 q 133 -130 109 -170 q 199 -55 158 -89 q 290 1 240 -22 l 327 7 l 379 1 q 299 -51 330 -20 q 252 -116 267 -82 q 238 -178 238 -149 q 258 -233 238 -214 q 317 -253 279 -253 q 375 -242 349 -253 q 424 -216 401 -231 l 438 -276 q 369 -322 416 -301 q 265 -342 322 -342 z "},"Ɩ":{"ha":501,"x_min":28,"x_max":488,"o":"m 303 -17 q 188 22 227 -17 q 148 146 148 60 l 148 953 l 28 971 l 28 1032 l 306 1032 l 306 166 q 312 113 306 131 q 332 91 318 96 q 366 85 345 85 q 416 95 393 85 q 467 118 440 105 l 488 55 q 403 3 449 24 q 303 -17 358 -17 z "},"Ɨ":{"ha":495,"x_min":49,"x_max":447,"o":"m 169 76 l 169 953 l 49 971 l 49 1032 l 447 1032 l 447 971 l 326 953 l 326 75 l 447 59 l 447 0 l 49 0 l 49 60 l 169 76 m 426 585 l 426 513 l 67 513 l 67 585 l 426 585 z "},"Ĩ":{"ha":495,"x_min":38,"x_max":457,"o":"m 169 76 l 169 953 l 49 971 l 49 1032 l 447 1032 l 447 971 l 326 953 l 326 75 l 447 59 l 447 0 l 49 0 l 49 60 l 169 76 m 326 1124 q 270 1138 292 1124 q 230 1169 247 1151 q 197 1202 213 1188 q 158 1216 180 1216 q 116 1192 131 1216 q 90 1133 101 1168 l 38 1160 q 83 1272 47 1231 q 170 1312 119 1312 q 226 1298 203 1312 q 265 1266 248 1284 q 300 1233 283 1247 q 337 1219 317 1219 q 380 1242 365 1219 q 405 1301 394 1265 l 457 1275 q 413 1163 448 1202 q 326 1124 377 1124 z "},"Ḭ":{"ha":495,"x_min":24,"x_max":472,"o":"m 169 76 l 169 953 l 49 971 l 49 1032 l 447 1032 l 447 971 l 326 953 l 326 75 l 447 59 l 447 0 l 49 0 l 49 60 l 169 76 m 331 -281 q 273 -267 297 -281 q 231 -234 249 -253 q 194 -202 212 -216 q 153 -187 176 -187 q 110 -208 127 -187 q 83 -266 93 -228 l 24 -235 q 73 -123 35 -163 q 164 -82 110 -82 q 222 -96 198 -82 q 266 -128 247 -110 q 302 -161 285 -147 q 342 -175 320 -175 q 386 -155 369 -176 q 413 -97 403 -134 l 472 -127 q 423 -240 460 -199 q 331 -281 386 -281 z "},"J":{"ha":495,"x_min":-32,"x_max":446,"o":"m -32 -196 q 40 -161 6 -185 q 101 -100 74 -137 q 142 -16 128 -64 q 160 61 154 19 q 168 164 166 103 q 170 318 170 225 l 170 952 l 45 971 l 45 1032 l 446 1032 l 446 971 l 328 952 l 328 374 q 327 172 328 260 q 312 26 326 85 q 249 -109 294 -51 q 140 -202 204 -166 q 3 -250 76 -237 l -32 -196 z "},"Ĵ":{"ha":495,"x_min":-32,"x_max":481,"o":"m -32 -196 q 40 -161 6 -185 q 101 -100 74 -137 q 142 -16 128 -64 q 160 61 154 19 q 168 164 166 103 q 170 318 170 225 l 170 952 l 45 971 l 45 1032 l 446 1032 l 446 971 l 328 952 l 328 374 q 327 172 328 260 q 312 26 326 85 q 249 -109 294 -51 q 140 -202 204 -166 q 3 -250 76 -237 l -32 -196 m 67 1104 l 19 1140 l 192 1343 l 307 1343 l 480 1141 l 432 1104 l 250 1243 l 67 1104 z "},"Ʝ":{"ha":501,"x_min":-142,"x_max":447,"o":"m 43 -332 q -51 -314 -9 -332 q -117 -262 -93 -297 q -142 -176 -142 -227 q -114 -94 -142 -132 q -34 -33 -87 -56 q 93 -10 18 -10 q 220 -24 161 -10 q 332 -60 278 -37 q 432 -111 385 -83 l 408 -160 q 309 -116 363 -134 q 202 -88 256 -98 q 102 -78 148 -78 q 18 -92 48 -78 q -24 -127 -12 -106 q -36 -174 -36 -149 q -12 -234 -36 -212 q 51 -255 12 -255 q 113 -234 86 -255 q 155 -162 140 -213 q 170 -20 170 -112 l 170 952 l 45 971 l 45 1032 l 447 1032 l 447 971 l 328 952 l 328 9 q 306 -135 328 -72 q 245 -242 284 -198 q 154 -309 206 -286 q 43 -332 102 -332 z "},"Ɉ":{"ha":495,"x_min":-32,"x_max":446,"o":"m -32 -196 q 40 -161 6 -185 q 101 -100 74 -137 q 142 -16 128 -64 q 160 61 154 19 q 168 164 166 103 q 170 318 170 225 l 170 952 l 45 971 l 45 1032 l 446 1032 l 446 971 l 328 952 l 328 374 q 327 172 328 260 q 312 26 326 85 q 249 -109 294 -51 q 140 -202 204 -166 q 3 -250 76 -237 l -32 -196 m 430 585 l 430 514 l 70 514 l 70 585 l 430 585 z "},"K":{"ha":984,"x_min":48,"x_max":985,"o":"m 48 0 l 48 60 l 159 76 l 159 953 l 50 971 l 50 1032 l 428 1032 l 428 971 l 317 953 l 317 453 l 722 953 l 606 971 l 606 1032 l 940 1032 l 940 971 l 834 953 l 542 615 q 610 536 574 585 q 684 428 647 487 q 758 310 722 369 q 826 199 794 250 q 883 115 858 149 q 922 76 908 82 l 985 59 l 985 0 l 775 0 q 738 28 760 0 q 688 101 715 56 q 631 203 661 147 q 569 315 601 258 q 508 422 538 372 q 449 503 477 471 l 317 350 l 317 75 l 437 59 l 437 0 l 48 0 z "},"Ḱ":{"ha":984,"x_min":48,"x_max":985,"o":"m 48 0 l 48 60 l 159 76 l 159 953 l 50 971 l 50 1032 l 428 1032 l 428 971 l 317 953 l 317 453 l 722 953 l 606 971 l 606 1032 l 940 1032 l 940 971 l 834 953 l 542 615 q 610 536 574 585 q 684 428 647 487 q 758 310 722 369 q 826 199 794 250 q 883 115 858 149 q 922 76 908 82 l 985 59 l 985 0 l 775 0 q 738 28 760 0 q 688 101 715 56 q 631 203 661 147 q 569 315 601 258 q 508 422 538 372 q 449 503 477 471 l 317 350 l 317 75 l 437 59 l 437 0 l 48 0 m 513 1110 l 463 1152 l 635 1373 l 738 1290 q 692 1239 719 1265 q 634 1188 665 1213 q 572 1142 603 1163 q 514 1110 540 1122 l 513 1110 z "},"Ǩ":{"ha":984,"x_min":48,"x_max":985,"o":"m 48 0 l 48 60 l 159 76 l 159 953 l 50 971 l 50 1032 l 428 1032 l 428 971 l 317 953 l 317 453 l 722 953 l 606 971 l 606 1032 l 940 1032 l 940 971 l 834 953 l 542 615 q 610 536 574 585 q 684 428 647 487 q 758 310 722 369 q 826 199 794 250 q 883 115 858 149 q 922 76 908 82 l 985 59 l 985 0 l 775 0 q 738 28 760 0 q 688 101 715 56 q 631 203 661 147 q 569 315 601 258 q 508 422 538 372 q 449 503 477 471 l 317 350 l 317 75 l 437 59 l 437 0 l 48 0 m 458 1115 l 285 1315 l 333 1351 l 516 1216 l 698 1351 l 746 1315 l 573 1115 l 458 1115 z "},"Ķ":{"ha":984,"x_min":48,"x_max":985,"o":"m 48 0 l 48 60 l 159 76 l 159 953 l 50 971 l 50 1032 l 428 1032 l 428 971 l 317 953 l 317 453 l 722 953 l 606 971 l 606 1032 l 940 1032 l 940 971 l 834 953 l 542 615 q 610 536 574 585 q 684 428 647 487 q 758 310 722 369 q 826 199 794 250 q 883 115 858 149 q 922 76 908 82 l 985 59 l 985 0 l 775 0 q 738 28 760 0 q 688 101 715 56 q 631 203 661 147 q 569 315 601 258 q 508 422 538 372 q 449 503 477 471 l 317 350 l 317 75 l 437 59 l 437 0 l 48 0 m 603 -187 q 582 -269 603 -231 q 533 -334 560 -308 q 489 -369 506 -360 l 487 -369 l 447 -345 l 446 -337 q 478 -299 465 -325 q 490 -256 490 -274 q 482 -224 490 -236 q 460 -204 474 -212 q 440 -183 449 -196 q 431 -149 431 -171 q 444 -109 431 -124 q 475 -88 457 -94 q 507 -81 493 -81 l 510 -81 q 578 -109 552 -81 q 603 -187 603 -137 z "},"Ḳ":{"ha":984,"x_min":48,"x_max":985,"o":"m 48 0 l 48 60 l 159 76 l 159 953 l 50 971 l 50 1032 l 428 1032 l 428 971 l 317 953 l 317 453 l 722 953 l 606 971 l 606 1032 l 940 1032 l 940 971 l 834 953 l 542 615 q 610 536 574 585 q 684 428 647 487 q 758 310 722 369 q 826 199 794 250 q 883 115 858 149 q 922 76 908 82 l 985 59 l 985 0 l 775 0 q 738 28 760 0 q 688 101 715 56 q 631 203 661 147 q 569 315 601 258 q 508 422 538 372 q 449 503 477 471 l 317 350 l 317 75 l 437 59 l 437 0 l 48 0 m 507 -285 q 441 -259 465 -285 q 417 -195 417 -233 q 443 -122 417 -153 q 518 -90 469 -90 l 519 -90 q 586 -116 563 -90 q 610 -181 610 -142 q 584 -254 610 -223 q 508 -285 558 -285 l 507 -285 z "},"Ƙ":{"ha":1076,"x_min":48,"x_max":1076,"o":"m 48 0 l 48 60 l 159 75 l 158 953 l 50 971 l 50 1032 l 431 1032 l 431 971 l 316 952 l 317 453 l 683 925 q 735 984 708 957 q 800 1029 763 1012 q 890 1046 837 1046 q 965 1033 931 1046 q 1024 994 999 1020 q 1063 927 1049 967 q 1076 834 1076 888 q 1074 791 1076 808 q 1069 759 1072 774 l 936 759 q 947 799 942 778 q 951 844 951 819 q 933 933 951 900 q 876 967 915 967 q 827 954 849 967 q 786 919 806 941 q 744 869 766 897 l 542 615 q 610 536 574 585 q 684 428 647 487 q 758 310 722 369 q 826 199 794 250 q 883 115 858 148 q 922 76 908 81 l 985 59 l 985 0 l 775 0 q 738 27 760 0 q 688 101 715 55 q 631 203 661 147 q 569 315 601 258 q 508 421 538 372 q 449 503 477 470 l 317 350 l 317 75 l 437 59 l 437 0 l 48 0 z "},"Ḵ":{"ha":984,"x_min":48,"x_max":985,"o":"m 48 0 l 48 60 l 159 76 l 159 953 l 50 971 l 50 1032 l 428 1032 l 428 971 l 317 953 l 317 453 l 722 953 l 606 971 l 606 1032 l 940 1032 l 940 971 l 834 953 l 542 615 q 610 536 574 585 q 684 428 647 487 q 758 310 722 369 q 826 199 794 250 q 883 115 858 149 q 922 76 908 82 l 985 59 l 985 0 l 775 0 q 738 28 760 0 q 688 101 715 56 q 631 203 661 147 q 569 315 601 258 q 508 422 538 372 q 449 503 477 471 l 317 350 l 317 75 l 437 59 l 437 0 l 48 0 m 714 -127 l 714 -227 l 319 -227 l 319 -127 l 714 -127 z "},"Ꝁ":{"ha":984,"x_min":48,"x_max":985,"o":"m 48 0 l 48 60 l 159 76 l 159 953 l 50 971 l 50 1032 l 428 1032 l 428 971 l 317 953 l 317 453 l 722 953 l 606 971 l 606 1032 l 940 1032 l 940 971 l 834 953 l 542 615 q 610 536 574 585 q 684 428 647 487 q 758 310 722 369 q 826 199 794 250 q 883 115 858 149 q 922 76 908 82 l 985 59 l 985 0 l 775 0 q 738 28 760 0 q 688 101 715 56 q 631 203 661 147 q 569 315 601 258 q 508 422 538 372 q 449 503 477 471 l 317 350 l 317 75 l 437 59 l 437 0 l 48 0 m 419 816 l 419 744 l 60 744 l 60 816 l 419 816 z "},"L":{"ha":849,"x_min":48,"x_max":829,"o":"m 48 0 l 48 60 l 158 76 l 158 953 l 50 971 l 50 1032 l 447 1032 l 447 971 l 317 953 l 317 75 l 658 90 l 748 326 l 829 314 l 781 0 l 48 0 z "},"Ǉ":{"ha":1305,"x_min":48,"x_max":1256,"o":"m 48 0 l 48 60 l 158 76 l 158 953 l 50 971 l 50 1032 l 447 1032 l 447 971 l 317 953 l 317 75 l 658 90 l 748 326 l 829 314 l 781 0 l 48 0 m 778 -196 q 850 -161 816 -185 q 911 -100 884 -137 q 952 -16 938 -64 q 970 61 964 19 q 978 164 976 103 q 980 318 980 225 l 980 952 l 855 971 l 855 1032 l 1256 1032 l 1256 971 l 1138 952 l 1138 374 q 1136 172 1138 260 q 1122 26 1135 85 q 1059 -109 1104 -51 q 950 -202 1014 -166 q 813 -250 885 -237 l 778 -196 z "},"Ĺ":{"ha":849,"x_min":48,"x_max":829,"o":"m 48 0 l 48 60 l 158 76 l 158 953 l 50 971 l 50 1032 l 447 1032 l 447 971 l 317 953 l 317 75 l 658 90 l 748 326 l 829 314 l 781 0 l 48 0 m 235 1110 l 185 1152 l 358 1373 l 460 1290 q 415 1239 442 1265 q 356 1188 388 1213 q 294 1142 325 1163 q 236 1110 263 1122 l 235 1110 z "},"Ƚ":{"ha":848,"x_min":31,"x_max":829,"o":"m 48 0 l 48 60 l 158 76 l 158 953 l 50 971 l 50 1032 l 447 1032 l 447 971 l 317 953 l 317 75 l 658 90 l 748 326 l 829 314 l 781 0 l 48 0 m 509 551 l 509 479 l 31 479 l 31 551 l 509 551 z "},"Ɬ":{"ha":849,"x_min":-53,"x_max":829,"o":"m 48 0 l 48 60 l 158 76 l 158 953 l 50 971 l 50 1032 l 447 1032 l 447 971 l 317 953 l 317 75 l 658 90 l 748 326 l 829 314 l 781 0 l 48 0 m 230 355 q 77 376 141 355 q -20 435 14 397 q -53 526 -53 474 q -11 630 -53 587 q 110 674 31 674 q 156 669 139 674 q 188 656 174 664 l 188 590 q 159 601 173 597 q 128 605 146 605 q 74 584 92 605 q 56 533 56 563 q 76 481 56 501 q 136 449 97 460 q 232 438 176 438 q 328 449 284 438 q 409 481 373 460 q 474 531 446 502 l 505 467 q 432 408 478 433 q 334 369 387 383 q 230 355 281 355 z "},"Ľ":{"ha":849,"x_min":48,"x_max":829,"o":"m 48 0 l 48 60 l 158 76 l 158 953 l 50 971 l 50 1032 l 447 1032 l 447 971 l 317 953 l 317 75 l 658 90 l 748 326 l 829 314 l 781 0 l 48 0 m 688 761 l 617 761 l 613 771 q 619 838 617 799 q 621 921 621 876 q 617 1002 621 968 q 605 1056 613 1037 l 610 1077 l 730 1077 q 739 1034 736 1059 q 741 968 741 1009 q 734 899 741 938 q 715 823 727 860 q 688 761 703 785 z "},"Ḽ":{"ha":849,"x_min":48,"x_max":829,"o":"m 48 0 l 48 60 l 158 76 l 158 953 l 50 971 l 50 1032 l 447 1032 l 447 971 l 317 953 l 317 75 l 658 90 l 748 326 l 829 314 l 781 0 l 48 0 m 365 -73 l 482 -73 l 667 -300 l 619 -337 l 424 -182 l 228 -337 l 181 -300 l 365 -73 z "},"Ļ":{"ha":849,"x_min":48,"x_max":829,"o":"m 48 0 l 48 60 l 158 76 l 158 953 l 50 971 l 50 1032 l 447 1032 l 447 971 l 317 953 l 317 75 l 658 90 l 748 326 l 829 314 l 781 0 l 48 0 m 510 -187 q 489 -269 510 -231 q 440 -334 467 -308 q 396 -369 413 -360 l 394 -369 l 353 -345 l 353 -337 q 385 -299 372 -325 q 397 -256 397 -274 q 389 -224 397 -236 q 367 -204 381 -212 q 347 -183 356 -196 q 338 -149 338 -171 q 351 -109 338 -124 q 382 -88 364 -94 q 414 -81 400 -81 l 417 -81 q 485 -109 459 -81 q 510 -187 510 -137 z "},"Ŀ":{"ha":936,"x_min":48,"x_max":947,"o":"m 48 0 l 48 60 l 158 76 l 158 953 l 50 971 l 50 1032 l 447 1032 l 447 971 l 317 953 l 317 75 l 658 90 l 748 326 l 829 314 l 781 0 l 48 0 m 843 478 q 782 503 808 478 q 756 567 756 527 q 787 639 756 610 q 859 667 818 667 q 925 640 903 667 q 947 578 947 613 q 916 506 947 533 q 843 478 886 478 z "},"Ḷ":{"ha":849,"x_min":48,"x_max":829,"o":"m 48 0 l 48 60 l 158 76 l 158 953 l 50 971 l 50 1032 l 447 1032 l 447 971 l 317 953 l 317 75 l 658 90 l 748 326 l 829 314 l 781 0 l 48 0 m 415 -285 q 349 -259 372 -285 q 325 -195 325 -233 q 351 -122 325 -153 q 426 -90 377 -90 l 427 -90 q 494 -116 471 -90 q 517 -181 517 -142 q 491 -254 517 -223 q 416 -285 465 -285 l 415 -285 z "},"Ḹ":{"ha":849,"x_min":39,"x_max":829,"o":"m 48 0 l 48 60 l 158 76 l 158 953 l 50 971 l 50 1032 l 447 1032 l 447 971 l 317 953 l 317 75 l 658 90 l 748 326 l 829 314 l 781 0 l 48 0 m 415 -285 q 349 -259 372 -285 q 325 -195 325 -233 q 351 -122 325 -153 q 426 -90 377 -90 l 427 -90 q 494 -116 471 -90 q 517 -181 517 -142 q 491 -254 517 -223 q 416 -285 465 -285 l 415 -285 m 434 1241 l 434 1146 l 39 1146 l 39 1241 l 434 1241 z "},"Ⱡ":{"ha":849,"x_min":45,"x_max":829,"o":"m 48 0 l 48 60 l 158 76 l 158 953 l 50 971 l 50 1032 l 447 1032 l 447 971 l 317 953 l 317 75 l 658 90 l 748 326 l 829 314 l 781 0 l 48 0 m 46 658 l 46 730 l 445 730 l 445 658 l 46 658 m 46 453 l 46 525 l 445 525 l 445 453 l 46 453 z "},"ǈ":{"ha":1244,"x_min":48,"x_max":1126,"o":"m 48 0 l 48 60 l 158 76 l 158 953 l 50 971 l 50 1032 l 447 1032 l 447 971 l 317 953 l 317 75 l 658 90 l 748 326 l 829 314 l 781 0 l 48 0 m 874 -337 q 847 -336 863 -337 q 817 -335 831 -336 q 799 -331 803 -333 l 792 -272 q 824 -269 802 -272 q 868 -255 846 -265 q 927 -201 905 -240 q 958 -102 949 -162 q 967 40 967 -42 l 967 644 l 866 671 l 866 737 l 1076 769 l 1086 769 l 1115 747 l 1115 4 q 1095 -142 1115 -79 q 1043 -247 1076 -204 q 966 -312 1009 -290 q 874 -337 922 -334 m 1024 882 q 958 909 981 882 q 935 974 935 935 q 960 1047 935 1016 q 1035 1078 986 1078 l 1036 1078 q 1102 1052 1079 1078 q 1126 988 1126 1026 q 1100 914 1126 946 q 1025 882 1074 882 l 1024 882 z "},"Ḻ":{"ha":849,"x_min":48,"x_max":829,"o":"m 48 0 l 48 60 l 158 76 l 158 953 l 50 971 l 50 1032 l 447 1032 l 447 971 l 317 953 l 317 75 l 658 90 l 748 326 l 829 314 l 781 0 l 48 0 m 622 -127 l 622 -227 l 227 -227 l 227 -127 l 622 -127 z "},"Ɫ":{"ha":849,"x_min":26,"x_max":829,"o":"m 48 0 l 48 60 l 158 76 l 158 953 l 50 971 l 50 1032 l 447 1032 l 447 971 l 317 953 l 317 75 l 658 90 l 748 326 l 829 314 l 781 0 l 48 0 m 26 458 q 76 572 40 531 q 169 613 112 613 q 231 599 203 613 q 283 569 259 586 q 330 540 307 553 q 375 526 352 526 q 423 547 406 526 q 451 605 440 568 l 506 574 q 457 462 492 503 q 364 421 421 421 q 301 434 329 421 q 250 464 274 447 q 203 493 226 481 q 157 506 181 506 q 110 486 126 506 q 81 428 93 465 l 26 458 z "},"Ł":{"ha":849,"x_min":48,"x_max":829,"o":"m 48 0 l 48 60 l 158 76 l 158 953 l 50 971 l 50 1032 l 447 1032 l 447 971 l 317 953 l 317 75 l 658 90 l 748 326 l 829 314 l 781 0 l 48 0 m 50 408 l 50 494 l 200 564 l 262 589 l 615 754 l 615 663 l 260 500 l 200 475 l 50 408 z "},"M":{"ha":1350,"x_min":1,"x_max":1348,"o":"m 115 74 l 230 952 l 82 971 l 82 1032 l 452 1032 l 632 403 l 678 217 l 721 403 l 901 1032 l 1267 1032 l 1267 971 l 1117 952 l 1231 76 l 1348 60 l 1348 0 l 944 0 l 944 60 l 1067 75 l 1000 707 l 974 972 l 914 759 l 702 47 l 592 47 l 383 713 l 311 972 l 283 707 l 217 75 l 351 60 l 351 0 l 1 0 l 1 60 l 115 74 z "},"Ḿ":{"ha":1350,"x_min":1,"x_max":1348,"o":"m 115 74 l 230 952 l 82 971 l 82 1032 l 452 1032 l 632 403 l 678 217 l 721 403 l 901 1032 l 1267 1032 l 1267 971 l 1117 952 l 1231 76 l 1348 60 l 1348 0 l 944 0 l 944 60 l 1067 75 l 1000 707 l 974 972 l 914 759 l 702 47 l 592 47 l 383 713 l 311 972 l 283 707 l 217 75 l 351 60 l 351 0 l 1 0 l 1 60 l 115 74 m 675 1110 l 626 1152 l 798 1373 l 901 1290 q 855 1239 882 1265 q 797 1188 828 1213 q 734 1142 765 1163 q 676 1110 703 1122 l 675 1110 z "},"Ṁ":{"ha":1350,"x_min":1,"x_max":1348,"o":"m 115 74 l 230 952 l 82 971 l 82 1032 l 452 1032 l 632 403 l 678 217 l 721 403 l 901 1032 l 1267 1032 l 1267 971 l 1117 952 l 1231 76 l 1348 60 l 1348 0 l 944 0 l 944 60 l 1067 75 l 1000 707 l 974 972 l 914 759 l 702 47 l 592 47 l 383 713 l 311 972 l 283 707 l 217 75 l 351 60 l 351 0 l 1 0 l 1 60 l 115 74 m 670 1126 q 602 1152 626 1126 q 578 1217 578 1178 q 605 1290 578 1258 q 681 1321 631 1321 l 683 1321 q 750 1295 727 1321 q 774 1231 774 1269 q 748 1158 774 1189 q 672 1126 722 1126 l 670 1126 z "},"Ṃ":{"ha":1350,"x_min":1,"x_max":1348,"o":"m 115 74 l 230 952 l 82 971 l 82 1032 l 452 1032 l 632 403 l 678 217 l 721 403 l 901 1032 l 1267 1032 l 1267 971 l 1117 952 l 1231 76 l 1348 60 l 1348 0 l 944 0 l 944 60 l 1067 75 l 1000 707 l 974 972 l 914 759 l 702 47 l 592 47 l 383 713 l 311 972 l 283 707 l 217 75 l 351 60 l 351 0 l 1 0 l 1 60 l 115 74 m 652 -285 q 586 -259 610 -285 q 563 -195 563 -233 q 589 -122 563 -153 q 663 -90 615 -90 l 665 -90 q 732 -116 708 -90 q 755 -181 755 -142 q 729 -254 755 -223 q 653 -285 703 -285 l 652 -285 z "},"Ɱ":{"ha":1350,"x_min":1,"x_max":1264,"o":"m 906 -350 l 871 -296 q 982 -228 938 -274 q 1047 -114 1026 -181 q 1068 39 1068 -46 q 1066 94 1068 63 q 1060 165 1065 124 l 1001 707 l 975 972 l 917 759 l 700 47 l 590 47 l 384 713 l 311 972 l 283 707 l 217 75 l 349 60 l 349 0 l 1 0 l 1 60 l 115 74 l 229 952 l 82 971 l 82 1032 l 449 1032 l 630 403 l 676 217 l 719 403 l 902 1032 l 1264 1032 l 1264 971 l 1119 952 l 1217 198 q 1226 121 1223 158 q 1229 47 1229 85 q 1189 -148 1229 -65 q 1075 -281 1148 -230 q 906 -350 1003 -331 z "},"Ɯ":{"ha":1436,"x_min":28,"x_max":1385,"o":"m 1385 1032 l 1385 972 l 1292 958 l 1292 104 l 1385 78 l 1385 14 l 1188 -17 l 1158 -6 l 1146 40 l 1147 100 q 1059 40 1108 67 q 958 -3 1011 13 q 853 -19 906 -19 q 763 -7 801 -19 q 699 30 725 6 q 658 91 673 54 q 575 33 622 58 q 476 -5 528 8 q 371 -19 424 -19 q 235 10 291 -19 q 151 106 180 39 q 123 287 123 173 l 123 958 l 28 972 l 28 1032 l 370 1032 l 370 972 l 281 958 l 281 285 q 295 160 281 206 q 342 97 310 115 q 427 78 374 78 q 504 85 466 78 q 577 108 542 93 q 642 145 613 124 q 634 179 638 158 q 630 226 631 199 q 628 288 628 253 l 628 958 l 528 972 l 528 1032 l 882 1032 l 882 972 l 786 958 l 786 283 q 797 160 786 205 q 836 97 807 115 q 919 78 865 78 q 990 88 953 78 q 1063 114 1026 97 q 1134 156 1100 132 l 1134 958 l 1037 972 l 1037 1032 l 1385 1032 z "},"N":{"ha":1049,"x_min":41,"x_max":1031,"o":"m 41 0 l 41 60 l 148 77 l 151 941 q 118 952 136 947 q 80 964 99 958 q 42 971 60 969 l 42 1032 l 306 1032 l 753 353 l 834 199 l 831 951 l 714 971 l 714 1032 l 1031 1032 l 1031 971 l 923 951 l 919 0 l 801 0 l 335 705 l 237 878 l 240 77 l 367 60 l 367 0 l 41 0 z "},"Ǌ":{"ha":1549,"x_min":41,"x_max":1499,"o":"m 41 0 l 41 60 l 148 77 l 151 941 q 118 952 136 947 q 80 964 99 958 q 42 971 60 969 l 42 1032 l 306 1032 l 753 353 l 834 199 l 831 951 l 714 971 l 714 1032 l 1031 1032 l 1031 971 l 923 951 l 919 0 l 801 0 l 335 705 l 237 878 l 240 77 l 367 60 l 367 0 l 41 0 m 1022 -196 q 1094 -161 1060 -185 q 1155 -100 1128 -137 q 1196 -16 1181 -64 q 1214 61 1208 19 q 1222 164 1219 103 q 1224 318 1224 225 l 1224 952 l 1099 971 l 1099 1032 l 1499 1032 l 1499 971 l 1381 952 l 1381 374 q 1380 172 1381 260 q 1365 26 1379 85 q 1303 -109 1348 -51 q 1193 -202 1258 -166 q 1056 -250 1129 -237 l 1022 -196 z "},"Ń":{"ha":1049,"x_min":41,"x_max":1031,"o":"m 41 0 l 41 60 l 148 77 l 151 941 q 118 952 136 947 q 80 964 99 958 q 42 971 60 969 l 42 1032 l 306 1032 l 753 353 l 834 199 l 831 951 l 714 971 l 714 1032 l 1031 1032 l 1031 971 l 923 951 l 919 0 l 801 0 l 335 705 l 237 878 l 240 77 l 367 60 l 367 0 l 41 0 m 535 1110 l 485 1152 l 658 1373 l 760 1290 q 715 1239 742 1265 q 656 1188 688 1213 q 594 1142 625 1163 q 536 1110 563 1122 l 535 1110 z "},"Ň":{"ha":1049,"x_min":41,"x_max":1031,"o":"m 41 0 l 41 60 l 148 77 l 151 941 q 118 952 136 947 q 80 964 99 958 q 42 971 60 969 l 42 1032 l 306 1032 l 753 353 l 834 199 l 831 951 l 714 971 l 714 1032 l 1031 1032 l 1031 971 l 923 951 l 919 0 l 801 0 l 335 705 l 237 878 l 240 77 l 367 60 l 367 0 l 41 0 m 481 1115 l 308 1315 l 356 1351 l 538 1216 l 720 1351 l 768 1315 l 595 1115 l 481 1115 z "},"Ṋ":{"ha":1049,"x_min":41,"x_max":1031,"o":"m 41 0 l 41 60 l 148 77 l 151 941 q 118 952 136 947 q 80 964 99 958 q 42 971 60 969 l 42 1032 l 306 1032 l 753 353 l 834 199 l 831 951 l 714 971 l 714 1032 l 1031 1032 l 1031 971 l 923 951 l 919 0 l 801 0 l 335 705 l 237 878 l 240 77 l 367 60 l 367 0 l 41 0 m 466 -73 l 583 -73 l 767 -300 l 719 -337 l 524 -182 l 329 -337 l 281 -300 l 466 -73 z "},"Ņ":{"ha":1049,"x_min":41,"x_max":1031,"o":"m 41 0 l 41 60 l 148 77 l 151 941 q 118 952 136 947 q 80 964 99 958 q 42 971 60 969 l 42 1032 l 306 1032 l 753 353 l 834 199 l 831 951 l 714 971 l 714 1032 l 1031 1032 l 1031 971 l 923 951 l 919 0 l 801 0 l 335 705 l 237 878 l 240 77 l 367 60 l 367 0 l 41 0 m 611 -187 q 589 -269 611 -231 q 540 -334 567 -308 q 497 -369 513 -360 l 494 -369 l 454 -345 l 453 -337 q 485 -299 473 -325 q 498 -256 498 -274 q 490 -224 498 -236 q 468 -204 481 -212 q 448 -183 457 -196 q 438 -149 438 -171 q 451 -109 438 -124 q 483 -88 465 -94 q 515 -81 501 -81 l 518 -81 q 585 -109 560 -81 q 611 -187 611 -137 z "},"Ṅ":{"ha":1049,"x_min":41,"x_max":1031,"o":"m 41 0 l 41 60 l 148 77 l 151 941 q 118 952 136 947 q 80 964 99 958 q 42 971 60 969 l 42 1032 l 306 1032 l 753 353 l 834 199 l 831 951 l 714 971 l 714 1032 l 1031 1032 l 1031 971 l 923 951 l 919 0 l 801 0 l 335 705 l 237 878 l 240 77 l 367 60 l 367 0 l 41 0 m 530 1126 q 462 1152 485 1126 q 438 1217 438 1178 q 465 1290 438 1258 q 541 1321 491 1321 l 542 1321 q 610 1295 587 1321 q 633 1231 633 1269 q 607 1158 633 1189 q 531 1126 581 1126 l 530 1126 z "},"Ṇ":{"ha":1049,"x_min":41,"x_max":1031,"o":"m 41 0 l 41 60 l 148 77 l 151 941 q 118 952 136 947 q 80 964 99 958 q 42 971 60 969 l 42 1032 l 306 1032 l 753 353 l 834 199 l 831 951 l 714 971 l 714 1032 l 1031 1032 l 1031 971 l 923 951 l 919 0 l 801 0 l 335 705 l 237 878 l 240 77 l 367 60 l 367 0 l 41 0 m 515 -285 q 449 -259 473 -285 q 426 -195 426 -233 q 452 -122 426 -153 q 526 -90 478 -90 l 528 -90 q 595 -116 572 -90 q 618 -181 618 -142 q 592 -254 618 -223 q 517 -285 566 -285 l 515 -285 z "},"Ǹ":{"ha":1049,"x_min":41,"x_max":1031,"o":"m 41 0 l 41 60 l 148 77 l 151 941 q 118 952 136 947 q 80 964 99 958 q 42 971 60 969 l 42 1032 l 306 1032 l 753 353 l 834 199 l 831 951 l 714 971 l 714 1032 l 1031 1032 l 1031 971 l 923 951 l 919 0 l 801 0 l 335 705 l 237 878 l 240 77 l 367 60 l 367 0 l 41 0 m 541 1109 q 484 1142 515 1122 q 422 1187 453 1162 q 363 1238 390 1212 q 317 1289 336 1265 l 420 1372 l 592 1151 l 542 1109 l 541 1109 z "},"Ɲ":{"ha":1035,"x_min":-42,"x_max":1017,"o":"m 22 -248 q -14 -245 1 -248 q -42 -237 -29 -242 l -42 -110 q 2 -127 -23 -120 q 56 -133 27 -133 q 93 -126 78 -133 q 117 -99 108 -118 q 131 -47 126 -81 q 135 38 135 -14 l 137 941 q 103 952 122 947 q 65 964 85 958 q 27 971 46 969 l 27 1032 l 292 1032 l 738 353 l 819 199 l 817 951 l 699 971 l 699 1032 l 1017 1032 l 1017 971 l 908 951 l 906 0 l 787 0 l 321 705 l 222 878 l 222 31 q 208 -86 222 -34 q 166 -174 193 -137 q 102 -229 139 -210 q 22 -248 66 -248 z "},"ǋ":{"ha":1460,"x_min":41,"x_max":1341,"o":"m 41 0 l 41 60 l 148 77 l 151 941 q 118 952 136 947 q 80 964 99 958 q 42 971 60 969 l 42 1032 l 306 1032 l 753 353 l 834 199 l 831 951 l 714 971 l 714 1032 l 1031 1032 l 1031 971 l 923 951 l 919 0 l 801 0 l 335 705 l 237 878 l 240 77 l 367 60 l 367 0 l 41 0 m 1089 -337 q 1062 -336 1078 -337 q 1032 -335 1046 -336 q 1014 -331 1018 -333 l 1008 -272 q 1039 -269 1017 -272 q 1083 -255 1061 -265 q 1142 -201 1120 -240 q 1173 -102 1164 -162 q 1183 40 1183 -42 l 1182 644 l 1081 671 l 1081 737 l 1292 769 l 1301 769 l 1330 747 l 1330 4 q 1311 -142 1330 -79 q 1258 -247 1292 -204 q 1181 -312 1224 -290 q 1089 -337 1138 -334 m 1239 882 q 1173 909 1197 882 q 1150 974 1150 935 q 1176 1047 1150 1016 q 1250 1078 1201 1078 l 1251 1078 q 1318 1052 1294 1078 q 1341 988 1341 1026 q 1315 914 1341 946 q 1240 882 1289 882 l 1239 882 z "},"Ƞ":{"ha":1010,"x_min":49,"x_max":1044,"o":"m 668 -331 l 668 -271 l 781 -257 l 781 728 q 764 855 781 808 q 710 922 747 901 q 616 942 674 942 q 456 908 531 942 q 313 813 381 874 l 313 75 l 431 60 l 431 0 l 49 0 l 49 60 l 155 75 l 155 949 l 53 967 l 53 1027 l 265 1045 l 280 1045 l 308 1023 l 308 965 l 303 881 q 422 972 363 935 q 542 1028 481 1009 q 668 1047 603 1047 q 819 1014 759 1047 q 908 909 878 980 q 938 726 938 838 l 938 -257 l 1044 -271 l 1044 -331 l 668 -331 z "},"Ṉ":{"ha":1049,"x_min":41,"x_max":1031,"o":"m 41 0 l 41 60 l 148 77 l 151 941 q 118 952 136 947 q 80 964 99 958 q 42 971 60 969 l 42 1032 l 306 1032 l 753 353 l 834 199 l 831 951 l 714 971 l 714 1032 l 1031 1032 l 1031 971 l 923 951 l 919 0 l 801 0 l 335 705 l 237 878 l 240 77 l 367 60 l 367 0 l 41 0 m 722 -127 l 722 -227 l 327 -227 l 327 -127 l 722 -127 z "},"Ñ":{"ha":1049,"x_min":41,"x_max":1031,"o":"m 41 0 l 41 60 l 148 77 l 151 941 q 118 952 136 947 q 80 964 99 958 q 42 971 60 969 l 42 1032 l 306 1032 l 753 353 l 834 199 l 831 951 l 714 971 l 714 1032 l 1031 1032 l 1031 971 l 923 951 l 919 0 l 801 0 l 335 705 l 237 878 l 240 77 l 367 60 l 367 0 l 41 0 m 614 1124 q 558 1138 581 1124 q 518 1169 535 1151 q 485 1202 501 1188 q 447 1216 468 1216 q 405 1192 419 1216 q 378 1133 390 1168 l 326 1160 q 371 1272 335 1231 q 458 1312 407 1312 q 514 1298 492 1312 q 553 1266 536 1284 q 588 1233 571 1247 q 625 1219 605 1219 q 668 1242 653 1219 q 693 1301 683 1265 l 745 1275 q 701 1163 736 1202 q 614 1124 665 1124 z "},"Ŋ":{"ha":1031,"x_min":48,"x_max":939,"o":"m 603 -322 l 597 -262 q 629 -259 607 -263 q 673 -246 651 -256 q 721 -208 701 -234 q 755 -144 741 -182 q 775 -56 769 -106 q 781 52 781 -7 l 781 728 q 765 855 781 808 q 712 922 748 901 q 619 942 676 942 q 509 926 563 942 q 407 882 456 911 q 313 813 358 853 l 313 75 l 431 60 l 431 0 l 48 0 l 48 60 l 155 75 l 155 953 l 53 971 l 53 1032 l 267 1047 l 278 1047 l 308 1025 l 308 967 l 303 880 q 422 972 363 934 q 543 1028 481 1009 q 670 1047 605 1047 q 820 1016 760 1047 q 909 913 879 984 q 939 726 939 842 l 939 43 q 920 -106 939 -38 q 867 -224 901 -174 q 783 -300 832 -273 q 675 -327 735 -327 q 634 -326 654 -327 q 603 -322 614 -326 z "},"O":{"ha":996,"x_min":42,"x_max":953,"o":"m 490 -15 q 240 50 340 -17 q 91 235 140 117 q 42 508 42 354 q 77 731 42 632 q 174 899 111 829 q 322 1007 237 969 q 510 1044 408 1044 q 757 980 658 1044 q 905 800 856 916 q 953 529 953 685 q 919 306 953 406 q 823 135 885 206 q 676 24 761 63 q 490 -15 591 -15 m 496 50 q 645 104 581 50 q 743 264 708 158 q 778 528 778 370 q 746 769 778 669 q 652 924 714 870 q 499 978 590 978 q 351 927 414 978 q 252 771 288 876 q 217 508 217 667 q 250 264 217 367 q 344 106 282 161 q 496 50 406 50 z "},"Ȣ":{"ha":981,"x_min":44,"x_max":937,"o":"m 490 -15 q 239 25 338 -15 q 92 135 140 65 q 44 291 44 204 q 80 430 44 374 q 177 521 116 485 q 311 576 238 556 q 190 620 245 592 q 101 695 134 649 q 67 806 67 741 q 100 918 67 869 q 191 999 133 967 q 324 1043 249 1031 l 352 988 q 263 920 293 965 q 233 807 233 875 q 299 663 233 713 q 492 613 365 613 q 633 636 576 613 q 717 704 689 660 q 745 810 745 748 q 717 923 745 878 q 631 988 690 967 l 659 1043 q 795 998 738 1030 q 884 920 853 967 q 916 813 916 873 q 882 698 916 744 q 793 623 849 651 q 673 579 738 594 q 807 524 747 558 q 902 436 867 490 q 937 302 937 382 q 884 135 937 206 q 732 24 831 64 q 490 -15 632 -15 m 490 50 q 693 114 623 50 q 763 303 763 178 q 731 430 763 375 q 637 516 698 485 q 491 547 576 547 q 342 514 401 547 q 253 425 282 481 q 224 296 224 368 q 252 163 224 218 q 340 79 281 108 q 490 50 399 50 z "},"Ó":{"ha":996,"x_min":42,"x_max":953,"o":"m 490 -15 q 240 50 340 -17 q 91 235 140 117 q 42 508 42 354 q 77 731 42 632 q 174 899 111 829 q 322 1007 237 969 q 510 1044 408 1044 q 757 980 658 1044 q 905 800 856 916 q 953 529 953 685 q 919 306 953 406 q 823 135 885 206 q 676 24 761 63 q 490 -15 591 -15 m 496 50 q 645 104 581 50 q 743 264 708 158 q 778 528 778 370 q 746 769 778 669 q 652 924 714 870 q 499 978 590 978 q 351 927 414 978 q 252 771 288 876 q 217 508 217 667 q 250 264 217 367 q 344 106 282 161 q 496 50 406 50 m 497 1110 l 447 1152 l 619 1373 l 722 1290 q 676 1239 703 1265 q 618 1188 649 1213 q 556 1142 587 1163 q 498 1110 524 1122 l 497 1110 z "},"Ɵ":{"ha":996,"x_min":42,"x_max":953,"o":"m 490 -15 q 240 50 340 -17 q 91 235 140 117 q 42 508 42 354 q 77 731 42 632 q 174 899 111 829 q 322 1007 237 969 q 510 1044 408 1044 q 757 980 658 1044 q 905 800 856 916 q 953 529 953 685 q 919 306 953 406 q 823 135 885 206 q 676 24 761 63 q 490 -15 591 -15 m 496 50 q 645 104 581 50 q 743 264 708 158 q 778 528 778 370 q 746 769 778 669 q 652 924 714 870 q 499 978 590 978 q 351 927 414 978 q 252 771 288 876 q 217 508 217 667 q 250 264 217 367 q 344 106 282 161 q 496 50 406 50 m 896 552 l 896 481 l 103 481 l 103 552 l 896 552 z "},"Ŏ":{"ha":996,"x_min":42,"x_max":953,"o":"m 490 -15 q 240 50 340 -17 q 91 235 140 117 q 42 508 42 354 q 77 731 42 632 q 174 899 111 829 q 322 1007 237 969 q 510 1044 408 1044 q 757 980 658 1044 q 905 800 856 916 q 953 529 953 685 q 919 306 953 406 q 823 135 885 206 q 676 24 761 63 q 490 -15 591 -15 m 496 50 q 645 104 581 50 q 743 264 708 158 q 778 528 778 370 q 746 769 778 669 q 652 924 714 870 q 499 978 590 978 q 351 927 414 978 q 252 771 288 876 q 217 508 217 667 q 250 264 217 367 q 344 106 282 161 q 496 50 406 50 m 498 1120 q 393 1143 438 1120 q 321 1207 347 1165 q 295 1302 295 1248 q 296 1319 295 1311 q 298 1335 297 1326 l 366 1335 q 366 1325 366 1331 q 367 1313 367 1319 q 386 1268 372 1289 q 426 1233 399 1247 q 498 1220 453 1220 q 570 1233 543 1220 q 611 1268 597 1247 q 628 1313 625 1289 q 631 1325 631 1319 q 631 1335 631 1331 l 699 1335 q 701 1319 700 1326 q 701 1302 701 1311 q 675 1207 701 1248 q 604 1143 649 1165 q 498 1120 558 1120 z "},"Ǒ":{"ha":996,"x_min":42,"x_max":953,"o":"m 490 -15 q 240 50 340 -17 q 91 235 140 117 q 42 508 42 354 q 77 731 42 632 q 174 899 111 829 q 322 1007 237 969 q 510 1044 408 1044 q 757 980 658 1044 q 905 800 856 916 q 953 529 953 685 q 919 306 953 406 q 823 135 885 206 q 676 24 761 63 q 490 -15 591 -15 m 496 50 q 645 104 581 50 q 743 264 708 158 q 778 528 778 370 q 746 769 778 669 q 652 924 714 870 q 499 978 590 978 q 351 927 414 978 q 252 771 288 876 q 217 508 217 667 q 250 264 217 367 q 344 106 282 161 q 496 50 406 50 m 443 1115 l 270 1315 l 318 1351 l 501 1216 l 683 1351 l 731 1315 l 558 1115 l 443 1115 z "},"Ô":{"ha":996,"x_min":42,"x_max":953,"o":"m 490 -15 q 240 50 340 -17 q 91 235 140 117 q 42 508 42 354 q 77 731 42 632 q 174 899 111 829 q 322 1007 237 969 q 510 1044 408 1044 q 757 980 658 1044 q 905 800 856 916 q 953 529 953 685 q 919 306 953 406 q 823 135 885 206 q 676 24 761 63 q 490 -15 591 -15 m 496 50 q 645 104 581 50 q 743 264 708 158 q 778 528 778 370 q 746 769 778 669 q 652 924 714 870 q 499 978 590 978 q 351 927 414 978 q 252 771 288 876 q 217 508 217 667 q 250 264 217 367 q 344 106 282 161 q 496 50 406 50 m 316 1104 l 268 1140 l 441 1343 l 556 1343 l 728 1141 l 681 1104 l 499 1243 l 316 1104 z "},"Ố":{"ha":996,"x_min":42,"x_max":953,"o":"m 490 -15 q 240 50 340 -17 q 91 235 140 117 q 42 508 42 354 q 77 731 42 632 q 174 899 111 829 q 322 1007 237 969 q 510 1044 408 1044 q 757 980 658 1044 q 905 800 856 916 q 953 529 953 685 q 919 306 953 406 q 823 135 885 206 q 676 24 761 63 q 490 -15 591 -15 m 496 50 q 645 104 581 50 q 743 264 708 158 q 778 528 778 370 q 746 769 778 669 q 652 924 714 870 q 499 978 590 978 q 351 927 414 978 q 252 771 288 876 q 217 508 217 667 q 250 264 217 367 q 344 106 282 161 q 496 50 406 50 m 322 1108 l 272 1146 l 447 1331 l 551 1331 l 726 1146 l 676 1108 l 499 1229 l 322 1108 m 690 1291 l 689 1291 l 644 1329 l 785 1510 l 872 1444 q 822 1387 853 1416 q 756 1332 790 1358 q 690 1291 721 1307 z "},"Ộ":{"ha":996,"x_min":42,"x_max":953,"o":"m 490 -15 q 240 50 340 -17 q 91 235 140 117 q 42 508 42 354 q 77 731 42 632 q 174 899 111 829 q 322 1007 237 969 q 510 1044 408 1044 q 757 980 658 1044 q 905 800 856 916 q 953 529 953 685 q 919 306 953 406 q 823 135 885 206 q 676 24 761 63 q 490 -15 591 -15 m 496 50 q 645 104 581 50 q 743 264 708 158 q 778 528 778 370 q 746 769 778 669 q 652 924 714 870 q 499 978 590 978 q 351 927 414 978 q 252 771 288 876 q 217 508 217 667 q 250 264 217 367 q 344 106 282 161 q 496 50 406 50 m 488 -285 q 422 -259 446 -285 q 399 -195 399 -233 q 425 -122 399 -153 q 499 -90 451 -90 l 501 -90 q 568 -116 544 -90 q 591 -181 591 -142 q 565 -254 591 -223 q 490 -285 539 -285 l 488 -285 m 316 1104 l 268 1140 l 441 1343 l 556 1343 l 728 1141 l 681 1104 l 499 1243 l 316 1104 z "},"Ồ":{"ha":996,"x_min":42,"x_max":953,"o":"m 490 -15 q 240 50 340 -17 q 91 235 140 117 q 42 508 42 354 q 77 731 42 632 q 174 899 111 829 q 322 1007 237 969 q 510 1044 408 1044 q 757 980 658 1044 q 905 800 856 916 q 953 529 953 685 q 919 306 953 406 q 823 135 885 206 q 676 24 761 63 q 490 -15 591 -15 m 496 50 q 645 104 581 50 q 743 264 708 158 q 778 528 778 370 q 746 769 778 669 q 652 924 714 870 q 499 978 590 978 q 351 927 414 978 q 252 771 288 876 q 217 508 217 667 q 250 264 217 367 q 344 106 282 161 q 496 50 406 50 m 322 1108 l 272 1146 l 447 1331 l 551 1331 l 726 1146 l 676 1108 l 499 1229 l 322 1108 m 728 1291 q 663 1333 697 1307 q 597 1387 628 1358 q 546 1444 566 1416 l 633 1510 l 774 1329 l 729 1291 l 728 1291 z "},"Ổ":{"ha":996,"x_min":42,"x_max":953,"o":"m 490 -15 q 240 50 340 -17 q 91 235 140 117 q 42 508 42 354 q 77 731 42 632 q 174 899 111 829 q 322 1007 237 969 q 510 1044 408 1044 q 757 980 658 1044 q 905 800 856 916 q 953 529 953 685 q 919 306 953 406 q 823 135 885 206 q 676 24 761 63 q 490 -15 591 -15 m 496 50 q 645 104 581 50 q 743 264 708 158 q 778 528 778 370 q 746 769 778 669 q 652 924 714 870 q 499 978 590 978 q 351 927 414 978 q 252 771 288 876 q 217 508 217 667 q 250 264 217 367 q 344 106 282 161 q 496 50 406 50 m 320 1108 l 270 1146 l 445 1331 l 549 1331 l 724 1146 l 674 1108 l 497 1229 l 320 1108 m 679 1291 q 667 1313 672 1302 q 661 1336 661 1324 q 671 1366 661 1354 q 694 1388 681 1378 q 717 1410 707 1399 q 726 1439 726 1422 q 710 1470 726 1457 q 665 1483 694 1483 q 637 1480 650 1483 q 613 1472 624 1478 l 611 1552 q 643 1562 624 1558 q 685 1566 662 1566 q 785 1535 747 1566 q 824 1460 824 1505 q 811 1411 824 1431 q 782 1378 799 1392 q 747 1351 764 1364 q 728 1326 730 1340 q 731 1295 726 1313 l 679 1291 z "},"Ỗ":{"ha":996,"x_min":42,"x_max":953,"o":"m 490 -15 q 240 50 340 -17 q 91 235 140 117 q 42 508 42 354 q 77 731 42 632 q 174 899 111 829 q 322 1007 237 969 q 510 1044 408 1044 q 757 980 658 1044 q 905 800 856 916 q 953 529 953 685 q 919 306 953 406 q 823 135 885 206 q 676 24 761 63 q 490 -15 591 -15 m 496 50 q 645 104 581 50 q 743 264 708 158 q 778 528 778 370 q 746 769 778 669 q 652 924 714 870 q 499 978 590 978 q 351 927 414 978 q 252 771 288 876 q 217 508 217 667 q 250 264 217 367 q 344 106 282 161 q 496 50 406 50 m 321 1108 l 271 1146 l 446 1331 l 550 1331 l 725 1146 l 675 1108 l 498 1229 l 321 1108 m 575 1387 q 510 1405 538 1387 q 460 1440 483 1422 q 416 1458 438 1458 q 379 1443 392 1458 q 356 1401 367 1427 l 308 1421 q 348 1513 317 1475 q 426 1551 380 1551 q 488 1534 461 1551 q 537 1498 514 1516 q 585 1481 560 1481 q 621 1495 608 1481 q 643 1537 634 1510 l 692 1517 q 652 1425 683 1463 q 575 1387 620 1387 z "},"Ȍ":{"ha":996,"x_min":42,"x_max":953,"o":"m 490 -15 q 240 50 340 -17 q 91 235 140 117 q 42 508 42 354 q 77 731 42 632 q 174 899 111 829 q 322 1007 237 969 q 510 1044 408 1044 q 757 980 658 1044 q 905 800 856 916 q 953 529 953 685 q 919 306 953 406 q 823 135 885 206 q 676 24 761 63 q 490 -15 591 -15 m 496 50 q 645 104 581 50 q 743 264 708 158 q 778 528 778 370 q 746 769 778 669 q 652 924 714 870 q 499 978 590 978 q 351 927 414 978 q 252 771 288 876 q 217 508 217 667 q 250 264 217 367 q 344 106 282 161 q 496 50 406 50 m 372 1110 q 317 1147 347 1124 q 255 1198 286 1170 q 196 1255 224 1226 q 151 1309 169 1283 l 246 1381 l 424 1152 l 373 1110 l 372 1110 m 633 1110 q 561 1164 600 1130 q 485 1237 522 1198 q 424 1310 449 1276 l 520 1382 l 685 1149 l 634 1110 l 633 1110 z "},"Ö":{"ha":996,"x_min":42,"x_max":953,"o":"m 490 -15 q 240 50 340 -17 q 91 235 140 117 q 42 508 42 354 q 77 731 42 632 q 174 899 111 829 q 322 1007 237 969 q 510 1044 408 1044 q 757 980 658 1044 q 905 800 856 916 q 953 529 953 685 q 919 306 953 406 q 823 135 885 206 q 676 24 761 63 q 490 -15 591 -15 m 496 50 q 645 104 581 50 q 743 264 708 158 q 778 528 778 370 q 746 769 778 669 q 652 924 714 870 q 499 978 590 978 q 351 927 414 978 q 252 771 288 876 q 217 508 217 667 q 250 264 217 367 q 344 106 282 161 q 496 50 406 50 m 363 1126 q 305 1152 325 1126 q 285 1216 285 1178 q 308 1289 285 1257 q 374 1321 331 1321 l 375 1321 q 433 1294 413 1321 q 453 1231 453 1268 q 430 1158 453 1190 q 364 1126 406 1126 l 363 1126 m 622 1126 q 565 1152 585 1126 q 544 1216 544 1178 q 567 1289 544 1257 q 633 1321 590 1321 l 634 1321 q 692 1294 672 1321 q 713 1231 713 1268 q 689 1158 713 1190 q 624 1126 666 1126 l 622 1126 z "},"Ȫ":{"ha":996,"x_min":42,"x_max":953,"o":"m 490 -15 q 240 50 340 -17 q 91 235 140 117 q 42 508 42 354 q 77 731 42 632 q 174 899 111 829 q 322 1007 237 969 q 510 1044 408 1044 q 757 980 658 1044 q 905 800 856 916 q 953 529 953 685 q 919 306 953 406 q 823 135 885 206 q 676 24 761 63 q 490 -15 591 -15 m 496 50 q 645 104 581 50 q 743 264 708 158 q 778 528 778 370 q 746 769 778 669 q 652 924 714 870 q 499 978 590 978 q 351 927 414 978 q 252 771 288 876 q 217 508 217 667 q 250 264 217 367 q 344 106 282 161 q 496 50 406 50 m 363 1126 q 305 1152 325 1126 q 285 1216 285 1178 q 308 1289 285 1257 q 374 1321 331 1321 l 375 1321 q 433 1294 413 1321 q 453 1231 453 1268 q 430 1158 453 1190 q 364 1126 406 1126 l 363 1126 m 622 1126 q 565 1152 585 1126 q 544 1216 544 1178 q 567 1289 544 1257 q 633 1321 590 1321 l 634 1321 q 692 1294 672 1321 q 713 1231 713 1268 q 689 1158 713 1190 q 624 1126 666 1126 l 622 1126 m 696 1475 l 696 1380 l 301 1380 l 301 1475 l 696 1475 z "},"Ȯ":{"ha":996,"x_min":42,"x_max":953,"o":"m 490 -15 q 240 50 340 -17 q 91 235 140 117 q 42 508 42 354 q 77 731 42 632 q 174 899 111 829 q 322 1007 237 969 q 510 1044 408 1044 q 757 980 658 1044 q 905 800 856 916 q 953 529 953 685 q 919 306 953 406 q 823 135 885 206 q 676 24 761 63 q 490 -15 591 -15 m 496 50 q 645 104 581 50 q 743 264 708 158 q 778 528 778 370 q 746 769 778 669 q 652 924 714 870 q 499 978 590 978 q 351 927 414 978 q 252 771 288 876 q 217 508 217 667 q 250 264 217 367 q 344 106 282 161 q 496 50 406 50 m 492 1126 q 424 1152 447 1126 q 400 1217 400 1178 q 426 1290 400 1258 q 503 1321 453 1321 l 504 1321 q 572 1295 549 1321 q 595 1231 595 1269 q 569 1158 595 1189 q 493 1126 543 1126 l 492 1126 z "},"Ȱ":{"ha":996,"x_min":42,"x_max":953,"o":"m 490 -15 q 240 50 340 -17 q 91 235 140 117 q 42 508 42 354 q 77 731 42 632 q 174 899 111 829 q 322 1007 237 969 q 510 1044 408 1044 q 757 980 658 1044 q 905 800 856 916 q 953 529 953 685 q 919 306 953 406 q 823 135 885 206 q 676 24 761 63 q 490 -15 591 -15 m 496 50 q 645 104 581 50 q 743 264 708 158 q 778 528 778 370 q 746 769 778 669 q 652 924 714 870 q 499 978 590 978 q 351 927 414 978 q 252 771 288 876 q 217 508 217 667 q 250 264 217 367 q 344 106 282 161 q 496 50 406 50 m 492 1126 q 424 1152 447 1126 q 400 1217 400 1178 q 426 1290 400 1258 q 503 1321 453 1321 l 504 1321 q 572 1295 549 1321 q 595 1231 595 1269 q 569 1158 595 1189 q 493 1126 543 1126 l 492 1126 m 699 1472 l 699 1376 l 303 1376 l 303 1472 l 699 1472 z "},"Ọ":{"ha":996,"x_min":42,"x_max":953,"o":"m 490 -15 q 240 50 340 -17 q 91 235 140 117 q 42 508 42 354 q 77 731 42 632 q 174 899 111 829 q 322 1007 237 969 q 510 1044 408 1044 q 757 980 658 1044 q 905 800 856 916 q 953 529 953 685 q 919 306 953 406 q 823 135 885 206 q 676 24 761 63 q 490 -15 591 -15 m 496 50 q 645 104 581 50 q 743 264 708 158 q 778 528 778 370 q 746 769 778 669 q 652 924 714 870 q 499 978 590 978 q 351 927 414 978 q 252 771 288 876 q 217 508 217 667 q 250 264 217 367 q 344 106 282 161 q 496 50 406 50 m 488 -285 q 422 -259 446 -285 q 399 -195 399 -233 q 425 -122 399 -153 q 499 -90 451 -90 l 501 -90 q 568 -116 544 -90 q 591 -181 591 -142 q 565 -254 591 -223 q 490 -285 539 -285 l 488 -285 z "},"Ò":{"ha":996,"x_min":42,"x_max":953,"o":"m 490 -15 q 240 50 340 -17 q 91 235 140 117 q 42 508 42 354 q 77 731 42 632 q 174 899 111 829 q 322 1007 237 969 q 510 1044 408 1044 q 757 980 658 1044 q 905 800 856 916 q 953 529 953 685 q 919 306 953 406 q 823 135 885 206 q 676 24 761 63 q 490 -15 591 -15 m 496 50 q 645 104 581 50 q 743 264 708 158 q 778 528 778 370 q 746 769 778 669 q 652 924 714 870 q 499 978 590 978 q 351 927 414 978 q 252 771 288 876 q 217 508 217 667 q 250 264 217 367 q 344 106 282 161 q 496 50 406 50 m 503 1109 q 447 1142 478 1122 q 384 1187 415 1162 q 326 1238 353 1212 q 280 1289 299 1265 l 383 1372 l 555 1151 l 505 1109 l 503 1109 z "},"Ỏ":{"ha":996,"x_min":42,"x_max":953,"o":"m 490 -15 q 240 50 340 -17 q 91 235 140 117 q 42 508 42 354 q 77 731 42 632 q 174 899 111 829 q 322 1007 237 969 q 510 1044 408 1044 q 757 980 658 1044 q 905 800 856 916 q 953 529 953 685 q 919 306 953 406 q 823 135 885 206 q 676 24 761 63 q 490 -15 591 -15 m 496 50 q 645 104 581 50 q 743 264 708 158 q 778 528 778 370 q 746 769 778 669 q 652 924 714 870 q 499 978 590 978 q 351 927 414 978 q 252 771 288 876 q 217 508 217 667 q 250 264 217 367 q 344 106 282 161 q 496 50 406 50 m 456 1107 q 445 1130 449 1118 q 441 1155 441 1141 q 452 1189 441 1175 q 477 1213 463 1202 q 502 1236 491 1224 q 513 1266 513 1249 q 495 1301 513 1290 q 440 1313 478 1313 q 404 1309 424 1313 q 372 1299 384 1306 l 372 1385 q 416 1398 390 1393 q 466 1403 442 1403 q 549 1389 513 1403 q 604 1348 584 1374 q 624 1286 624 1322 q 614 1240 624 1259 q 588 1207 604 1221 q 553 1181 572 1194 q 523 1148 529 1166 q 522 1107 517 1130 l 456 1107 z "},"Ơ":{"ha":996,"x_min":42,"x_max":1021,"o":"m 490 -15 q 240 50 340 -17 q 91 235 140 117 q 42 508 42 354 q 77 731 42 632 q 174 899 111 829 q 322 1007 237 969 q 510 1044 408 1044 q 643 1028 583 1044 q 752 983 703 1013 q 824 1008 796 987 q 869 1058 853 1028 q 892 1117 885 1087 q 899 1168 899 1147 q 898 1189 899 1181 q 896 1201 898 1197 l 1018 1201 q 1020 1186 1019 1194 q 1021 1171 1021 1178 q 998 1050 1021 1103 q 932 965 976 998 q 827 921 889 932 q 922 754 891 853 q 953 529 953 654 q 919 306 953 406 q 823 135 885 206 q 676 24 761 63 q 490 -15 591 -15 m 496 50 q 645 104 581 50 q 743 264 708 158 q 778 528 778 370 q 746 769 778 669 q 652 924 714 870 q 499 978 590 978 q 350 927 414 978 q 251 771 287 876 q 216 508 216 667 q 249 264 216 367 q 343 106 281 161 q 496 50 406 50 z "},"Ớ":{"ha":996,"x_min":42,"x_max":1021,"o":"m 490 -15 q 240 50 340 -17 q 91 235 140 117 q 42 508 42 354 q 77 731 42 632 q 174 899 111 829 q 322 1007 237 969 q 510 1044 408 1044 q 643 1028 583 1044 q 752 983 703 1013 q 824 1008 796 987 q 869 1058 853 1028 q 892 1117 885 1087 q 899 1168 899 1147 q 898 1189 899 1181 q 896 1201 898 1197 l 1018 1201 q 1020 1186 1019 1194 q 1021 1171 1021 1178 q 998 1050 1021 1103 q 932 965 976 998 q 827 921 889 932 q 922 754 891 853 q 953 529 953 654 q 919 306 953 406 q 823 135 885 206 q 676 24 761 63 q 490 -15 591 -15 m 496 50 q 645 104 581 50 q 743 264 708 158 q 778 528 778 370 q 746 769 778 669 q 652 924 714 870 q 499 978 590 978 q 350 927 414 978 q 251 771 287 876 q 216 508 216 667 q 249 264 216 367 q 343 106 281 161 q 496 50 406 50 m 497 1110 l 447 1152 l 619 1373 l 722 1290 q 676 1239 703 1265 q 618 1188 649 1213 q 556 1142 587 1163 q 498 1110 524 1122 l 497 1110 z "},"Ợ":{"ha":996,"x_min":42,"x_max":1021,"o":"m 490 -15 q 240 50 340 -17 q 91 235 140 117 q 42 508 42 354 q 77 731 42 632 q 174 899 111 829 q 322 1007 237 969 q 510 1044 408 1044 q 643 1028 583 1044 q 752 983 703 1013 q 824 1008 796 987 q 869 1058 853 1028 q 892 1117 885 1087 q 899 1168 899 1147 q 898 1189 899 1181 q 896 1201 898 1197 l 1018 1201 q 1020 1186 1019 1194 q 1021 1171 1021 1178 q 998 1050 1021 1103 q 932 965 976 998 q 827 921 889 932 q 922 754 891 853 q 953 529 953 654 q 919 306 953 406 q 823 135 885 206 q 676 24 761 63 q 490 -15 591 -15 m 496 50 q 645 104 581 50 q 743 264 708 158 q 778 528 778 370 q 746 769 778 669 q 652 924 714 870 q 499 978 590 978 q 350 927 414 978 q 251 771 287 876 q 216 508 216 667 q 249 264 216 367 q 343 106 281 161 q 496 50 406 50 m 488 -285 q 422 -259 446 -285 q 399 -195 399 -233 q 425 -122 399 -153 q 499 -90 451 -90 l 501 -90 q 568 -116 544 -90 q 591 -181 591 -142 q 565 -254 591 -223 q 490 -285 539 -285 l 488 -285 z "},"Ờ":{"ha":996,"x_min":42,"x_max":1021,"o":"m 490 -15 q 240 50 340 -17 q 91 235 140 117 q 42 508 42 354 q 77 731 42 632 q 174 899 111 829 q 322 1007 237 969 q 510 1044 408 1044 q 643 1028 583 1044 q 752 983 703 1013 q 824 1008 796 987 q 869 1058 853 1028 q 892 1117 885 1087 q 899 1168 899 1147 q 898 1189 899 1181 q 896 1201 898 1197 l 1018 1201 q 1020 1186 1019 1194 q 1021 1171 1021 1178 q 998 1050 1021 1103 q 932 965 976 998 q 827 921 889 932 q 922 754 891 853 q 953 529 953 654 q 919 306 953 406 q 823 135 885 206 q 676 24 761 63 q 490 -15 591 -15 m 496 50 q 645 104 581 50 q 743 264 708 158 q 778 528 778 370 q 746 769 778 669 q 652 924 714 870 q 499 978 590 978 q 350 927 414 978 q 251 771 287 876 q 216 508 216 667 q 249 264 216 367 q 343 106 281 161 q 496 50 406 50 m 503 1109 q 447 1142 478 1122 q 384 1187 415 1162 q 326 1238 353 1212 q 280 1289 299 1265 l 383 1372 l 555 1151 l 505 1109 l 503 1109 z "},"Ở":{"ha":996,"x_min":42,"x_max":1021,"o":"m 490 -15 q 240 50 340 -17 q 91 235 140 117 q 42 508 42 354 q 77 731 42 632 q 174 899 111 829 q 322 1007 237 969 q 510 1044 408 1044 q 643 1028 583 1044 q 752 983 703 1013 q 824 1008 796 987 q 869 1058 853 1028 q 892 1117 885 1087 q 899 1168 899 1147 q 898 1189 899 1181 q 896 1201 898 1197 l 1018 1201 q 1020 1186 1019 1194 q 1021 1171 1021 1178 q 998 1050 1021 1103 q 932 965 976 998 q 827 921 889 932 q 922 754 891 853 q 953 529 953 654 q 919 306 953 406 q 823 135 885 206 q 676 24 761 63 q 490 -15 591 -15 m 496 50 q 645 104 581 50 q 743 264 708 158 q 778 528 778 370 q 746 769 778 669 q 652 924 714 870 q 499 978 590 978 q 350 927 414 978 q 251 771 287 876 q 216 508 216 667 q 249 264 216 367 q 343 106 281 161 q 496 50 406 50 m 456 1107 q 445 1130 449 1118 q 441 1155 441 1141 q 452 1189 441 1175 q 477 1213 463 1202 q 502 1236 491 1224 q 513 1266 513 1249 q 495 1301 513 1290 q 440 1313 478 1313 q 404 1309 424 1313 q 372 1299 384 1306 l 372 1385 q 416 1398 390 1393 q 466 1403 442 1403 q 549 1389 513 1403 q 604 1348 584 1374 q 624 1286 624 1322 q 614 1240 624 1259 q 588 1207 604 1221 q 553 1181 572 1194 q 523 1148 529 1166 q 522 1107 517 1130 l 456 1107 z "},"Ỡ":{"ha":996,"x_min":42,"x_max":1021,"o":"m 490 -15 q 240 50 340 -17 q 91 235 140 117 q 42 508 42 354 q 77 731 42 632 q 174 899 111 829 q 322 1007 237 969 q 510 1044 408 1044 q 643 1028 583 1044 q 752 983 703 1013 q 824 1008 796 987 q 869 1058 853 1028 q 892 1117 885 1087 q 899 1168 899 1147 q 898 1189 899 1181 q 896 1201 898 1197 l 1018 1201 q 1020 1186 1019 1194 q 1021 1171 1021 1178 q 998 1050 1021 1103 q 932 965 976 998 q 827 921 889 932 q 922 754 891 853 q 953 529 953 654 q 919 306 953 406 q 823 135 885 206 q 676 24 761 63 q 490 -15 591 -15 m 496 50 q 645 104 581 50 q 743 264 708 158 q 778 528 778 370 q 746 769 778 669 q 652 924 714 870 q 499 978 590 978 q 350 927 414 978 q 251 771 287 876 q 216 508 216 667 q 249 264 216 367 q 343 106 281 161 q 496 50 406 50 m 576 1124 q 520 1138 543 1124 q 481 1169 498 1151 q 447 1202 464 1188 q 409 1216 431 1216 q 367 1192 382 1216 q 341 1133 352 1168 l 289 1160 q 334 1272 298 1231 q 421 1312 369 1312 q 476 1298 454 1312 q 516 1266 499 1284 q 550 1233 533 1247 q 588 1219 567 1219 q 630 1242 615 1219 q 656 1301 645 1265 l 708 1275 q 663 1163 699 1202 q 576 1124 628 1124 z "},"Ő":{"ha":996,"x_min":42,"x_max":953,"o":"m 490 -15 q 240 50 340 -17 q 91 235 140 117 q 42 508 42 354 q 77 731 42 632 q 174 899 111 829 q 322 1007 237 969 q 510 1044 408 1044 q 757 980 658 1044 q 905 800 856 916 q 953 529 953 685 q 919 306 953 406 q 823 135 885 206 q 676 24 761 63 q 490 -15 591 -15 m 496 50 q 645 104 581 50 q 743 264 708 158 q 778 528 778 370 q 746 769 778 669 q 652 924 714 870 q 499 978 590 978 q 351 927 414 978 q 252 771 288 876 q 217 508 217 667 q 250 264 217 367 q 344 106 282 161 q 496 50 406 50 m 623 1111 l 572 1153 l 750 1382 l 846 1310 q 800 1255 828 1284 q 742 1199 773 1226 q 680 1148 710 1171 q 624 1111 649 1125 l 623 1111 m 362 1111 l 312 1150 l 476 1383 l 572 1311 q 511 1238 547 1276 q 435 1165 474 1199 q 363 1111 397 1131 l 362 1111 z "},"Ȏ":{"ha":996,"x_min":42,"x_max":953,"o":"m 490 -15 q 240 50 340 -17 q 91 235 140 117 q 42 508 42 354 q 77 731 42 632 q 174 899 111 829 q 322 1007 237 969 q 510 1044 408 1044 q 757 980 658 1044 q 905 800 856 916 q 953 529 953 685 q 919 306 953 406 q 823 135 885 206 q 676 24 761 63 q 490 -15 591 -15 m 496 50 q 645 104 581 50 q 743 264 708 158 q 778 528 778 370 q 746 769 778 669 q 652 924 714 870 q 499 978 590 978 q 351 927 414 978 q 252 771 288 876 q 217 508 217 667 q 250 264 217 367 q 344 106 282 161 q 496 50 406 50 m 498 1357 q 613 1331 565 1357 q 688 1260 661 1306 q 714 1158 714 1215 q 713 1141 714 1149 q 711 1124 713 1133 l 643 1124 q 643 1135 643 1128 q 641 1147 642 1141 q 623 1195 637 1172 q 579 1234 609 1219 q 498 1249 549 1249 q 417 1234 447 1249 q 374 1195 388 1219 q 356 1147 360 1172 q 354 1135 354 1141 q 353 1124 353 1128 l 285 1124 q 283 1141 284 1133 q 283 1158 283 1150 q 309 1260 283 1215 q 384 1331 335 1306 q 498 1357 432 1357 z "},"Ō":{"ha":996,"x_min":42,"x_max":953,"o":"m 490 -15 q 240 50 340 -17 q 91 235 140 117 q 42 508 42 354 q 77 731 42 632 q 174 899 111 829 q 322 1007 237 969 q 510 1044 408 1044 q 757 980 658 1044 q 905 800 856 916 q 953 529 953 685 q 919 306 953 406 q 823 135 885 206 q 676 24 761 63 q 490 -15 591 -15 m 496 50 q 645 104 581 50 q 743 264 708 158 q 778 528 778 370 q 746 769 778 669 q 652 924 714 870 q 499 978 590 978 q 351 927 414 978 q 252 771 288 876 q 217 508 217 667 q 250 264 217 367 q 344 106 282 161 q 496 50 406 50 m 696 1241 l 696 1146 l 301 1146 l 301 1241 l 696 1241 z "},"Ṓ":{"ha":996,"x_min":42,"x_max":953,"o":"m 490 -15 q 240 50 340 -17 q 91 235 140 117 q 42 508 42 354 q 77 731 42 632 q 174 899 111 829 q 322 1007 237 969 q 510 1044 408 1044 q 757 980 658 1044 q 905 800 856 916 q 953 529 953 685 q 919 306 953 406 q 823 135 885 206 q 676 24 761 63 q 490 -15 591 -15 m 496 50 q 645 104 581 50 q 743 264 708 158 q 778 528 778 370 q 746 769 778 669 q 652 924 714 870 q 499 978 590 978 q 351 927 414 978 q 252 771 288 876 q 217 508 217 667 q 250 264 217 367 q 344 106 282 161 q 496 50 406 50 m 696 1241 l 696 1146 l 301 1146 l 301 1241 l 696 1241 m 497 1295 l 447 1337 l 619 1558 l 722 1474 q 676 1424 703 1450 q 618 1372 649 1397 q 556 1327 587 1347 q 498 1295 524 1307 l 497 1295 z "},"Ṑ":{"ha":996,"x_min":42,"x_max":953,"o":"m 490 -15 q 240 50 340 -17 q 91 235 140 117 q 42 508 42 354 q 77 731 42 632 q 174 899 111 829 q 322 1007 237 969 q 510 1044 408 1044 q 757 980 658 1044 q 905 800 856 916 q 953 529 953 685 q 919 306 953 406 q 823 135 885 206 q 676 24 761 63 q 490 -15 591 -15 m 496 50 q 645 104 581 50 q 743 264 708 158 q 778 528 778 370 q 746 769 778 669 q 652 924 714 870 q 499 978 590 978 q 351 927 414 978 q 252 771 288 876 q 217 508 217 667 q 250 264 217 367 q 344 106 282 161 q 496 50 406 50 m 696 1241 l 696 1146 l 301 1146 l 301 1241 l 696 1241 m 503 1294 q 447 1326 478 1306 q 384 1372 415 1347 q 326 1423 353 1397 q 280 1474 299 1449 l 383 1556 l 555 1335 l 505 1294 l 503 1294 z "},"Ꞷ":{"ha":1169,"x_min":38,"x_max":1131,"o":"m 349 -15 q 232 16 288 -15 q 132 108 176 47 q 64 257 89 168 q 38 463 38 347 q 70 703 38 594 q 162 898 101 813 q 308 1041 222 983 l 353 1008 q 270 888 303 958 q 221 723 237 819 q 205 496 205 626 q 220 307 205 384 q 260 183 235 230 q 315 115 285 136 q 375 94 344 94 q 446 119 411 94 q 507 193 481 144 q 541 311 533 242 q 528 373 535 340 q 516 444 522 407 q 506 517 510 481 q 502 586 502 553 q 524 693 502 658 q 584 728 547 728 q 644 694 622 728 q 667 586 667 660 q 663 517 667 553 q 652 444 658 481 q 640 373 647 407 q 628 311 633 340 q 662 193 636 242 q 724 120 688 145 q 796 94 759 94 q 859 115 829 94 q 913 183 890 136 q 951 307 937 229 q 965 497 965 384 q 948 722 965 627 q 899 887 932 817 q 815 1007 866 956 l 860 1041 q 1004 911 943 996 q 1098 713 1065 827 q 1131 463 1131 598 q 1106 256 1131 345 q 1036 106 1080 166 q 937 15 992 46 q 822 -15 882 -15 q 718 11 767 -15 q 634 88 670 37 q 581 215 599 139 q 526 84 562 135 q 445 9 491 33 q 349 -15 400 -15 z "},"Ǫ":{"ha":996,"x_min":42,"x_max":953,"o":"m 490 -15 q 240 50 340 -17 q 91 235 140 117 q 42 508 42 354 q 77 731 42 632 q 174 899 111 829 q 322 1007 237 969 q 510 1044 408 1044 q 757 980 658 1044 q 905 800 856 916 q 953 529 953 685 q 919 306 953 406 q 823 135 885 206 q 676 24 761 63 q 490 -15 591 -15 m 496 50 q 645 104 581 50 q 743 264 708 158 q 778 528 778 370 q 746 769 778 669 q 652 924 714 870 q 499 978 590 978 q 351 927 414 978 q 252 771 288 876 q 217 508 217 667 q 250 264 217 367 q 344 106 282 161 q 496 50 406 50 m 492 -342 q 418 -328 453 -342 q 359 -286 382 -315 q 337 -214 337 -257 q 361 -130 337 -170 q 427 -55 385 -89 q 517 1 468 -22 l 555 7 l 607 1 q 526 -51 558 -20 q 480 -116 495 -82 q 465 -178 465 -149 q 486 -233 465 -214 q 545 -253 507 -253 q 603 -242 576 -253 q 652 -216 629 -231 l 666 -276 q 597 -322 644 -301 q 492 -342 550 -342 z "},"Ǭ":{"ha":996,"x_min":42,"x_max":953,"o":"m 490 -15 q 240 50 340 -17 q 91 235 140 117 q 42 508 42 354 q 77 731 42 632 q 174 899 111 829 q 322 1007 237 969 q 510 1044 408 1044 q 757 980 658 1044 q 905 800 856 916 q 953 529 953 685 q 919 306 953 406 q 823 135 885 206 q 676 24 761 63 q 490 -15 591 -15 m 496 50 q 645 104 581 50 q 743 264 708 158 q 778 528 778 370 q 746 769 778 669 q 652 924 714 870 q 499 978 590 978 q 351 927 414 978 q 252 771 288 876 q 217 508 217 667 q 250 264 217 367 q 344 106 282 161 q 496 50 406 50 m 492 -342 q 418 -328 453 -342 q 359 -286 382 -315 q 337 -214 337 -257 q 361 -130 337 -170 q 427 -55 385 -89 q 517 1 468 -22 l 555 7 l 607 1 q 526 -51 558 -20 q 480 -116 495 -82 q 465 -178 465 -149 q 486 -233 465 -214 q 545 -253 507 -253 q 603 -242 576 -253 q 652 -216 629 -231 l 666 -276 q 597 -322 644 -301 q 492 -342 550 -342 m 696 1241 l 696 1146 l 301 1146 l 301 1241 l 696 1241 z "},"Ɔ":{"ha":899,"x_min":58,"x_max":865,"o":"m 390 -15 q 280 -8 324 -15 q 203 10 235 0 q 145 28 172 20 q 89 38 119 36 l 58 248 l 144 259 l 202 111 q 240 83 217 97 q 295 61 262 69 q 377 53 328 53 q 517 91 458 53 q 613 194 576 128 q 668 347 651 260 q 686 528 686 433 q 647 774 686 674 q 540 924 608 873 q 381 975 472 975 q 300 968 335 975 q 242 952 265 962 q 208 931 219 942 l 175 747 l 79 747 l 64 1003 q 122 1011 90 1005 q 190 1025 153 1018 q 270 1038 226 1033 q 366 1043 315 1043 q 564 1005 473 1043 q 723 895 655 967 q 827 726 790 824 q 865 508 865 628 q 834 294 865 390 q 743 129 803 198 q 595 22 683 60 q 390 -15 506 -15 z "},"Ø":{"ha":996,"x_min":42,"x_max":953,"o":"m 726 1158 l 776 1138 l 269 -137 l 219 -119 l 726 1158 m 490 -15 q 240 50 340 -17 q 91 235 140 117 q 42 508 42 354 q 77 731 42 632 q 174 899 111 829 q 322 1007 237 969 q 510 1044 408 1044 q 757 980 658 1044 q 905 800 856 916 q 953 529 953 685 q 919 306 953 406 q 823 135 885 206 q 676 24 761 63 q 490 -15 591 -15 m 496 50 q 645 104 581 50 q 743 264 708 158 q 778 528 778 370 q 746 769 778 669 q 652 924 714 870 q 499 978 590 978 q 351 927 414 978 q 252 771 288 876 q 217 508 217 667 q 250 264 217 367 q 344 106 282 161 q 496 50 406 50 z "},"Ǿ":{"ha":996,"x_min":42,"x_max":953,"o":"m 726 1158 l 776 1138 l 269 -137 l 219 -119 l 726 1158 m 490 -15 q 240 50 340 -17 q 91 235 140 117 q 42 508 42 354 q 77 731 42 632 q 174 899 111 829 q 322 1007 237 969 q 510 1044 408 1044 q 757 980 658 1044 q 905 800 856 916 q 953 529 953 685 q 919 306 953 406 q 823 135 885 206 q 676 24 761 63 q 490 -15 591 -15 m 496 50 q 645 104 581 50 q 743 264 708 158 q 778 528 778 370 q 746 769 778 669 q 652 924 714 870 q 499 978 590 978 q 351 927 414 978 q 252 771 288 876 q 217 508 217 667 q 250 264 217 367 q 344 106 282 161 q 496 50 406 50 m 497 1110 l 447 1152 l 619 1373 l 722 1290 q 676 1239 703 1265 q 618 1188 649 1213 q 556 1142 587 1163 q 498 1110 524 1122 l 497 1110 z "},"Õ":{"ha":996,"x_min":42,"x_max":953,"o":"m 490 -15 q 240 50 340 -17 q 91 235 140 117 q 42 508 42 354 q 77 731 42 632 q 174 899 111 829 q 322 1007 237 969 q 510 1044 408 1044 q 757 980 658 1044 q 905 800 856 916 q 953 529 953 685 q 919 306 953 406 q 823 135 885 206 q 676 24 761 63 q 490 -15 591 -15 m 496 50 q 645 104 581 50 q 743 264 708 158 q 778 528 778 370 q 746 769 778 669 q 652 924 714 870 q 499 978 590 978 q 351 927 414 978 q 252 771 288 876 q 217 508 217 667 q 250 264 217 367 q 344 106 282 161 q 496 50 406 50 m 576 1124 q 520 1138 543 1124 q 481 1169 498 1151 q 447 1202 464 1188 q 409 1216 431 1216 q 367 1192 382 1216 q 341 1133 352 1168 l 289 1160 q 334 1272 298 1231 q 421 1312 369 1312 q 476 1298 454 1312 q 516 1266 499 1284 q 550 1233 533 1247 q 588 1219 567 1219 q 630 1242 615 1219 q 656 1301 645 1265 l 708 1275 q 663 1163 699 1202 q 576 1124 628 1124 z "},"Ṍ":{"ha":996,"x_min":42,"x_max":953,"o":"m 490 -15 q 240 50 340 -17 q 91 235 140 117 q 42 508 42 354 q 77 731 42 632 q 174 899 111 829 q 322 1007 237 969 q 510 1044 408 1044 q 757 980 658 1044 q 905 800 856 916 q 953 529 953 685 q 919 306 953 406 q 823 135 885 206 q 676 24 761 63 q 490 -15 591 -15 m 496 50 q 645 104 581 50 q 743 264 708 158 q 778 528 778 370 q 746 769 778 669 q 652 924 714 870 q 499 978 590 978 q 351 927 414 978 q 252 771 288 876 q 217 508 217 667 q 250 264 217 367 q 344 106 282 161 q 496 50 406 50 m 576 1124 q 520 1138 543 1124 q 481 1169 498 1151 q 447 1202 464 1188 q 409 1216 431 1216 q 367 1192 382 1216 q 341 1133 352 1168 l 289 1160 q 334 1272 298 1231 q 421 1312 369 1312 q 476 1298 454 1312 q 516 1266 499 1284 q 550 1233 533 1247 q 588 1219 567 1219 q 630 1242 615 1219 q 656 1301 645 1265 l 708 1275 q 663 1163 699 1202 q 576 1124 628 1124 m 497 1354 l 447 1396 l 619 1617 l 722 1533 q 676 1483 703 1509 q 618 1431 649 1456 q 556 1386 587 1406 q 498 1354 524 1366 l 497 1354 z "},"Ṏ":{"ha":996,"x_min":42,"x_max":953,"o":"m 490 -15 q 240 50 340 -17 q 91 235 140 117 q 42 508 42 354 q 77 731 42 632 q 174 899 111 829 q 322 1007 237 969 q 510 1044 408 1044 q 757 980 658 1044 q 905 800 856 916 q 953 529 953 685 q 919 306 953 406 q 823 135 885 206 q 676 24 761 63 q 490 -15 591 -15 m 496 50 q 645 104 581 50 q 743 264 708 158 q 778 528 778 370 q 746 769 778 669 q 652 924 714 870 q 499 978 590 978 q 351 927 414 978 q 252 771 288 876 q 217 508 217 667 q 250 264 217 367 q 344 106 282 161 q 496 50 406 50 m 576 1124 q 520 1138 543 1124 q 481 1169 498 1151 q 447 1202 464 1188 q 409 1216 431 1216 q 367 1192 382 1216 q 341 1133 352 1168 l 289 1160 q 334 1272 298 1231 q 421 1312 369 1312 q 476 1298 454 1312 q 516 1266 499 1284 q 550 1233 533 1247 q 588 1219 567 1219 q 630 1242 615 1219 q 656 1301 645 1265 l 708 1275 q 663 1163 699 1202 q 576 1124 628 1124 m 363 1370 q 305 1396 325 1370 q 285 1460 285 1422 q 308 1533 285 1501 q 374 1565 331 1565 l 375 1565 q 433 1538 413 1565 q 453 1475 453 1512 q 430 1402 453 1434 q 364 1370 406 1370 l 363 1370 m 622 1370 q 565 1396 585 1370 q 544 1460 544 1422 q 567 1533 544 1501 q 633 1565 590 1565 l 634 1565 q 692 1538 672 1565 q 713 1475 713 1512 q 689 1402 713 1434 q 624 1370 666 1370 l 622 1370 z "},"Ȭ":{"ha":996,"x_min":42,"x_max":953,"o":"m 490 -15 q 240 50 340 -17 q 91 235 140 117 q 42 508 42 354 q 77 731 42 632 q 174 899 111 829 q 322 1007 237 969 q 510 1044 408 1044 q 757 980 658 1044 q 905 800 856 916 q 953 529 953 685 q 919 306 953 406 q 823 135 885 206 q 676 24 761 63 q 490 -15 591 -15 m 496 50 q 645 104 581 50 q 743 264 708 158 q 778 528 778 370 q 746 769 778 669 q 652 924 714 870 q 499 978 590 978 q 351 927 414 978 q 252 771 288 876 q 217 508 217 667 q 250 264 217 367 q 344 106 282 161 q 496 50 406 50 m 576 1124 q 520 1138 543 1124 q 481 1169 498 1151 q 447 1202 464 1188 q 409 1216 431 1216 q 367 1192 382 1216 q 341 1133 352 1168 l 289 1160 q 334 1272 298 1231 q 421 1312 369 1312 q 476 1298 454 1312 q 516 1266 499 1284 q 550 1233 533 1247 q 588 1219 567 1219 q 630 1242 615 1219 q 656 1301 645 1265 l 708 1275 q 663 1163 699 1202 q 576 1124 628 1124 m 696 1485 l 696 1390 l 301 1390 l 301 1485 l 696 1485 z "},"Œ":{"ha":1399,"x_min":42,"x_max":1385,"o":"m 687 39 q 594 2 644 15 q 492 -12 544 -12 q 244 53 344 -12 q 93 237 144 119 q 42 510 42 355 q 77 731 42 633 q 174 900 111 830 q 323 1008 237 970 q 511 1047 408 1046 q 574 1044 543 1048 q 633 1033 604 1041 q 687 1014 661 1026 l 687 1032 l 1283 1032 l 1303 812 l 1227 812 l 1178 956 l 843 967 l 843 567 l 1069 572 l 1093 692 l 1161 692 l 1161 366 l 1092 366 l 1069 492 l 843 497 l 843 69 l 1223 86 l 1304 271 l 1385 247 l 1342 0 l 687 0 l 687 39 m 499 53 q 559 61 532 53 q 610 86 587 70 q 652 124 633 102 q 685 174 671 147 l 685 876 q 643 933 668 909 q 583 970 617 957 q 501 983 548 983 q 349 929 414 983 q 250 770 285 875 q 215 509 215 665 q 248 270 215 373 q 344 110 281 167 q 499 53 408 53 z "},"P":{"ha":876,"x_min":48,"x_max":844,"o":"m 158 76 l 158 953 l 53 971 l 53 1032 l 240 1032 q 313 1034 280 1032 q 383 1039 346 1037 q 475 1041 421 1042 q 696 1005 615 1041 q 810 902 776 969 q 844 742 844 835 q 795 551 844 630 q 656 430 746 472 q 445 388 567 388 q 395 388 423 388 q 346 390 368 389 q 316 393 324 392 l 316 76 l 492 60 l 492 0 l 48 0 l 48 60 l 158 76 m 316 463 q 367 457 334 459 q 442 455 401 455 q 563 483 510 456 q 647 572 616 510 q 678 740 678 634 q 655 873 678 821 q 579 950 631 925 q 445 975 528 975 q 394 973 417 975 q 351 969 370 971 q 316 966 332 967 l 316 463 z "},"Ṕ":{"ha":876,"x_min":48,"x_max":844,"o":"m 158 76 l 158 953 l 53 971 l 53 1032 l 240 1032 q 313 1034 280 1032 q 383 1039 346 1037 q 475 1041 421 1042 q 696 1005 615 1041 q 810 902 776 969 q 844 742 844 835 q 795 551 844 630 q 656 430 746 472 q 445 388 567 388 q 395 388 423 388 q 346 390 368 389 q 316 393 324 392 l 316 76 l 492 60 l 492 0 l 48 0 l 48 60 l 158 76 m 316 463 q 367 457 334 459 q 442 455 401 455 q 563 483 510 456 q 647 572 616 510 q 678 740 678 634 q 655 873 678 821 q 579 950 631 925 q 445 975 528 975 q 394 973 417 975 q 351 969 370 971 q 316 966 332 967 l 316 463 m 438 1110 l 389 1152 l 561 1373 l 664 1290 q 618 1239 645 1265 q 560 1188 591 1213 q 497 1142 528 1163 q 440 1110 466 1122 l 438 1110 z "},"Ṗ":{"ha":876,"x_min":48,"x_max":844,"o":"m 158 76 l 158 953 l 53 971 l 53 1032 l 240 1032 q 313 1034 280 1032 q 383 1039 346 1037 q 475 1041 421 1042 q 696 1005 615 1041 q 810 902 776 969 q 844 742 844 835 q 795 551 844 630 q 656 430 746 472 q 445 388 567 388 q 395 388 423 388 q 346 390 368 389 q 316 393 324 392 l 316 76 l 492 60 l 492 0 l 48 0 l 48 60 l 158 76 m 316 463 q 367 457 334 459 q 442 455 401 455 q 563 483 510 456 q 647 572 616 510 q 678 740 678 634 q 655 873 678 821 q 579 950 631 925 q 445 975 528 975 q 394 973 417 975 q 351 969 370 971 q 316 966 332 967 l 316 463 m 433 1126 q 365 1152 389 1126 q 342 1217 342 1178 q 368 1290 342 1258 q 444 1321 394 1321 l 446 1321 q 514 1295 490 1321 q 537 1231 537 1269 q 511 1158 537 1189 q 435 1126 485 1126 l 433 1126 z "},"Ƥ":{"ha":1083,"x_min":42,"x_max":1051,"o":"m 256 0 l 256 60 l 366 76 l 366 987 l 352 1010 l 366 1032 l 447 1032 q 520 1034 488 1032 q 591 1039 553 1037 q 683 1041 628 1042 q 903 1005 823 1041 q 1017 902 983 969 q 1051 742 1051 835 q 1002 551 1051 630 q 863 430 953 472 q 653 388 774 388 q 603 388 631 388 q 553 390 576 389 q 524 393 531 392 l 524 76 l 699 60 l 699 0 l 256 0 m 649 455 q 770 483 717 456 q 855 572 824 510 q 885 740 885 634 q 862 873 885 821 q 787 950 838 925 q 653 975 735 975 q 601 973 624 975 q 559 969 578 971 q 524 966 540 967 l 524 463 q 575 457 542 459 q 649 455 608 455 m 50 673 q 44 708 46 687 q 42 758 42 729 q 58 862 42 812 q 112 951 74 912 q 213 1012 149 990 q 369 1032 276 1034 l 379 997 l 369 963 q 253 949 299 965 q 187 896 208 932 q 166 806 166 860 q 173 744 166 778 q 192 673 180 710 l 50 673 z "},"Þ":{"ha":870,"x_min":49,"x_max":833,"o":"m 157 76 l 157 953 l 50 972 l 50 1032 l 430 1032 l 431 972 l 314 953 l 314 802 q 360 806 337 804 q 409 810 384 808 q 459 814 433 813 q 513 815 485 815 q 686 784 615 815 q 795 692 758 753 q 833 540 833 631 q 790 368 833 438 q 665 265 746 299 q 474 230 585 230 q 410 231 440 230 q 356 233 381 232 q 314 237 332 235 l 314 75 l 451 59 l 451 0 l 49 0 l 49 59 l 157 76 m 456 293 q 563 319 517 293 q 636 399 610 345 q 663 534 663 452 q 642 648 663 600 q 574 723 621 697 q 451 747 527 749 q 376 743 413 747 q 314 733 340 738 l 314 301 q 386 295 349 297 q 456 293 424 293 z "},"Ᵽ":{"ha":876,"x_min":48,"x_max":844,"o":"m 158 76 l 158 953 l 53 971 l 53 1032 l 240 1032 q 313 1034 280 1032 q 383 1039 346 1037 q 475 1041 421 1042 q 696 1005 615 1041 q 810 902 776 969 q 844 742 844 835 q 795 551 844 630 q 656 430 746 472 q 445 388 567 388 q 395 388 423 388 q 346 390 368 389 q 316 393 324 392 l 316 76 l 492 60 l 492 0 l 48 0 l 48 60 l 158 76 m 316 463 q 367 457 334 459 q 442 455 401 455 q 563 483 510 456 q 647 572 616 510 q 678 740 678 634 q 655 873 678 821 q 579 950 631 925 q 445 975 528 975 q 394 973 417 975 q 351 969 370 971 q 316 966 332 967 l 316 463 m 69 681 l 69 754 l 518 754 l 518 681 l 69 681 z "},"Q":{"ha":996,"x_min":42,"x_max":1051,"o":"m 920 -256 q 819 -234 862 -256 q 741 -176 776 -211 q 673 -105 706 -142 q 603 -39 640 -68 q 518 1 566 -10 l 599 26 q 694 2 653 21 q 770 -42 735 -17 q 838 -91 804 -67 q 909 -131 872 -115 q 994 -147 946 -147 q 1019 -145 1010 -147 q 1035 -143 1028 -144 l 1051 -200 q 991 -243 1026 -229 q 920 -256 956 -256 m 490 -15 q 240 50 340 -17 q 91 235 140 117 q 42 508 42 354 q 77 731 42 632 q 174 899 111 829 q 322 1007 237 969 q 510 1044 408 1044 q 757 980 658 1044 q 905 800 856 916 q 953 529 953 685 q 919 306 953 406 q 823 135 885 206 q 676 24 761 63 q 490 -15 591 -15 m 496 50 q 645 104 581 50 q 743 264 708 158 q 778 528 778 370 q 746 769 778 669 q 652 924 714 870 q 499 978 590 978 q 351 927 414 978 q 252 771 288 876 q 217 508 217 667 q 250 264 217 367 q 344 106 282 161 q 496 50 406 50 z "},"Ɋ":{"ha":997,"x_min":42,"x_max":1069,"o":"m 997 -344 q 888 -319 940 -344 q 795 -251 836 -294 q 730 -150 753 -207 q 706 -28 706 -93 l 706 67 q 641 24 678 43 q 561 -5 603 6 q 474 -15 518 -15 q 299 17 378 -15 q 162 115 219 50 q 74 278 105 181 q 42 506 42 376 q 76 726 42 627 q 174 897 110 826 q 328 1007 238 969 q 532 1046 419 1046 q 641 1035 592 1046 q 723 1002 690 1024 l 749 1032 l 863 1032 l 863 -66 q 887 -182 863 -137 q 964 -227 910 -227 q 1028 -218 1001 -227 q 1069 -197 1056 -208 l 1069 -331 q 1042 -340 1060 -335 q 997 -344 1025 -344 m 492 49 q 567 61 530 49 q 639 98 605 72 q 701 168 674 124 l 702 919 q 659 953 683 940 q 605 975 635 967 q 538 983 574 983 q 403 954 463 983 q 302 867 344 926 q 238 719 260 808 q 215 508 215 629 q 248 254 214 356 q 344 101 282 152 q 492 49 406 49 z "},"R":{"ha":956,"x_min":48,"x_max":951,"o":"m 48 0 l 48 60 l 158 76 l 158 953 l 53 972 l 53 1032 l 233 1032 q 315 1035 277 1032 q 389 1040 353 1038 q 458 1042 424 1042 q 676 1011 595 1042 q 792 918 757 979 q 827 769 827 858 q 803 647 827 706 q 732 542 778 588 q 617 477 685 497 q 679 431 650 464 q 734 353 708 397 q 783 263 760 310 q 826 176 806 217 q 865 108 847 135 q 899 76 883 81 l 951 59 l 951 0 l 758 0 q 722 30 742 0 q 680 109 702 60 q 634 213 658 157 q 585 319 610 268 q 533 407 559 371 q 481 453 507 444 q 442 453 465 453 q 393 453 419 453 q 347 454 368 453 q 315 455 326 454 l 315 76 l 449 60 l 449 0 l 48 0 m 465 520 q 570 547 526 520 q 637 627 614 574 q 660 761 660 681 q 640 875 660 827 q 570 950 619 924 q 436 976 521 976 q 391 974 412 976 q 351 970 369 972 q 315 967 332 968 l 315 524 q 365 521 335 522 q 423 520 394 520 q 465 520 451 520 z "},"Ŕ":{"ha":956,"x_min":48,"x_max":951,"o":"m 48 0 l 48 60 l 158 76 l 158 953 l 53 972 l 53 1032 l 233 1032 q 315 1035 277 1032 q 389 1040 353 1038 q 458 1042 424 1042 q 676 1011 595 1042 q 792 918 757 979 q 827 769 827 858 q 803 647 827 706 q 732 542 778 588 q 617 477 685 497 q 679 431 650 464 q 734 353 708 397 q 783 263 760 310 q 826 176 806 217 q 865 108 847 135 q 899 76 883 81 l 951 59 l 951 0 l 758 0 q 722 30 742 0 q 680 109 702 60 q 634 213 658 157 q 585 319 610 268 q 533 407 559 371 q 481 453 507 444 q 442 453 465 453 q 393 453 419 453 q 347 454 368 453 q 315 455 326 454 l 315 76 l 449 60 l 449 0 l 48 0 m 465 520 q 570 547 526 520 q 637 627 614 574 q 660 761 660 681 q 640 875 660 827 q 570 950 619 924 q 436 976 521 976 q 391 974 412 976 q 351 970 369 972 q 315 967 332 968 l 315 524 q 365 521 335 522 q 423 520 394 520 q 465 520 451 520 m 458 1110 l 408 1152 l 581 1373 l 683 1290 q 638 1239 665 1265 q 579 1188 610 1213 q 517 1142 548 1163 q 459 1110 485 1122 l 458 1110 z "},"Ř":{"ha":956,"x_min":48,"x_max":951,"o":"m 48 0 l 48 60 l 158 76 l 158 953 l 53 972 l 53 1032 l 233 1032 q 315 1035 277 1032 q 389 1040 353 1038 q 458 1042 424 1042 q 676 1011 595 1042 q 792 918 757 979 q 827 769 827 858 q 803 647 827 706 q 732 542 778 588 q 617 477 685 497 q 679 431 650 464 q 734 353 708 397 q 783 263 760 310 q 826 176 806 217 q 865 108 847 135 q 899 76 883 81 l 951 59 l 951 0 l 758 0 q 722 30 742 0 q 680 109 702 60 q 634 213 658 157 q 585 319 610 268 q 533 407 559 371 q 481 453 507 444 q 442 453 465 453 q 393 453 419 453 q 347 454 368 453 q 315 455 326 454 l 315 76 l 449 60 l 449 0 l 48 0 m 465 520 q 570 547 526 520 q 637 627 614 574 q 660 761 660 681 q 640 875 660 827 q 570 950 619 924 q 436 976 521 976 q 391 974 412 976 q 351 970 369 972 q 315 967 332 968 l 315 524 q 365 521 335 522 q 423 520 394 520 q 465 520 451 520 m 403 1115 l 231 1315 l 278 1351 l 461 1216 l 643 1351 l 691 1315 l 518 1115 l 403 1115 z "},"Ŗ":{"ha":956,"x_min":48,"x_max":951,"o":"m 48 0 l 48 60 l 158 76 l 158 953 l 53 972 l 53 1032 l 233 1032 q 315 1035 277 1032 q 389 1040 353 1038 q 458 1042 424 1042 q 676 1011 595 1042 q 792 918 757 979 q 827 769 827 858 q 803 647 827 706 q 732 542 778 588 q 617 477 685 497 q 679 431 650 464 q 734 353 708 397 q 783 263 760 310 q 826 176 806 217 q 865 108 847 135 q 899 76 883 81 l 951 59 l 951 0 l 758 0 q 722 30 742 0 q 680 109 702 60 q 634 213 658 157 q 585 319 610 268 q 533 407 559 371 q 481 453 507 444 q 442 453 465 453 q 393 453 419 453 q 347 454 368 453 q 315 455 326 454 l 315 76 l 449 60 l 449 0 l 48 0 m 465 520 q 570 547 526 520 q 637 627 614 574 q 660 761 660 681 q 640 875 660 827 q 570 950 619 924 q 436 976 521 976 q 391 974 412 976 q 351 970 369 972 q 315 967 332 968 l 315 524 q 365 521 335 522 q 423 520 394 520 q 465 520 451 520 m 566 -187 q 544 -269 566 -231 q 495 -334 522 -308 q 451 -369 468 -360 l 449 -369 l 409 -345 l 408 -337 q 440 -299 428 -325 q 453 -256 453 -274 q 444 -224 453 -236 q 423 -204 436 -212 q 402 -183 412 -196 q 393 -149 393 -171 q 406 -109 393 -124 q 438 -88 419 -94 q 469 -81 456 -81 l 473 -81 q 540 -109 515 -81 q 566 -187 566 -137 z "},"Ȑ":{"ha":956,"x_min":48,"x_max":951,"o":"m 48 0 l 48 60 l 158 76 l 158 953 l 53 972 l 53 1032 l 233 1032 q 315 1035 277 1032 q 389 1040 353 1038 q 458 1042 424 1042 q 676 1011 595 1042 q 792 918 757 979 q 827 769 827 858 q 803 647 827 706 q 732 542 778 588 q 617 477 685 497 q 679 431 650 464 q 734 353 708 397 q 783 263 760 310 q 826 176 806 217 q 865 108 847 135 q 899 76 883 81 l 951 59 l 951 0 l 758 0 q 722 30 742 0 q 680 109 702 60 q 634 213 658 157 q 585 319 610 268 q 533 407 559 371 q 481 453 507 444 q 442 453 465 453 q 393 453 419 453 q 347 454 368 453 q 315 455 326 454 l 315 76 l 449 60 l 449 0 l 48 0 m 465 520 q 570 547 526 520 q 637 627 614 574 q 660 761 660 681 q 640 875 660 827 q 570 950 619 924 q 436 976 521 976 q 391 974 412 976 q 351 970 369 972 q 315 967 332 968 l 315 524 q 365 521 335 522 q 423 520 394 520 q 465 520 451 520 m 333 1110 q 278 1147 308 1124 q 216 1198 247 1170 q 157 1255 185 1226 q 112 1309 130 1283 l 207 1381 l 385 1152 l 334 1110 l 333 1110 m 594 1110 q 522 1164 561 1130 q 446 1237 483 1198 q 385 1310 410 1276 l 481 1382 l 646 1149 l 595 1110 l 594 1110 z "},"Ṙ":{"ha":956,"x_min":48,"x_max":951,"o":"m 48 0 l 48 60 l 158 76 l 158 953 l 53 972 l 53 1032 l 233 1032 q 315 1035 277 1032 q 389 1040 353 1038 q 458 1042 424 1042 q 676 1011 595 1042 q 792 918 757 979 q 827 769 827 858 q 803 647 827 706 q 732 542 778 588 q 617 477 685 497 q 679 431 650 464 q 734 353 708 397 q 783 263 760 310 q 826 176 806 217 q 865 108 847 135 q 899 76 883 81 l 951 59 l 951 0 l 758 0 q 722 30 742 0 q 680 109 702 60 q 634 213 658 157 q 585 319 610 268 q 533 407 559 371 q 481 453 507 444 q 442 453 465 453 q 393 453 419 453 q 347 454 368 453 q 315 455 326 454 l 315 76 l 449 60 l 449 0 l 48 0 m 465 520 q 570 547 526 520 q 637 627 614 574 q 660 761 660 681 q 640 875 660 827 q 570 950 619 924 q 436 976 521 976 q 391 974 412 976 q 351 970 369 972 q 315 967 332 968 l 315 524 q 365 521 335 522 q 423 520 394 520 q 465 520 451 520 m 453 1126 q 385 1152 408 1126 q 361 1217 361 1178 q 388 1290 361 1258 q 464 1321 414 1321 l 465 1321 q 533 1295 510 1321 q 556 1231 556 1269 q 530 1158 556 1189 q 454 1126 504 1126 l 453 1126 z "},"Ṛ":{"ha":956,"x_min":48,"x_max":951,"o":"m 48 0 l 48 60 l 158 76 l 158 953 l 53 972 l 53 1032 l 233 1032 q 315 1035 277 1032 q 389 1040 353 1038 q 458 1042 424 1042 q 676 1011 595 1042 q 792 918 757 979 q 827 769 827 858 q 803 647 827 706 q 732 542 778 588 q 617 477 685 497 q 679 431 650 464 q 734 353 708 397 q 783 263 760 310 q 826 176 806 217 q 865 108 847 135 q 899 76 883 81 l 951 59 l 951 0 l 758 0 q 722 30 742 0 q 680 109 702 60 q 634 213 658 157 q 585 319 610 268 q 533 407 559 371 q 481 453 507 444 q 442 453 465 453 q 393 453 419 453 q 347 454 368 453 q 315 455 326 454 l 315 76 l 449 60 l 449 0 l 48 0 m 465 520 q 570 547 526 520 q 637 627 614 574 q 660 761 660 681 q 640 875 660 827 q 570 950 619 924 q 436 976 521 976 q 391 974 412 976 q 351 970 369 972 q 315 967 332 968 l 315 524 q 365 521 335 522 q 423 520 394 520 q 465 520 451 520 m 469 -285 q 403 -259 427 -285 q 380 -195 380 -233 q 406 -122 380 -153 q 481 -90 432 -90 l 482 -90 q 549 -116 526 -90 q 572 -181 572 -142 q 546 -254 572 -223 q 471 -285 520 -285 l 469 -285 z "},"Ṝ":{"ha":956,"x_min":48,"x_max":951,"o":"m 48 0 l 48 60 l 158 76 l 158 953 l 53 972 l 53 1032 l 233 1032 q 315 1035 277 1032 q 389 1040 353 1038 q 458 1042 424 1042 q 676 1011 595 1042 q 792 918 757 979 q 827 769 827 858 q 803 647 827 706 q 732 542 778 588 q 617 477 685 497 q 679 431 650 464 q 734 353 708 397 q 783 263 760 310 q 826 176 806 217 q 865 108 847 135 q 899 76 883 81 l 951 59 l 951 0 l 758 0 q 722 30 742 0 q 680 109 702 60 q 634 213 658 157 q 585 319 610 268 q 533 407 559 371 q 481 453 507 444 q 442 453 465 453 q 393 453 419 453 q 347 454 368 453 q 315 455 326 454 l 315 76 l 449 60 l 449 0 l 48 0 m 465 520 q 570 547 526 520 q 637 627 614 574 q 660 761 660 681 q 640 875 660 827 q 570 950 619 924 q 436 976 521 976 q 391 974 412 976 q 351 970 369 972 q 315 967 332 968 l 315 524 q 365 521 335 522 q 423 520 394 520 q 465 520 451 520 m 469 -285 q 403 -259 427 -285 q 380 -195 380 -233 q 406 -122 380 -153 q 481 -90 432 -90 l 482 -90 q 549 -116 526 -90 q 572 -181 572 -142 q 546 -254 572 -223 q 471 -285 520 -285 l 469 -285 m 657 1241 l 657 1146 l 262 1146 l 262 1241 l 657 1241 z "},"Ȓ":{"ha":956,"x_min":48,"x_max":951,"o":"m 48 0 l 48 60 l 158 76 l 158 953 l 53 972 l 53 1032 l 233 1032 q 315 1035 277 1032 q 389 1040 353 1038 q 458 1042 424 1042 q 676 1011 595 1042 q 792 918 757 979 q 827 769 827 858 q 803 647 827 706 q 732 542 778 588 q 617 477 685 497 q 679 431 650 464 q 734 353 708 397 q 783 263 760 310 q 826 176 806 217 q 865 108 847 135 q 899 76 883 81 l 951 59 l 951 0 l 758 0 q 722 30 742 0 q 680 109 702 60 q 634 213 658 157 q 585 319 610 268 q 533 407 559 371 q 481 453 507 444 q 442 453 465 453 q 393 453 419 453 q 347 454 368 453 q 315 455 326 454 l 315 76 l 449 60 l 449 0 l 48 0 m 465 520 q 570 547 526 520 q 637 627 614 574 q 660 761 660 681 q 640 875 660 827 q 570 950 619 924 q 436 976 521 976 q 391 974 412 976 q 351 970 369 972 q 315 967 332 968 l 315 524 q 365 521 335 522 q 423 520 394 520 q 465 520 451 520 m 458 1357 q 573 1331 525 1357 q 648 1260 622 1306 q 674 1158 674 1215 q 674 1141 674 1149 q 672 1124 673 1133 l 603 1124 q 603 1135 603 1128 q 601 1147 603 1141 q 583 1195 597 1172 q 540 1234 569 1219 q 458 1249 510 1249 q 378 1234 408 1249 q 334 1195 348 1219 q 316 1147 320 1172 q 314 1135 315 1141 q 314 1124 314 1128 l 246 1124 q 244 1141 244 1133 q 243 1158 243 1150 q 269 1260 243 1215 q 344 1331 296 1306 q 458 1357 392 1357 z "},"Ṟ":{"ha":956,"x_min":48,"x_max":951,"o":"m 48 0 l 48 60 l 158 76 l 158 953 l 53 972 l 53 1032 l 233 1032 q 315 1035 277 1032 q 389 1040 353 1038 q 458 1042 424 1042 q 676 1011 595 1042 q 792 918 757 979 q 827 769 827 858 q 803 647 827 706 q 732 542 778 588 q 617 477 685 497 q 679 431 650 464 q 734 353 708 397 q 783 263 760 310 q 826 176 806 217 q 865 108 847 135 q 899 76 883 81 l 951 59 l 951 0 l 758 0 q 722 30 742 0 q 680 109 702 60 q 634 213 658 157 q 585 319 610 268 q 533 407 559 371 q 481 453 507 444 q 442 453 465 453 q 393 453 419 453 q 347 454 368 453 q 315 455 326 454 l 315 76 l 449 60 l 449 0 l 48 0 m 465 520 q 570 547 526 520 q 637 627 614 574 q 660 761 660 681 q 640 875 660 827 q 570 950 619 924 q 436 976 521 976 q 391 974 412 976 q 351 970 369 972 q 315 967 332 968 l 315 524 q 365 521 335 522 q 423 520 394 520 q 465 520 451 520 m 676 -127 l 676 -227 l 282 -227 l 282 -127 l 676 -127 z "},"Ɍ":{"ha":956,"x_min":47,"x_max":951,"o":"m 48 0 l 48 60 l 158 76 l 158 953 l 53 972 l 53 1032 l 233 1032 q 315 1035 277 1032 q 389 1040 353 1038 q 458 1042 424 1042 q 676 1011 595 1042 q 792 918 757 979 q 827 769 827 857 q 803 647 827 706 q 733 542 779 587 q 618 478 686 497 q 679 431 650 464 q 734 354 708 398 q 783 263 760 310 q 826 176 806 217 q 865 108 847 135 q 899 76 883 81 l 951 59 l 951 0 l 758 0 q 722 30 742 0 q 680 109 702 60 q 635 213 658 157 q 586 319 611 268 q 534 407 560 371 q 481 453 508 444 l 47 453 l 47 521 l 465 520 q 570 547 526 520 q 637 627 614 574 q 660 761 660 681 q 640 875 660 827 q 570 950 619 924 q 435 976 521 976 q 391 974 412 976 q 351 970 369 972 q 315 967 332 968 l 315 76 l 449 60 l 449 0 l 48 0 z "},"Ɽ":{"ha":951,"x_min":48,"x_max":946,"o":"m 449 -350 q 303 -315 371 -350 q 194 -207 235 -279 q 153 -24 153 -135 l 153 953 l 48 972 l 48 1032 l 228 1032 q 310 1035 272 1032 q 384 1040 349 1038 q 453 1042 419 1042 q 671 1011 590 1042 q 787 918 752 979 q 822 769 822 857 q 798 647 822 706 q 728 542 774 587 q 613 478 681 498 q 674 431 645 465 q 729 354 703 398 q 778 264 755 310 q 821 176 801 217 q 860 108 842 135 q 894 76 878 81 l 946 59 l 946 0 l 753 0 q 717 30 737 0 q 675 109 697 60 q 630 213 653 157 q 581 319 606 268 q 530 407 556 371 q 476 453 503 444 q 438 453 461 453 q 390 453 415 453 q 343 454 365 453 q 310 455 322 454 l 310 -103 q 320 -183 310 -155 q 351 -221 330 -210 q 409 -231 373 -231 q 476 -222 447 -231 q 520 -203 506 -213 l 521 -338 q 494 -346 511 -342 q 449 -350 478 -350 m 460 520 q 565 547 522 520 q 632 627 609 574 q 656 761 656 681 q 635 875 656 827 q 565 950 615 924 q 430 976 516 976 q 386 974 407 976 q 346 970 365 972 q 310 967 327 968 l 310 524 q 360 521 330 522 q 418 520 390 520 q 460 520 446 520 z "},"S":{"ha":808,"x_min":76,"x_max":763,"o":"m 390 -15 q 248 0 310 -15 q 142 30 185 15 q 76 48 99 46 l 89 294 l 179 294 l 207 113 q 250 84 223 97 q 314 61 277 70 q 393 53 350 53 q 517 76 469 53 q 586 139 564 99 q 608 233 608 180 q 576 330 608 290 q 488 401 543 370 q 362 463 432 432 q 272 507 319 481 q 182 568 224 532 q 114 656 140 605 q 88 776 88 706 q 129 911 88 851 q 247 1008 170 972 q 433 1044 324 1044 q 529 1038 486 1044 q 606 1021 572 1031 q 665 1004 640 1012 q 703 994 689 996 l 694 765 l 606 765 l 578 937 q 548 955 569 945 q 497 971 527 965 q 428 978 466 978 q 319 959 363 978 q 254 904 276 940 q 233 819 233 869 q 264 720 233 759 q 350 651 295 681 q 474 588 405 622 q 573 539 522 566 q 666 476 623 512 q 736 393 709 441 q 763 281 763 345 q 741 175 763 228 q 676 80 720 123 q 560 11 631 37 q 390 -15 490 -15 z "},"Ś":{"ha":808,"x_min":76,"x_max":763,"o":"m 390 -15 q 248 0 310 -15 q 142 30 185 15 q 76 48 99 46 l 89 294 l 179 294 l 207 113 q 250 84 223 97 q 314 61 277 70 q 393 53 350 53 q 517 76 469 53 q 586 139 564 99 q 608 233 608 180 q 576 330 608 290 q 488 401 543 370 q 362 463 432 432 q 272 507 319 481 q 182 568 224 532 q 114 656 140 605 q 88 776 88 706 q 129 911 88 851 q 247 1008 170 972 q 433 1044 324 1044 q 529 1038 486 1044 q 606 1021 572 1031 q 665 1004 640 1012 q 703 994 689 996 l 694 765 l 606 765 l 578 937 q 548 955 569 945 q 497 971 527 965 q 428 978 466 978 q 319 959 363 978 q 254 904 276 940 q 233 819 233 869 q 264 720 233 759 q 350 651 295 681 q 474 588 405 622 q 573 539 522 566 q 666 476 623 512 q 736 393 709 441 q 763 281 763 345 q 741 175 763 228 q 676 80 720 123 q 560 11 631 37 q 390 -15 490 -15 m 407 1110 l 358 1152 l 530 1373 l 633 1290 q 587 1239 614 1265 q 528 1188 560 1213 q 466 1142 497 1163 q 408 1110 435 1122 l 407 1110 z "},"Ṥ":{"ha":808,"x_min":76,"x_max":763,"o":"m 390 -15 q 248 0 310 -15 q 142 30 185 15 q 76 48 99 46 l 89 294 l 179 294 l 207 113 q 250 84 223 97 q 314 61 277 70 q 393 53 350 53 q 517 76 469 53 q 586 139 564 99 q 608 233 608 180 q 576 330 608 290 q 488 401 543 370 q 362 463 432 432 q 272 507 319 481 q 182 568 224 532 q 114 656 140 605 q 88 776 88 706 q 129 911 88 851 q 247 1008 170 972 q 433 1044 324 1044 q 529 1038 486 1044 q 606 1021 572 1031 q 665 1004 640 1012 q 703 994 689 996 l 694 765 l 606 765 l 578 937 q 548 955 569 945 q 497 971 527 965 q 428 978 466 978 q 319 959 363 978 q 254 904 276 940 q 233 819 233 869 q 264 720 233 759 q 350 651 295 681 q 474 588 405 622 q 573 539 522 566 q 666 476 623 512 q 736 393 709 441 q 763 281 763 345 q 741 175 763 228 q 676 80 720 123 q 560 11 631 37 q 390 -15 490 -15 m 407 1110 l 358 1152 l 530 1373 l 633 1290 q 587 1239 614 1265 q 528 1188 560 1213 q 466 1142 497 1163 q 408 1110 435 1122 l 407 1110 m 439 1401 q 371 1427 394 1401 q 347 1491 347 1453 q 374 1564 347 1533 q 450 1595 400 1595 l 451 1595 q 519 1569 496 1595 q 542 1505 542 1544 q 516 1432 542 1463 q 440 1401 490 1401 l 439 1401 z "},"Š":{"ha":808,"x_min":76,"x_max":763,"o":"m 390 -15 q 248 0 310 -15 q 142 30 185 15 q 76 48 99 46 l 89 294 l 179 294 l 207 113 q 250 84 223 97 q 314 61 277 70 q 393 53 350 53 q 517 76 469 53 q 586 139 564 99 q 608 233 608 180 q 576 330 608 290 q 488 401 543 370 q 362 463 432 432 q 272 507 319 481 q 182 568 224 532 q 114 656 140 605 q 88 776 88 706 q 129 911 88 851 q 247 1008 170 972 q 433 1044 324 1044 q 529 1038 486 1044 q 606 1021 572 1031 q 665 1004 640 1012 q 703 994 689 996 l 694 765 l 606 765 l 578 937 q 548 955 569 945 q 497 971 527 965 q 428 978 466 978 q 319 959 363 978 q 254 904 276 940 q 233 819 233 869 q 264 720 233 759 q 350 651 295 681 q 474 588 405 622 q 573 539 522 566 q 666 476 623 512 q 736 393 709 441 q 763 281 763 345 q 741 175 763 228 q 676 80 720 123 q 560 11 631 37 q 390 -15 490 -15 m 353 1115 l 180 1315 l 228 1351 l 410 1216 l 592 1351 l 640 1315 l 467 1115 l 353 1115 z "},"Ṧ":{"ha":808,"x_min":76,"x_max":763,"o":"m 390 -15 q 248 0 310 -15 q 142 30 185 15 q 76 48 99 46 l 89 294 l 179 294 l 207 113 q 250 84 223 97 q 314 61 277 70 q 393 53 350 53 q 517 76 469 53 q 586 139 564 99 q 608 233 608 180 q 576 330 608 290 q 488 401 543 370 q 362 463 432 432 q 272 507 319 481 q 182 568 224 532 q 114 656 140 605 q 88 776 88 706 q 129 911 88 851 q 247 1008 170 972 q 433 1044 324 1044 q 529 1038 486 1044 q 606 1021 572 1031 q 665 1004 640 1012 q 703 994 689 996 l 694 765 l 606 765 l 578 937 q 548 955 569 945 q 497 971 527 965 q 428 978 466 978 q 319 959 363 978 q 254 904 276 940 q 233 819 233 869 q 264 720 233 759 q 350 651 295 681 q 474 588 405 622 q 573 539 522 566 q 666 476 623 512 q 736 393 709 441 q 763 281 763 345 q 741 175 763 228 q 676 80 720 123 q 560 11 631 37 q 390 -15 490 -15 m 353 1115 l 180 1315 l 228 1351 l 410 1216 l 592 1351 l 640 1315 l 467 1115 l 353 1115 m 402 1338 q 334 1364 358 1338 q 310 1428 310 1390 q 337 1501 310 1469 q 413 1532 363 1532 l 415 1532 q 482 1506 459 1532 q 506 1442 506 1481 q 480 1369 506 1400 q 403 1338 453 1338 l 402 1338 z "},"Ş":{"ha":808,"x_min":76,"x_max":763,"o":"m 390 -15 q 248 0 310 -15 q 142 30 185 15 q 76 48 99 46 l 89 294 l 179 294 l 207 113 q 250 84 223 97 q 314 61 277 70 q 393 53 350 53 q 517 76 469 53 q 586 139 564 99 q 608 233 608 180 q 576 330 608 290 q 488 401 543 370 q 362 463 432 432 q 272 507 319 481 q 182 568 224 532 q 114 656 140 605 q 88 776 88 706 q 129 911 88 851 q 247 1008 170 972 q 433 1044 324 1044 q 529 1038 486 1044 q 606 1021 572 1031 q 665 1004 640 1012 q 703 994 689 996 l 694 765 l 606 765 l 578 937 q 548 955 569 945 q 497 971 527 965 q 428 978 466 978 q 319 959 363 978 q 254 904 276 940 q 233 819 233 869 q 264 720 233 759 q 350 651 295 681 q 474 588 405 622 q 573 539 522 566 q 666 476 623 512 q 736 393 709 441 q 763 281 763 345 q 741 175 763 228 q 676 80 720 123 q 560 11 631 37 q 390 -15 490 -15 m 367 -331 q 315 -325 342 -331 q 269 -312 287 -319 l 269 -215 q 302 -222 283 -219 q 331 -224 320 -224 q 405 -207 378 -224 q 432 -131 432 -190 q 424 -78 432 -104 q 404 -31 415 -51 q 385 0 393 -10 l 424 0 l 449 0 q 486 -42 464 -13 q 524 -109 508 -70 q 540 -192 540 -149 q 518 -272 539 -241 q 458 -316 497 -302 q 367 -331 420 -331 z "},"Ŝ":{"ha":808,"x_min":76,"x_max":763,"o":"m 390 -15 q 248 0 310 -15 q 142 30 185 15 q 76 48 99 46 l 89 294 l 179 294 l 207 113 q 250 84 223 97 q 314 61 277 70 q 393 53 350 53 q 517 76 469 53 q 586 139 564 99 q 608 233 608 180 q 576 330 608 290 q 488 401 543 370 q 362 463 432 432 q 272 507 319 481 q 182 568 224 532 q 114 656 140 605 q 88 776 88 706 q 129 911 88 851 q 247 1008 170 972 q 433 1044 324 1044 q 529 1038 486 1044 q 606 1021 572 1031 q 665 1004 640 1012 q 703 994 689 996 l 694 765 l 606 765 l 578 937 q 548 955 569 945 q 497 971 527 965 q 428 978 466 978 q 319 959 363 978 q 254 904 276 940 q 233 819 233 869 q 264 720 233 759 q 350 651 295 681 q 474 588 405 622 q 573 539 522 566 q 666 476 623 512 q 736 393 709 441 q 763 281 763 345 q 741 175 763 228 q 676 80 720 123 q 560 11 631 37 q 390 -15 490 -15 m 226 1104 l 178 1140 l 351 1343 l 465 1343 l 638 1141 l 590 1104 l 408 1243 l 226 1104 z "},"Ș":{"ha":808,"x_min":76,"x_max":763,"o":"m 390 -15 q 248 0 310 -15 q 142 30 185 15 q 76 48 99 46 l 89 294 l 179 294 l 207 113 q 250 84 223 97 q 314 61 277 70 q 393 53 350 53 q 517 76 469 53 q 586 139 564 99 q 608 233 608 180 q 576 330 608 290 q 488 401 543 370 q 362 463 432 432 q 272 507 319 481 q 182 568 224 532 q 114 656 140 605 q 88 776 88 706 q 129 911 88 851 q 247 1008 170 972 q 433 1044 324 1044 q 529 1038 486 1044 q 606 1021 572 1031 q 665 1004 640 1012 q 703 994 689 996 l 694 765 l 606 765 l 578 937 q 548 955 569 945 q 497 971 527 965 q 428 978 466 978 q 319 959 363 978 q 254 904 276 940 q 233 819 233 869 q 264 720 233 759 q 350 651 295 681 q 474 588 405 622 q 573 539 522 566 q 666 476 623 512 q 736 393 709 441 q 763 281 763 345 q 741 175 763 228 q 676 80 720 123 q 560 11 631 37 q 390 -15 490 -15 m 491 -187 q 469 -269 491 -231 q 420 -334 447 -308 q 376 -369 393 -360 l 374 -369 l 334 -345 l 333 -337 q 365 -299 353 -325 q 378 -256 378 -274 q 369 -224 378 -236 q 348 -204 361 -212 q 327 -183 337 -196 q 318 -149 318 -171 q 331 -109 318 -124 q 363 -88 344 -94 q 394 -81 381 -81 l 398 -81 q 465 -109 440 -81 q 491 -187 491 -137 z "},"Ṡ":{"ha":808,"x_min":76,"x_max":763,"o":"m 390 -15 q 248 0 310 -15 q 142 30 185 15 q 76 48 99 46 l 89 294 l 179 294 l 207 113 q 250 84 223 97 q 314 61 277 70 q 393 53 350 53 q 517 76 469 53 q 586 139 564 99 q 608 233 608 180 q 576 330 608 290 q 488 401 543 370 q 362 463 432 432 q 272 507 319 481 q 182 568 224 532 q 114 656 140 605 q 88 776 88 706 q 129 911 88 851 q 247 1008 170 972 q 433 1044 324 1044 q 529 1038 486 1044 q 606 1021 572 1031 q 665 1004 640 1012 q 703 994 689 996 l 694 765 l 606 765 l 578 937 q 548 955 569 945 q 497 971 527 965 q 428 978 466 978 q 319 959 363 978 q 254 904 276 940 q 233 819 233 869 q 264 720 233 759 q 350 651 295 681 q 474 588 405 622 q 573 539 522 566 q 666 476 623 512 q 736 393 709 441 q 763 281 763 345 q 741 175 763 228 q 676 80 720 123 q 560 11 631 37 q 390 -15 490 -15 m 402 1126 q 334 1152 358 1126 q 310 1217 310 1178 q 337 1290 310 1258 q 413 1321 363 1321 l 415 1321 q 482 1295 459 1321 q 506 1231 506 1269 q 480 1158 506 1189 q 403 1126 453 1126 l 402 1126 z "},"Ṣ":{"ha":808,"x_min":76,"x_max":763,"o":"m 390 -15 q 248 0 310 -15 q 142 30 185 15 q 76 48 99 46 l 89 294 l 179 294 l 207 113 q 250 84 223 97 q 314 61 277 70 q 393 53 350 53 q 517 76 469 53 q 586 139 564 99 q 608 233 608 180 q 576 330 608 290 q 488 401 543 370 q 362 463 432 432 q 272 507 319 481 q 182 568 224 532 q 114 656 140 605 q 88 776 88 706 q 129 911 88 851 q 247 1008 170 972 q 433 1044 324 1044 q 529 1038 486 1044 q 606 1021 572 1031 q 665 1004 640 1012 q 703 994 689 996 l 694 765 l 606 765 l 578 937 q 548 955 569 945 q 497 971 527 965 q 428 978 466 978 q 319 959 363 978 q 254 904 276 940 q 233 819 233 869 q 264 720 233 759 q 350 651 295 681 q 474 588 405 622 q 573 539 522 566 q 666 476 623 512 q 736 393 709 441 q 763 281 763 345 q 741 175 763 228 q 676 80 720 123 q 560 11 631 37 q 390 -15 490 -15 m 394 -285 q 328 -259 352 -285 q 305 -195 305 -233 q 331 -122 305 -153 q 406 -90 357 -90 l 407 -90 q 474 -116 451 -90 q 497 -181 497 -142 q 471 -254 497 -223 q 396 -285 445 -285 l 394 -285 z "},"Ṩ":{"ha":808,"x_min":76,"x_max":763,"o":"m 390 -15 q 248 0 310 -15 q 142 30 185 15 q 76 48 99 46 l 89 294 l 179 294 l 207 113 q 250 84 223 97 q 314 61 277 70 q 393 53 350 53 q 517 76 469 53 q 586 139 564 99 q 608 233 608 180 q 576 330 608 290 q 488 401 543 370 q 362 463 432 432 q 272 507 319 481 q 182 568 224 532 q 114 656 140 605 q 88 776 88 706 q 129 911 88 851 q 247 1008 170 972 q 433 1044 324 1044 q 529 1038 486 1044 q 606 1021 572 1031 q 665 1004 640 1012 q 703 994 689 996 l 694 765 l 606 765 l 578 937 q 548 955 569 945 q 497 971 527 965 q 428 978 466 978 q 319 959 363 978 q 254 904 276 940 q 233 819 233 869 q 264 720 233 759 q 350 651 295 681 q 474 588 405 622 q 573 539 522 566 q 666 476 623 512 q 736 393 709 441 q 763 281 763 345 q 741 175 763 228 q 676 80 720 123 q 560 11 631 37 q 390 -15 490 -15 m 394 -285 q 328 -259 352 -285 q 305 -195 305 -233 q 331 -122 305 -153 q 406 -90 357 -90 l 407 -90 q 474 -116 451 -90 q 497 -181 497 -142 q 471 -254 497 -223 q 396 -285 445 -285 l 394 -285 m 402 1126 q 334 1152 358 1126 q 310 1217 310 1178 q 337 1290 310 1258 q 413 1321 363 1321 l 415 1321 q 482 1295 459 1321 q 506 1231 506 1269 q 480 1158 506 1189 q 403 1126 453 1126 l 402 1126 z "},"ẞ":{"ha":1035,"x_min":48,"x_max":970,"o":"m 660 -15 q 550 -2 597 -15 q 468 24 502 10 q 411 38 434 37 l 419 272 l 505 272 l 533 100 q 566 74 547 85 q 609 57 585 63 q 661 51 633 51 q 720 63 693 51 q 767 102 747 76 q 798 170 787 128 q 809 270 809 212 q 793 383 809 334 q 742 468 776 432 q 653 527 708 503 q 522 564 599 551 l 522 612 l 743 900 q 688 930 720 917 q 615 948 656 942 q 524 955 574 955 q 385 931 437 955 q 311 848 333 906 q 289 683 289 789 l 289 0 l 48 0 l 48 59 l 131 75 l 131 640 q 161 800 131 727 q 250 928 192 874 q 394 1013 309 983 q 587 1043 478 1043 q 690 1037 642 1043 q 779 1022 738 1031 q 855 998 820 1012 q 916 970 889 985 l 916 915 l 669 601 q 799 564 743 589 q 893 501 856 540 q 951 411 931 463 q 970 294 970 359 q 932 127 970 196 q 823 21 893 58 q 660 -15 753 -15 z "},"Ꞩ":{"ha":811,"x_min":76,"x_max":765,"o":"m 393 -15 q 249 0 312 -15 q 142 30 185 15 q 76 48 99 46 l 89 294 l 179 294 l 207 113 q 250 84 223 97 q 314 61 277 70 q 397 53 351 53 q 519 76 472 53 q 589 139 567 99 q 610 233 610 180 q 580 332 610 290 q 496 407 550 374 q 372 470 442 440 q 281 513 329 489 q 188 572 232 537 q 117 657 144 607 q 90 776 90 706 q 131 911 90 851 q 249 1008 172 972 q 435 1044 326 1044 q 531 1038 488 1044 q 608 1021 574 1031 q 666 1004 642 1012 q 705 994 690 996 l 695 765 l 608 765 l 579 937 q 550 955 571 945 q 498 971 528 965 q 429 978 467 978 q 321 959 364 978 q 256 904 278 940 q 235 819 235 869 q 265 720 235 761 q 350 648 296 680 q 474 581 404 615 q 573 533 522 559 q 667 473 624 507 q 738 392 711 439 q 765 281 765 345 q 744 175 765 228 q 678 80 723 123 q 563 11 634 37 q 393 -15 492 -15 m 144 379 l 144 458 l 347 542 l 413 572 l 668 678 l 668 599 l 485 523 l 415 492 l 144 379 z "},"T":{"ha":962,"x_min":30,"x_max":932,"o":"m 401 76 l 401 965 l 179 956 l 116 662 l 30 662 l 54 1032 l 909 1032 l 932 662 l 846 662 l 785 956 l 562 965 l 562 76 l 749 60 l 749 0 l 216 0 l 216 60 l 401 76 z "},"Ŧ":{"ha":962,"x_min":30,"x_max":932,"o":"m 401 76 l 401 965 l 179 956 l 116 662 l 30 662 l 54 1032 l 909 1032 l 932 662 l 846 662 l 785 956 l 562 965 l 562 76 l 749 60 l 749 0 l 216 0 l 216 60 l 401 76 m 722 557 l 722 485 l 244 485 l 244 557 l 722 557 z "},"Ť":{"ha":962,"x_min":30,"x_max":932,"o":"m 401 76 l 401 965 l 179 956 l 116 662 l 30 662 l 54 1032 l 909 1032 l 932 662 l 846 662 l 785 956 l 562 965 l 562 76 l 749 60 l 749 0 l 216 0 l 216 60 l 401 76 m 426 1115 l 253 1315 l 301 1351 l 484 1216 l 666 1351 l 714 1315 l 541 1115 l 426 1115 z "},"Ţ":{"ha":962,"x_min":30,"x_max":932,"o":"m 401 76 l 401 965 l 179 956 l 116 662 l 30 662 l 54 1032 l 909 1032 l 932 662 l 846 662 l 785 956 l 562 965 l 562 76 l 749 60 l 749 0 l 216 0 l 216 60 l 401 76 m 444 -331 q 392 -325 419 -331 q 346 -312 364 -319 l 346 -215 q 379 -222 360 -219 q 408 -224 397 -224 q 482 -207 455 -224 q 509 -131 509 -190 q 501 -78 509 -104 q 481 -31 492 -51 q 462 0 470 -10 l 501 0 l 526 0 q 563 -42 541 -13 q 601 -109 585 -70 q 617 -192 617 -149 q 595 -272 616 -241 q 535 -316 574 -302 q 444 -331 497 -331 z "},"Ṱ":{"ha":962,"x_min":30,"x_max":932,"o":"m 401 76 l 401 965 l 179 956 l 116 662 l 30 662 l 54 1032 l 909 1032 l 932 662 l 846 662 l 785 956 l 562 965 l 562 76 l 749 60 l 749 0 l 216 0 l 216 60 l 401 76 m 423 -73 l 540 -73 l 724 -300 l 676 -337 l 481 -182 l 286 -337 l 238 -300 l 423 -73 z "},"Ț":{"ha":962,"x_min":30,"x_max":932,"o":"m 401 76 l 401 965 l 179 956 l 116 662 l 30 662 l 54 1032 l 909 1032 l 932 662 l 846 662 l 785 956 l 562 965 l 562 76 l 749 60 l 749 0 l 216 0 l 216 60 l 401 76 m 567 -187 q 545 -269 567 -231 q 497 -334 524 -308 q 453 -369 469 -360 l 451 -369 l 410 -345 l 410 -337 q 442 -299 429 -325 q 454 -256 454 -274 q 446 -224 454 -236 q 424 -204 438 -212 q 404 -183 413 -196 q 394 -149 394 -171 q 408 -109 394 -124 q 439 -88 421 -94 q 471 -81 457 -81 l 474 -81 q 542 -109 516 -81 q 567 -187 567 -137 z "},"Ⱦ":{"ha":962,"x_min":30,"x_max":932,"o":"m 401 76 l 401 965 l 179 956 l 116 662 l 30 662 l 54 1032 l 909 1032 l 932 662 l 846 662 l 785 956 l 562 965 l 562 76 l 749 60 l 749 0 l 216 0 l 216 60 l 401 76 m 232 -94 l 440 533 l 490 571 l 683 1151 l 738 1135 l 537 556 l 486 515 l 286 -111 l 232 -94 z "},"Ṫ":{"ha":962,"x_min":30,"x_max":932,"o":"m 401 76 l 401 965 l 179 956 l 116 662 l 30 662 l 54 1032 l 909 1032 l 932 662 l 846 662 l 785 956 l 562 965 l 562 76 l 749 60 l 749 0 l 216 0 l 216 60 l 401 76 m 475 1126 q 407 1152 431 1126 q 383 1217 383 1178 q 410 1290 383 1258 q 486 1321 436 1321 l 488 1321 q 555 1295 532 1321 q 578 1231 578 1269 q 552 1158 578 1189 q 476 1126 526 1126 l 475 1126 z "},"Ṭ":{"ha":962,"x_min":30,"x_max":932,"o":"m 401 76 l 401 965 l 179 956 l 116 662 l 30 662 l 54 1032 l 909 1032 l 932 662 l 846 662 l 785 956 l 562 965 l 562 76 l 749 60 l 749 0 l 216 0 l 216 60 l 401 76 m 472 -285 q 406 -259 429 -285 q 382 -195 382 -233 q 408 -122 382 -153 q 483 -90 434 -90 l 484 -90 q 551 -116 528 -90 q 574 -181 574 -142 q 548 -254 574 -223 q 473 -285 522 -285 l 472 -285 z "},"Ƭ":{"ha":1003,"x_min":30,"x_max":974,"o":"m 258 0 l 258 60 l 442 76 l 442 967 l 367 967 q 260 939 305 967 q 192 862 216 911 q 166 748 167 813 q 188 610 164 684 l 41 610 q 33 651 37 623 q 30 722 30 678 q 48 832 30 777 q 105 932 66 887 q 204 1005 143 978 q 351 1032 265 1032 l 950 1032 l 974 662 l 885 662 l 826 956 l 603 965 l 603 76 l 790 60 l 790 0 l 258 0 z "},"Ṯ":{"ha":962,"x_min":30,"x_max":932,"o":"m 401 76 l 401 965 l 179 956 l 116 662 l 30 662 l 54 1032 l 909 1032 l 932 662 l 846 662 l 785 956 l 562 965 l 562 76 l 749 60 l 749 0 l 216 0 l 216 60 l 401 76 m 678 -127 l 678 -227 l 284 -227 l 284 -127 l 678 -127 z "},"Ʈ":{"ha":962,"x_min":30,"x_max":932,"o":"m 697 -350 q 589 -325 642 -350 q 494 -257 536 -301 q 426 -155 451 -213 q 401 -28 401 -96 l 400 965 l 179 956 l 118 662 l 30 662 l 54 1032 l 909 1032 l 932 662 l 844 662 l 785 956 l 562 965 l 562 -81 q 572 -165 562 -132 q 606 -215 582 -199 q 670 -231 629 -231 q 729 -222 700 -231 q 772 -201 758 -212 l 772 -338 q 746 -346 763 -342 q 697 -350 728 -350 z "},"U":{"ha":1006,"x_min":28,"x_max":988,"o":"m 526 -12 q 302 34 390 -12 q 170 176 214 80 q 126 423 126 272 l 126 953 l 28 971 l 28 1032 l 406 1032 l 406 971 l 289 952 l 289 406 q 306 241 289 308 q 357 133 324 174 q 437 75 390 92 q 541 57 483 57 q 680 98 624 57 q 765 217 736 138 q 793 410 794 296 l 792 951 l 678 971 l 678 1032 l 988 1032 l 988 971 l 890 953 l 888 417 q 861 223 888 303 q 786 90 835 142 q 670 13 737 38 q 526 -12 604 -12 z "},"Ú":{"ha":1006,"x_min":28,"x_max":988,"o":"m 526 -12 q 302 34 390 -12 q 170 176 214 80 q 126 423 126 272 l 126 953 l 28 971 l 28 1032 l 406 1032 l 406 971 l 289 952 l 289 406 q 306 241 289 308 q 357 133 324 174 q 437 75 390 92 q 541 57 483 57 q 680 98 624 57 q 765 217 736 138 q 793 410 794 296 l 792 951 l 678 971 l 678 1032 l 988 1032 l 988 971 l 890 953 l 888 417 q 861 223 888 303 q 786 90 835 142 q 670 13 737 38 q 526 -12 604 -12 m 514 1110 l 465 1152 l 637 1373 l 740 1290 q 694 1239 721 1265 q 635 1188 667 1213 q 573 1142 604 1163 q 515 1110 542 1122 l 514 1110 z "},"Ʉ":{"ha":1006,"x_min":26,"x_max":988,"o":"m 526 -12 q 302 34 390 -12 q 170 176 214 80 q 126 423 126 272 l 126 953 l 28 971 l 28 1032 l 406 1032 l 406 971 l 289 952 l 289 406 q 306 241 289 308 q 357 133 324 174 q 437 75 390 92 q 541 57 483 57 q 680 98 624 57 q 765 217 736 138 q 793 410 794 296 l 792 951 l 678 971 l 678 1032 l 988 1032 l 988 971 l 890 953 l 888 417 q 861 223 888 303 q 786 90 835 142 q 670 13 737 38 q 526 -12 604 -12 m 988 519 l 988 448 l 26 448 l 26 519 l 988 519 z "},"Ŭ":{"ha":1006,"x_min":28,"x_max":988,"o":"m 526 -12 q 302 34 390 -12 q 170 176 214 80 q 126 423 126 272 l 126 953 l 28 971 l 28 1032 l 406 1032 l 406 971 l 289 952 l 289 406 q 306 241 289 308 q 357 133 324 174 q 437 75 390 92 q 541 57 483 57 q 680 98 624 57 q 765 217 736 138 q 793 410 794 296 l 792 951 l 678 971 l 678 1032 l 988 1032 l 988 971 l 890 953 l 888 417 q 861 223 888 303 q 786 90 835 142 q 670 13 737 38 q 526 -12 604 -12 m 515 1120 q 409 1143 455 1120 q 338 1207 364 1165 q 312 1302 312 1248 q 313 1319 312 1311 q 315 1335 313 1326 l 383 1335 q 383 1325 383 1331 q 384 1313 383 1319 q 402 1268 389 1289 q 443 1233 416 1247 q 515 1220 470 1220 q 587 1233 560 1220 q 628 1268 614 1247 q 645 1313 642 1289 q 647 1325 647 1319 q 647 1335 647 1331 l 715 1335 q 717 1319 717 1326 q 718 1302 718 1311 q 692 1207 718 1248 q 620 1143 666 1165 q 515 1120 575 1120 z "},"Ǔ":{"ha":1006,"x_min":28,"x_max":988,"o":"m 526 -12 q 302 34 390 -12 q 170 176 214 80 q 126 423 126 272 l 126 953 l 28 971 l 28 1032 l 406 1032 l 406 971 l 289 952 l 289 406 q 306 241 289 308 q 357 133 324 174 q 437 75 390 92 q 541 57 483 57 q 680 98 624 57 q 765 217 736 138 q 793 410 794 296 l 792 951 l 678 971 l 678 1032 l 988 1032 l 988 971 l 890 953 l 888 417 q 861 223 888 303 q 786 90 835 142 q 670 13 737 38 q 526 -12 604 -12 m 460 1115 l 287 1315 l 335 1351 l 517 1216 l 699 1351 l 747 1315 l 574 1115 l 460 1115 z "},"Û":{"ha":1006,"x_min":28,"x_max":988,"o":"m 526 -12 q 302 34 390 -12 q 170 176 214 80 q 126 423 126 272 l 126 953 l 28 971 l 28 1032 l 406 1032 l 406 971 l 289 952 l 289 406 q 306 241 289 308 q 357 133 324 174 q 437 75 390 92 q 541 57 483 57 q 680 98 624 57 q 765 217 736 138 q 793 410 794 296 l 792 951 l 678 971 l 678 1032 l 988 1032 l 988 971 l 890 953 l 888 417 q 861 223 888 303 q 786 90 835 142 q 670 13 737 38 q 526 -12 604 -12 m 333 1104 l 285 1140 l 458 1343 l 572 1343 l 745 1141 l 697 1104 l 515 1243 l 333 1104 z "},"Ṷ":{"ha":1006,"x_min":28,"x_max":988,"o":"m 526 -12 q 302 34 390 -12 q 170 176 214 80 q 126 423 126 272 l 126 953 l 28 971 l 28 1032 l 406 1032 l 406 971 l 289 952 l 289 406 q 306 241 289 308 q 357 133 324 174 q 437 75 390 92 q 541 57 483 57 q 680 98 624 57 q 765 217 736 138 q 793 410 794 296 l 792 951 l 678 971 l 678 1032 l 988 1032 l 988 971 l 890 953 l 888 417 q 861 223 888 303 q 786 90 835 142 q 670 13 737 38 q 526 -12 604 -12 m 452 -73 l 569 -73 l 753 -300 l 706 -337 l 510 -182 l 315 -337 l 267 -300 l 452 -73 z "},"Ȕ":{"ha":1006,"x_min":28,"x_max":988,"o":"m 526 -12 q 302 34 390 -12 q 170 176 214 80 q 126 423 126 272 l 126 953 l 28 971 l 28 1032 l 406 1032 l 406 971 l 289 952 l 289 406 q 306 241 289 308 q 357 133 324 174 q 437 75 390 92 q 541 57 483 57 q 680 98 624 57 q 765 217 736 138 q 793 410 794 296 l 792 951 l 678 971 l 678 1032 l 988 1032 l 988 971 l 890 953 l 888 417 q 861 223 888 303 q 786 90 835 142 q 670 13 737 38 q 526 -12 604 -12 m 388 1110 q 333 1147 364 1124 q 272 1198 303 1170 q 213 1255 240 1226 q 167 1309 185 1283 l 263 1381 l 441 1152 l 390 1110 l 388 1110 m 649 1110 q 577 1164 617 1130 q 502 1237 538 1198 q 441 1310 465 1276 l 537 1382 l 701 1149 l 651 1110 l 649 1110 z "},"Ü":{"ha":1006,"x_min":28,"x_max":988,"o":"m 526 -12 q 302 34 390 -12 q 170 176 214 80 q 126 423 126 272 l 126 953 l 28 971 l 28 1032 l 406 1032 l 406 971 l 289 952 l 289 406 q 306 241 289 308 q 357 133 324 174 q 437 75 390 92 q 541 57 483 57 q 680 98 624 57 q 765 217 736 138 q 793 410 794 296 l 792 951 l 678 971 l 678 1032 l 988 1032 l 988 971 l 890 953 l 888 417 q 861 223 888 303 q 786 90 835 142 q 670 13 737 38 q 526 -12 604 -12 m 379 1126 q 322 1152 342 1126 q 301 1216 301 1178 q 325 1289 301 1257 q 390 1321 348 1321 l 392 1321 q 449 1294 429 1321 q 469 1231 469 1268 q 446 1158 469 1190 q 381 1126 423 1126 l 379 1126 m 639 1126 q 581 1152 601 1126 q 561 1216 561 1178 q 584 1289 561 1257 q 649 1321 607 1321 l 651 1321 q 709 1294 689 1321 q 729 1231 729 1268 q 706 1158 729 1190 q 640 1126 683 1126 l 639 1126 z "}}}
